<?xml version="1.0" encoding="utf-8"?>
<!-- Generator: Adobe Illustrator 27.5.0, SVG Export Plug-In . SVG Version: 6.00 Build 0)  -->
<svg version="1.1" xmlns="http://www.w3.org/2000/svg" xmlns:xlink="http://www.w3.org/1999/xlink" x="0px" y="0px"
	 viewBox="0 0 500 500" style="enable-background:new 0 0 500 500;" xml:space="preserve">
<g id="Tree_00000033355180330681932530000002137680920377071000_">
	<g id="Tree">
		<g>
			<path style="fill:#EBEBEB;" d="M456.834,203.507c0.34,2.648-2.887,4.856-5.689,4.346c0.17,1.595-2.072,2.513-2.972,1.698
				c0.9,1.177,2.372,4.893,0,6.917c-2.372,2.023-5.427,0.867-5.427,0.867s-1.115,2.767-5.327,2.023
				c-4.212-0.743-5.079-5.038-4.584-6.566c-2.764,1.596-8.382,0.372-10.901-3.345c-2.519-3.716-2.312-8.336-0.165-10.442
				c-1.467-1.384-0.996-3.581-0.129-4.614c0.867-1.032,2.109-0.938,2.109-0.938s-1.186-1.369,0.208-2.299
				c-1.982-1.156-2.891-5.285,0.289-8.382c3.18-3.097,7.939-1.861,7.939-1.861s-0.974-3.064,1.127-5.778
				c1.809-2.338,4.81-2.103,4.81-2.103s-0.13-2.196,2.019-2.307c-1.246-2.261-0.064-5.119,1.574-6.371
				c3.043-2.326,10.798-2.946,10.753,2.853c3.151-2.42,7.884,0.852,7.125,4.088c2.6-2.262,6.801,0.798,5.822,3.923
				c3.764-1.07,7.691,3.404,5.59,7.559c1.464-0.845,4.782-0.238,4.692,2.557c1.899-0.578,4.005,0.546,4.542,2.528
				c0.537,1.982-0.305,3.501-1.791,4.492c1.415-0.206,2.283,2.157,1.337,2.849c2.767,0,4.642,5.794,1.266,7.71
				c1.941,1.363,2.916,9.639-3.03,12.984c-5.946,3.345-14.491,1.319-14.929-4.106c-2.519-0.619-3.581-3.332-1.888-4.819
				C459.552,207.632,456.992,205.567,456.834,203.507z"/>
			<path style="opacity:0.07;" d="M478.02,215.896c5.946-3.345,4.971-11.621,3.03-12.984c3.377-1.916,1.501-7.71-1.266-7.71
				c0.946-0.692,0.078-3.056-1.337-2.849c1.486-0.991,2.328-2.51,1.791-4.492c-0.267-0.987-0.925-1.761-1.751-2.219
				c1.208,1.945,0.714,5.336-2.527,6.031c-2.795,0.599-4.28-1.399-4.28-1.399s-0.683,1.183-3.724,0.805
				c-3.041-0.378-4.561-3.378-3.757-5.793c1.431-2.415-0.805-5.366-3.691-4.92c0.139,6.082-5.123,7.92-10.082,5.546
				c2.415,6.082-2.862,9.033-5.545,6.35c-0.894,2.236-3.846,1.968-5.188,0.626c-1.342,1.431-5.545,0-5.545-3.399
				c-2.504,3.13-6.976,2.236-7.334-1.073c-1.906,2.5-4.291,1.096-4.54,0.113c0.247,1.189,0.876,2.154,1.684,2.626
				c-1.395,0.93-0.208,2.299-0.208,2.299s-1.242-0.095-2.109,0.938c-0.867,1.032-1.338,3.23,0.129,4.614
				c-2.147,2.106-2.354,6.726,0.165,10.442c2.519,3.716,8.137,4.94,10.901,3.345c-0.495,1.528,0.372,5.822,4.584,6.566
				c4.212,0.743,5.327-2.023,5.327-2.023s3.056,1.156,5.428-0.867c2.372-2.023,0.9-5.74,0-6.917c0.9,0.815,3.142-0.103,2.972-1.698
				c2.802,0.509,6.028-1.698,5.689-4.346c0.158,2.06,2.718,4.125,4.37,3.464c-1.693,1.487-0.631,4.199,1.888,4.819
				C463.529,217.216,472.074,219.241,478.02,215.896z"/>
			<path style="fill:#EBEBEB;" d="M444.946,198.722c0,0-5.341,1.582-6.824-2.242c-2.722,1.571-7.812,1.187-9.527-2.242
				c-2.901,0-4.638-3.083-4.638-3.083c-1.395,0.93-0.208,2.299-0.208,2.299s-1.242-0.095-2.109,0.938
				c-0.867,1.032-1.338,3.23,0.129,4.614c-0.227,0.223-0.428,0.48-0.611,0.755c-0.888,2.328,2.17,4.099,4.075,2.982
				c-0.725,2.373,1.978,9.494,9.494,6.527c4.483,2.835,9.032-0.593,8.439-6.857C445.401,202.414,446.463,199.975,444.946,198.722z"
				/>
			<path style="fill:#EBEBEB;" d="M473.362,205.051c2.304-2.745,1.648-5.604,1.648-5.604s-2.261,3.283-6.988,1.269
				c-4.728-2.014-2.176-6.675-2.176-6.675s-3.626,0.295-2.967-2.885c-1.172,0.585-2.967-0.082-2.967-2.389
				c-0.521,3.996-3.885,5.928-8.109,5.011c2.835,1.055,2.637,3.251,0.659,4.823c-2.236,2.236-1.964,7.843,3.401,7.642
				c0.701-0.76,1.101-1.714,0.97-2.735c0.158,2.06,2.718,4.125,4.37,3.464c0,0,0,0,0,0l0,0c0,0,1.544,1.377,3.39-0.403
				C465.945,207.919,471.058,207.796,473.362,205.051z"/>
		</g>
		<path style="fill:#F0F0F0;" d="M467.317,215.25c0,0,4.226-6.172,3.992-6.654c-0.233-0.481-3.992,5.656-6.321,7.319
			c-2.329,1.663-6.987,4.491-8.151,4.491s-1.247-1.414-0.832-4.159c0.416-2.745,0.508-3.493,2.417-5.988
			c1.908-2.495,7.38-9.249,7.065-9.565c-0.315-0.315-7.256,8.547-8.982,9.648c-1.686,1.075-3.168-6.155-3.743-6.155
			c-0.574,0,1.652,5.174,1.791,7.586c0.139,2.412-0.128,5.305-1.209,6.054c-1.081,0.748-4.033-1.58-5.946-3.66
			c-1.913-2.079-1.954-11.062-2.704-11.062c-0.75,0,0.482,8.245,0.482,9.04c0,1.734-7.311-3.014-8.633-2.802
			c-1.322,0.212,6.731,3.084,9.897,6.155c2.758,2.674,3.229,3.517,4.17,5.498c0.999,2.103,1.29,4.816,1.29,12.551
			c0,7.735-2.084,29.397-2.084,34.19c0,0.636,0.42,1.271,1.26,1.757c1.68,0.97,4.405,0.97,6.085,0c0.84-0.485,1.26-1.121,1.26-1.757
			l0,0v0l0,0c0-4.793-2.084-26.455-2.084-34.19c0-7.735,0.313-10.622,2.61-12.256c2.297-1.634,6.218-4.525,7.952-5.044
			c1.735-0.519,6.737,0.334,6.737,0C473.638,215.915,467.317,215.25,467.317,215.25z"/>
	</g>
	<g id="Tree_00000039817596429978496060000011243631308648514972_">
		<g>
			<path style="fill:#EBEBEB;" d="M316.317,149.414c0.385,3.005-3.276,5.511-6.456,4.932c0.193,1.81-2.352,2.852-3.372,1.927
				c1.021,1.336,2.691,5.553,0,7.849c-2.692,2.296-6.159,0.984-6.159,0.984s-1.265,3.14-6.045,2.296
				c-4.78-0.843-5.764-5.717-5.201-7.451c-3.137,1.811-9.513,0.422-12.371-3.796c-2.859-4.217-2.624-9.46-0.188-11.85
				c-1.665-1.571-1.13-4.064-0.146-5.236c0.984-1.171,2.393-1.064,2.393-1.064s-1.346-1.554,0.237-2.609
				c-2.249-1.312-3.28-5.998,0.328-9.513c3.608-3.515,9.009-2.112,9.009-2.112s-1.105-3.477,1.279-6.557
				c2.053-2.653,5.458-2.387,5.458-2.387s-0.148-2.492,2.291-2.618c-1.414-2.565-0.072-5.809,1.786-7.23
				c3.454-2.64,12.254-3.343,12.202,3.237c3.575-2.746,8.947,0.967,8.086,4.639c2.951-2.566,7.718,0.905,6.607,4.452
				c4.271-1.215,8.728,3.863,6.344,8.578c1.662-0.959,5.426-0.27,5.324,2.902c2.155-0.656,4.545,0.619,5.155,2.869
				c0.609,2.249-0.347,3.973-2.033,5.097c1.606-0.234,2.591,2.448,1.517,3.233c3.14,0,5.268,6.575,1.436,8.749
				c2.202,1.546,3.309,10.939-3.439,14.735c-6.748,3.796-16.445,1.497-16.942-4.66c-2.858-0.703-4.064-3.781-2.142-5.468
				C319.402,154.095,316.496,151.752,316.317,149.414z"/>
			<path style="opacity:0.07;" d="M340.36,163.473c6.748-3.796,5.641-13.188,3.439-14.735c3.832-2.174,1.703-8.749-1.436-8.749
				c1.073-0.785,0.089-3.468-1.517-3.233c1.686-1.124,2.642-2.848,2.033-5.097c-0.304-1.121-1.049-1.999-1.988-2.518
				c1.371,2.207,0.811,6.055-2.868,6.844c-3.172,0.68-4.857-1.587-4.857-1.587s-0.775,1.343-4.226,0.913
				c-3.451-0.429-5.176-3.834-4.263-6.574c1.624-2.74-0.913-6.09-4.189-5.583c0.158,6.902-5.813,8.988-11.442,6.293
				c2.74,6.902-3.248,10.251-6.293,7.206c-1.015,2.538-4.364,2.233-5.887,0.711c-1.523,1.624-6.293,0-6.293-3.857
				c-2.842,3.553-7.917,2.538-8.323-1.218c-2.163,2.837-4.87,1.244-5.153,0.128c0.28,1.349,0.994,2.445,1.912,2.98
				c-1.583,1.055-0.237,2.609-0.237,2.609s-1.409-0.107-2.393,1.064c-0.984,1.172-1.518,3.665,0.146,5.236
				c-2.437,2.39-2.671,7.633,0.188,11.85c2.858,4.217,9.234,5.607,12.371,3.796c-0.562,1.734,0.422,6.607,5.201,7.451
				c4.78,0.843,6.045-2.296,6.045-2.296s3.468,1.312,6.159-0.984c2.691-2.296,1.021-6.514,0-7.849
				c1.021,0.924,3.565-0.117,3.372-1.927c3.18,0.578,6.841-1.927,6.456-4.932c0.179,2.338,3.085,4.681,4.959,3.931
				c-1.921,1.687-0.716,4.766,2.142,5.468C323.916,164.971,333.613,167.269,340.36,163.473z"/>
			<path style="fill:#EBEBEB;" d="M302.827,143.984c0,0-6.061,1.796-7.744-2.544c-3.089,1.783-8.866,1.347-10.811-2.544
				c-3.292,0-5.264-3.499-5.264-3.499c-1.583,1.055-0.237,2.609-0.237,2.609s-1.409-0.107-2.393,1.064
				c-0.984,1.172-1.518,3.665,0.146,5.236c-0.258,0.253-0.486,0.544-0.693,0.857c-1.008,2.641,2.463,4.652,4.625,3.385
				c-0.823,2.693,2.244,10.774,10.774,7.407c5.088,3.217,10.25-0.673,9.577-7.781C303.343,148.174,304.548,145.405,302.827,143.984z
				"/>
			<path style="fill:#EBEBEB;" d="M335.074,151.166c2.615-3.115,1.87-6.36,1.87-6.36s-2.565,3.725-7.931,1.44
				c-5.365-2.285-2.469-7.576-2.469-7.576s-4.115,0.335-3.367-3.274c-1.329,0.664-3.367-0.093-3.367-2.711
				c-0.591,4.535-4.409,6.727-9.203,5.686c3.217,1.197,2.993,3.69,0.748,5.473c-2.538,2.538-2.229,8.9,3.86,8.672
				c0.795-0.862,1.249-1.945,1.101-3.104c0.179,2.338,3.085,4.681,4.959,3.931c0,0,0,0,0,0l0,0c0,0,1.752,1.562,3.847-0.458
				C326.657,154.421,332.459,154.281,335.074,151.166z"/>
		</g>
		<path style="fill:#F0F0F0;" d="M328.214,162.74c0,0,4.795-7.005,4.53-7.551c-0.265-0.546-4.53,6.418-7.173,8.306
			c-2.643,1.888-7.928,5.097-9.25,5.097s-1.416-1.604-0.944-4.719c0.472-3.115,0.577-3.964,2.742-6.796
			c2.166-2.831,8.375-10.496,8.017-10.854c-0.358-0.358-8.234,9.699-10.194,10.949c-1.913,1.22-3.595-6.984-4.247-6.984
			c-0.652,0,1.875,5.872,2.033,8.609c0.158,2.737-0.145,6.021-1.372,6.87c-1.227,0.849-4.577-1.793-6.748-4.153
			c-2.171-2.36-2.218-12.553-3.068-12.553c-0.851,0,0.547,9.356,0.547,10.259c0,1.968-8.296-3.421-9.797-3.18
			c-1.5,0.24,7.638,3.499,11.232,6.984c3.129,3.035,3.665,3.991,4.733,6.239c1.133,2.386,1.464,5.465,1.464,14.243
			s-2.365,22.841-2.365,28.28c0,0.722,0.477,1.443,1.43,1.993c1.907,1.101,4.998,1.101,6.905,0c0.953-0.55,1.43-1.272,1.43-1.993
			l0,0v0l0,0c0-5.439-2.365-19.503-2.365-28.28s0.355-12.054,2.962-13.908c2.607-1.854,7.056-5.135,9.025-5.724
			c1.969-0.589,7.645,0.379,7.645,0C335.387,163.494,328.214,162.74,328.214,162.74z"/>
	</g>
	<g id="Tree_00000010995240250485520660000011340254818309709998_">
		<g>
			<path style="fill:#E0E0E0;" d="M102.849,159.897c0.458,3.569-3.89,6.543-7.666,5.857c0.229,2.15-2.792,3.386-4.005,2.288
				c1.212,1.586,3.196,6.594,0,9.321c-3.196,2.726-7.314,1.168-7.314,1.168s-1.502,3.728-7.178,2.727
				c-5.676-1.001-6.844-6.788-6.176-8.847c-3.724,2.15-11.295,0.501-14.69-4.507c-3.394-5.008-3.116-11.233-0.223-14.071
				c-1.977-1.865-1.342-4.826-0.174-6.217c1.168-1.391,2.842-1.263,2.842-1.263s-1.599-1.845,0.281-3.098
				c-2.671-1.558-3.895-7.122,0.389-11.295c4.285-4.173,10.698-2.508,10.698-2.508s-1.312-4.128,1.519-7.786
				c2.438-3.15,6.481-2.834,6.481-2.834s-0.175-2.959,2.72-3.109c-1.679-3.046-0.086-6.898,2.121-8.585
				c4.101-3.134,14.551-3.97,14.489,3.844c4.245-3.261,10.623,1.148,9.601,5.509c3.504-3.048,9.164,1.075,7.846,5.286
				c5.072-1.442,10.363,4.587,7.533,10.186c1.973-1.139,6.443-0.321,6.322,3.446c2.559-0.779,5.397,0.736,6.121,3.406
				c0.723,2.671-0.412,4.717-2.414,6.053c1.907-0.278,3.076,2.907,1.802,3.839c3.728,0,6.256,7.807,1.705,10.389
				c2.615,1.836,3.929,12.989-4.084,17.496c-8.013,4.507-19.527,1.778-20.117-5.533c-3.394-0.835-4.825-4.49-2.544-6.493
				C106.512,165.456,103.062,162.673,102.849,159.897z"/>
			<path style="opacity:0.15;" d="M131.398,176.592c8.013-4.507,6.699-15.66,4.083-17.496c4.551-2.582,2.023-10.389-1.705-10.389
				c1.275-0.932,0.106-4.118-1.802-3.839c2.002-1.335,3.137-3.382,2.414-6.053c-0.36-1.331-1.246-2.374-2.36-2.99
				c1.628,2.621,0.963,7.19-3.406,8.127c-3.766,0.807-5.768-1.885-5.768-1.885s-0.921,1.594-5.018,1.084
				c-4.098-0.51-6.147-4.552-5.062-7.806c1.929-3.254-1.084-7.231-4.974-6.629c0.187,8.195-6.903,10.673-13.586,7.473
				c3.254,8.195-3.857,12.173-7.472,8.557c-1.205,3.013-5.182,2.652-6.99,0.844c-1.808,1.928-7.472,0-7.472-4.58
				c-3.375,4.218-9.401,3.013-9.883-1.446c-2.569,3.369-5.783,1.477-6.118,0.152c0.333,1.602,1.181,2.903,2.27,3.538
				c-1.879,1.253-0.281,3.098-0.281,3.098s-1.673-0.128-2.842,1.263c-1.169,1.391-1.803,4.352,0.174,6.217
				c-2.893,2.838-3.172,9.063,0.223,14.071c3.394,5.008,10.965,6.657,14.69,4.507c-0.668,2.059,0.501,7.846,6.176,8.847
				c5.675,1.002,7.178-2.727,7.178-2.727s4.118,1.558,7.314-1.168c3.196-2.727,1.212-7.734,0-9.321
				c1.212,1.098,4.233-0.139,4.005-2.288c3.776,0.687,8.123-2.288,7.666-5.857c0.213,2.776,3.663,5.558,5.888,4.668
				c-2.281,2.003-0.85,5.659,2.544,6.493C111.872,178.37,123.386,181.099,131.398,176.592z"/>
			<path style="fill:#E0E0E0;" d="M86.831,153.45c0,0-7.197,2.132-9.195-3.021c-3.667,2.117-10.527,1.599-12.837-3.021
				c-3.909,0-6.25-4.154-6.25-4.154c-1.879,1.253-0.281,3.098-0.281,3.098s-1.673-0.128-2.842,1.263
				c-1.169,1.391-1.803,4.352,0.174,6.217c-0.306,0.301-0.577,0.646-0.823,1.017c-1.197,3.137,2.924,5.524,5.492,4.019
				c-0.977,3.198,2.665,12.793,12.793,8.795c6.041,3.82,12.171-0.799,11.372-9.24C87.443,158.425,88.874,155.138,86.831,153.45z"/>
			<path style="fill:#E0E0E0;" d="M125.121,161.978c3.105-3.698,2.221-7.552,2.221-7.552s-3.046,4.424-9.417,1.71
				c-6.371-2.713-2.932-8.995-2.932-8.995s-4.886,0.398-3.998-3.888c-1.579,0.788-3.998-0.11-3.998-3.219
				c-0.702,5.385-5.235,7.988-10.927,6.752c3.82,1.421,3.554,4.381,0.888,6.499c-3.013,3.013-2.647,10.568,4.583,10.297
				c0.944-1.023,1.484-2.31,1.307-3.686c0.213,2.776,3.663,5.558,5.888,4.668c0,0,0,0,0,0l0,0c0,0,2.08,1.855,4.568-0.544
				C115.127,165.843,122.017,165.677,125.121,161.978z"/>
		</g>
		<path style="fill:#E0E0E0;" d="M116.975,175.721c0,0,5.694-8.317,5.379-8.966c-0.315-0.649-5.379,7.621-8.517,9.863
			c-3.138,2.241-9.414,6.052-10.983,6.052c-1.569,0-1.681-1.905-1.121-5.604c0.56-3.698,0.685-4.707,3.256-8.069
			c2.571-3.362,9.945-12.464,9.52-12.889c-0.425-0.425-9.777,11.517-12.104,13.001c-2.272,1.449-4.269-8.294-5.043-8.294
			s2.226,6.972,2.414,10.223c0.188,3.25-0.172,7.149-1.629,8.158c-1.457,1.009-5.435-2.13-8.013-4.931
			c-2.578-2.802-2.633-14.906-3.643-14.906s0.649,11.11,0.649,12.182c0,2.337-9.851-4.062-11.633-3.776
			c-1.782,0.285,9.07,4.155,13.337,8.294c3.716,3.604,4.352,4.739,5.619,7.408c1.346,2.834,1.738,6.489,1.738,16.912
			c0,10.423-2.808,27.122-2.808,33.581c0,0.857,0.566,1.713,1.698,2.367c2.264,1.307,5.935,1.307,8.199,0
			c1.132-0.654,1.698-1.51,1.698-2.367l0,0v0l0,0c0-6.459-2.808-23.158-2.808-33.581c0-10.423,0.422-14.313,3.517-16.515
			c3.095-2.202,8.378-6.098,10.716-6.797c2.338-0.699,9.078,0.45,9.078,0C125.493,176.617,116.975,175.721,116.975,175.721z"/>
	</g>
	<g id="Tree_00000067207608314889933750000010456844695423805879_">
		<g>
			<path style="fill:#E0E0E0;" d="M409.342,165.687c0.417,3.251-3.544,5.961-6.984,5.336c0.208,1.959-2.544,3.085-3.648,2.085
				c1.105,1.445,2.912,6.008,0,8.492c-2.912,2.484-6.663,1.064-6.663,1.064s-1.369,3.396-6.54,2.484
				c-5.171-0.913-6.236-6.185-5.627-8.06c-3.393,1.959-10.291,0.456-13.383-4.106c-3.092-4.563-2.839-10.235-0.203-12.82
				c-1.801-1.699-1.223-4.397-0.158-5.664c1.065-1.267,2.589-1.151,2.589-1.151s-1.456-1.681,0.256-2.822
				c-2.433-1.419-3.549-6.489,0.355-10.291c3.904-3.802,9.747-2.285,9.747-2.285s-1.195-3.761,1.384-7.094
				c2.221-2.87,5.905-2.582,5.905-2.582s-0.16-2.696,2.478-2.832c-1.53-2.775-0.078-6.285,1.933-7.821
				c3.736-2.856,13.257-3.617,13.201,3.502c3.868-2.971,9.679,1.046,8.748,5.019c3.192-2.776,8.349,0.979,7.148,4.816
				c4.621-1.314,9.442,4.179,6.863,9.281c1.798-1.038,5.87-0.293,5.76,3.14c2.332-0.71,4.917,0.67,5.576,3.104
				c0.659,2.433-0.375,4.298-2.199,5.514c1.738-0.253,2.803,2.649,1.641,3.498c3.396,0,5.699,7.113,1.554,9.465
				c2.383,1.673,3.58,11.834-3.72,15.94c-7.3,4.106-17.79,1.62-18.328-5.041c-3.092-0.76-4.396-4.091-2.318-5.916
				C412.679,170.751,409.536,168.216,409.342,165.687z"/>
			<path style="opacity:0.15;" d="M435.353,180.897c7.3-4.106,6.103-14.267,3.72-15.94c4.146-2.352,1.843-9.465-1.554-9.465
				c1.161-0.849,0.096-3.751-1.642-3.498c1.824-1.216,2.858-3.081,2.199-5.514c-0.328-1.212-1.135-2.163-2.15-2.724
				c1.484,2.388,0.877,6.551-3.103,7.404c-3.431,0.736-5.255-1.717-5.255-1.717s-0.839,1.452-4.572,0.988
				c-3.734-0.464-5.6-4.147-4.612-7.112c1.757-2.965-0.988-6.588-4.532-6.04c0.171,7.466-6.289,9.724-12.378,6.808
				c2.965,7.467-3.514,11.09-6.808,7.796c-1.098,2.745-4.721,2.416-6.369,0.769c-1.647,1.757-6.808,0-6.808-4.173
				c-3.075,3.843-8.565,2.745-9.004-1.318c-2.34,3.069-5.268,1.346-5.574,0.139c0.303,1.459,1.076,2.645,2.068,3.224
				c-1.712,1.142-0.256,2.822-0.256,2.822s-1.525-0.116-2.589,1.151c-1.065,1.267-1.643,3.965,0.158,5.664
				c-2.636,2.585-2.889,8.257,0.203,12.82c3.092,4.562,9.99,6.065,13.383,4.106c-0.608,1.876,0.456,7.148,5.627,8.06
				c5.171,0.912,6.54-2.484,6.54-2.484s3.751,1.419,6.663-1.064c2.912-2.484,1.104-7.046,0-8.492c1.104,1,3.857-0.126,3.648-2.085
				c3.44,0.626,7.401-2.085,6.984-5.336c0.194,2.529,3.337,5.064,5.365,4.253c-2.079,1.825-0.775,5.156,2.318,5.916
				C417.563,182.517,428.053,185.003,435.353,180.897z"/>
			<path style="fill:#E0E0E0;" d="M394.749,159.813c0,0-6.557,1.942-8.378-2.752c-3.341,1.929-9.591,1.457-11.696-2.752
				c-3.562,0-5.695-3.785-5.695-3.785c-1.712,1.142-0.256,2.822-0.256,2.822s-1.525-0.116-2.589,1.151
				c-1.065,1.267-1.643,3.965,0.158,5.664c-0.279,0.274-0.525,0.589-0.75,0.927c-1.091,2.858,2.664,5.033,5.003,3.661
				c-0.89,2.914,2.428,11.656,11.656,8.013c5.504,3.48,11.089-0.728,10.36-8.418C395.307,164.346,396.61,161.351,394.749,159.813z"
				/>
			<path style="fill:#E0E0E0;" d="M429.634,167.583c2.828-3.37,2.023-6.88,2.023-6.88s-2.775,4.03-8.58,1.558
				c-5.804-2.472-2.671-8.195-2.671-8.195s-4.452,0.362-3.642-3.542c-1.438,0.718-3.642-0.1-3.642-2.933
				c-0.639,4.906-4.769,7.277-9.956,6.152c3.48,1.295,3.238,3.992,0.809,5.921c-2.745,2.745-2.411,9.629,4.176,9.381
				c0.86-0.932,1.352-2.104,1.191-3.358c0.194,2.529,3.337,5.064,5.365,4.253c0,0,0,0,0,0l0,0c0,0,1.895,1.69,4.162-0.495
				C420.528,171.104,426.805,170.953,429.634,167.583z"/>
		</g>
		<path style="fill:#E0E0E0;" d="M422.212,180.104c0,0,5.188-7.578,4.901-8.169c-0.287-0.591-4.901,6.943-7.76,8.985
			c-2.859,2.042-8.577,5.514-10.007,5.514c-1.43,0-1.532-1.736-1.021-5.105c0.51-3.37,0.624-4.288,2.967-7.352
			c2.343-3.063,9.061-11.355,8.673-11.742c-0.387-0.387-8.908,10.493-11.028,11.845c-2.07,1.32-3.89-7.556-4.595-7.556
			c-0.705,0,2.028,6.352,2.199,9.313c0.171,2.961-0.157,6.513-1.484,7.432c-1.327,0.919-4.952-1.94-7.3-4.493
			c-2.349-2.553-2.399-13.58-3.319-13.58c-0.92,0,0.592,10.122,0.592,11.098c0,2.129-8.975-3.7-10.598-3.44
			c-1.623,0.26,8.263,3.786,12.151,7.556c3.385,3.283,3.965,4.317,5.12,6.75c1.226,2.582,1.583,5.912,1.583,15.408
			c0,9.496-2.558,24.71-2.558,30.594c0,0.781,0.516,1.561,1.547,2.156c2.063,1.191,5.407,1.191,7.47,0
			c1.031-0.595,1.547-1.376,1.547-2.156l0,0v0l0,0c0-5.884-2.558-21.098-2.558-30.594s0.384-13.04,3.204-15.046
			c2.82-2.006,7.633-5.556,9.763-6.192c2.13-0.637,8.271,0.41,8.271,0C429.973,180.919,422.212,180.104,422.212,180.104z"/>
	</g>
	<g id="Tree_00000141416345118137544110000017168018766350167441_">
		<g>
			<path style="fill:#EBEBEB;" d="M53.402,195.142c0.362,2.825-3.079,5.179-6.068,4.636c0.181,1.702-2.21,2.68-3.17,1.811
				c0.96,1.256,2.53,5.22,0,7.378s-5.789,0.925-5.789,0.925s-1.189,2.951-5.682,2.158c-4.493-0.793-5.417-5.374-4.889-7.003
				c-2.948,1.702-8.941,0.396-11.628-3.568c-2.687-3.964-2.466-8.892-0.176-11.138c-1.565-1.476-1.062-3.82-0.137-4.921
				c0.925-1.101,2.25-1,2.25-1s-1.265-1.46,0.222-2.452c-2.114-1.233-3.083-5.638,0.308-8.941c3.392-3.303,8.468-1.985,8.468-1.985
				s-1.038-3.268,1.203-6.163c1.93-2.493,5.13-2.243,5.13-2.243s-0.139-2.342,2.153-2.461c-1.329-2.411-0.068-5.46,1.679-6.796
				c3.246-2.481,11.518-3.142,11.469,3.043c3.361-2.581,8.409,0.909,7.6,4.36c2.774-2.412,7.254,0.851,6.21,4.184
				c4.015-1.142,8.203,3.631,5.963,8.063c1.562-0.902,5.1-0.254,5.004,2.728c2.026-0.617,4.272,0.582,4.845,2.697
				c0.573,2.114-0.326,3.734-1.911,4.791c1.51-0.22,2.435,2.301,1.426,3.039c2.951,0,4.952,6.18,1.35,8.223
				c2.07,1.453,3.11,10.282-3.232,13.849c-6.342,3.568-15.457,1.407-15.924-4.38c-2.687-0.661-3.82-3.554-2.014-5.14
				C56.302,199.542,53.571,197.339,53.402,195.142z"/>
			<path style="opacity:0.07;" d="M76.001,208.357c6.342-3.568,5.302-12.396,3.232-13.849c3.602-2.044,1.601-8.223-1.35-8.223
				c1.009-0.738,0.084-3.259-1.426-3.039c1.585-1.057,2.483-2.677,1.911-4.791c-0.285-1.053-0.986-1.879-1.868-2.367
				c1.289,2.075,0.762,5.692-2.696,6.433c-2.981,0.639-4.565-1.492-4.565-1.492s-0.729,1.262-3.972,0.858
				c-3.244-0.404-4.865-3.603-4.007-6.179c1.526-2.576-0.858-5.724-3.938-5.247c0.148,6.487-5.464,8.448-10.754,5.915
				c2.576,6.487-3.053,9.635-5.915,6.773c-0.954,2.385-4.102,2.099-5.533,0.668c-1.431,1.526-5.915,0-5.915-3.625
				c-2.671,3.339-7.441,2.385-7.823-1.145c-2.033,2.667-4.577,1.169-4.843,0.12c0.263,1.268,0.934,2.298,1.797,2.801
				c-1.488,0.992-0.222,2.452-0.222,2.452s-1.325-0.101-2.25,1c-0.925,1.101-1.427,3.445,0.138,4.921
				c-2.29,2.246-2.511,7.174,0.176,11.138c2.687,3.964,8.68,5.27,11.628,3.568c-0.528,1.63,0.396,6.21,4.889,7.003
				c4.493,0.793,5.682-2.158,5.682-2.158s3.259,1.233,5.789-0.925c2.53-2.158,0.96-6.122,0-7.378c0.96,0.869,3.351-0.11,3.17-1.811
				c2.989,0.543,6.43-1.811,6.068-4.636c0.168,2.197,2.899,4.4,4.661,3.695c-1.806,1.586-0.673,4.479,2.014,5.14
				C60.544,209.764,69.659,211.924,76.001,208.357z"/>
			<path style="fill:#EBEBEB;" d="M40.723,190.038c0,0-5.697,1.688-7.279-2.391c-2.903,1.676-8.333,1.266-10.162-2.391
				c-3.094,0-4.948-3.288-4.948-3.288c-1.488,0.992-0.222,2.452-0.222,2.452s-1.325-0.101-2.25,1
				c-0.925,1.101-1.427,3.445,0.138,4.921c-0.243,0.238-0.457,0.512-0.652,0.805c-0.948,2.483,2.315,4.372,4.347,3.181
				c-0.774,2.532,2.11,10.127,10.127,6.962c4.782,3.024,9.634-0.633,9.001-7.314C41.208,193.976,42.34,191.374,40.723,190.038z"/>
			<path style="fill:#EBEBEB;" d="M71.032,196.789c2.457-2.928,1.758-5.978,1.758-5.978s-2.411,3.501-7.454,1.354
				c-5.043-2.148-2.321-7.12-2.321-7.12s-3.868,0.315-3.165-3.077c-1.25,0.624-3.165-0.087-3.165-2.549
				c-0.556,4.262-4.144,6.323-8.65,5.345c3.024,1.125,2.813,3.468,0.703,5.145c-2.385,2.385-2.095,8.366,3.628,8.151
				c0.747-0.81,1.174-1.828,1.035-2.917c0.168,2.197,2.899,4.4,4.661,3.695c0,0,0,0,0,0l0,0c0,0,1.647,1.468,3.616-0.43
				C63.121,199.848,68.575,199.717,71.032,196.789z"/>
		</g>
		<path style="fill:#F0F0F0;" d="M64.584,207.668c0,0,4.507-6.584,4.258-7.097c-0.249-0.513-4.258,6.033-6.742,7.807
			c-2.484,1.774-7.452,4.791-8.694,4.791s-1.331-1.508-0.887-4.436c0.444-2.928,0.542-3.726,2.578-6.388
			c2.035-2.661,7.872-9.866,7.536-10.202c-0.337-0.337-7.739,9.116-9.581,10.291c-1.798,1.147-3.38-6.565-3.992-6.565
			c-0.613,0,1.762,5.519,1.91,8.092c0.149,2.573-0.136,5.659-1.289,6.457c-1.153,0.798-4.302-1.686-6.343-3.903
			c-2.04-2.218-2.084-11.799-2.884-11.799c-0.8,0,0.514,8.794,0.514,9.643c0,1.85-7.798-3.215-9.208-2.989
			c-1.41,0.226,7.179,3.289,10.557,6.565c2.942,2.853,3.445,3.751,4.448,5.864c1.065,2.243,1.376,5.137,1.376,13.387
			c0,8.251-2.223,21.469-2.223,26.581c0,0.678,0.448,1.356,1.344,1.874c1.792,1.035,4.698,1.035,6.49,0
			c0.896-0.517,1.344-1.195,1.344-1.874l0,0v0l0,0c0-5.112-2.223-18.331-2.223-26.581c0-8.25,0.334-11.33,2.784-13.073
			c2.45-1.743,6.632-4.827,8.483-5.38c1.851-0.553,7.186,0.356,7.186,0C71.326,208.376,64.584,207.668,64.584,207.668z"/>
	</g>
	<g id="Tree_00000093879353792468638740000012620252591997474950_">
		<g>
			<path style="fill:#EBEBEB;" d="M183.251,154.525c0.34,2.648-2.887,4.856-5.689,4.346c0.17,1.595-2.072,2.513-2.972,1.698
				c0.9,1.177,2.372,4.893,0,6.917c-2.372,2.023-5.427,0.867-5.427,0.867s-1.115,2.767-5.327,2.023
				c-4.212-0.743-5.079-5.038-4.583-6.566c-2.764,1.596-8.383,0.372-10.901-3.345c-2.519-3.716-2.312-8.336-0.165-10.442
				c-1.467-1.384-0.996-3.581-0.129-4.614c0.867-1.032,2.109-0.938,2.109-0.938s-1.186-1.369,0.208-2.299
				c-1.982-1.156-2.891-5.286,0.289-8.382c3.18-3.097,7.939-1.861,7.939-1.861s-0.974-3.064,1.127-5.778
				c1.809-2.338,4.81-2.103,4.81-2.103s-0.13-2.196,2.019-2.307c-1.246-2.261-0.064-5.119,1.574-6.371
				c3.043-2.326,10.798-2.946,10.753,2.853c3.151-2.42,7.884,0.852,7.125,4.088c2.6-2.262,6.801,0.798,5.822,3.923
				c3.764-1.07,7.691,3.404,5.59,7.559c1.464-0.846,4.782-0.238,4.692,2.557c1.899-0.578,4.005,0.546,4.542,2.528
				c0.537,1.982-0.305,3.501-1.791,4.492c1.415-0.206,2.283,2.157,1.337,2.849c2.767,0,4.643,5.794,1.266,7.71
				c1.941,1.363,2.916,9.639-3.031,12.984c-5.946,3.345-14.491,1.319-14.929-4.106c-2.519-0.619-3.581-3.332-1.888-4.819
				C185.969,158.65,183.409,156.586,183.251,154.525z"/>
			<path style="opacity:0.07;" d="M204.438,166.915c5.946-3.345,4.971-11.621,3.03-12.984c3.377-1.916,1.501-7.71-1.266-7.71
				c0.946-0.692,0.078-3.056-1.337-2.849c1.486-0.991,2.328-2.51,1.791-4.492c-0.267-0.988-0.925-1.762-1.751-2.219
				c1.208,1.945,0.714,5.336-2.528,6.031c-2.795,0.599-4.28-1.399-4.28-1.399s-0.683,1.183-3.724,0.805
				c-3.041-0.378-4.561-3.378-3.757-5.793c1.431-2.415-0.805-5.366-3.691-4.92c0.139,6.082-5.123,7.92-10.082,5.546
				c2.415,6.082-2.862,9.034-5.545,6.35c-0.894,2.236-3.846,1.968-5.188,0.626c-1.341,1.431-5.545,0-5.545-3.399
				c-2.504,3.13-6.977,2.236-7.334-1.073c-1.906,2.5-4.291,1.096-4.54,0.113c0.247,1.188,0.876,2.154,1.684,2.626
				c-1.395,0.93-0.208,2.299-0.208,2.299s-1.242-0.095-2.109,0.938c-0.867,1.032-1.338,3.23,0.129,4.614
				c-2.147,2.106-2.354,6.726,0.165,10.442c2.519,3.716,8.137,4.94,10.901,3.345c-0.495,1.528,0.372,5.822,4.583,6.566
				c4.212,0.743,5.327-2.023,5.327-2.023s3.056,1.156,5.428-0.867c2.372-2.023,0.9-5.74,0-6.917c0.9,0.815,3.141-0.103,2.972-1.698
				c2.802,0.509,6.028-1.698,5.689-4.346c0.158,2.06,2.718,4.125,4.37,3.464c-1.693,1.486-0.631,4.199,1.888,4.819
				C189.947,168.234,198.492,170.259,204.438,166.915z"/>
			<path style="fill:#EBEBEB;" d="M171.364,149.741c0,0-5.341,1.582-6.824-2.242c-2.722,1.571-7.812,1.187-9.527-2.242
				c-2.901,0-4.638-3.083-4.638-3.083c-1.395,0.93-0.208,2.299-0.208,2.299s-1.242-0.095-2.109,0.938
				c-0.867,1.032-1.338,3.23,0.129,4.614c-0.227,0.223-0.428,0.48-0.611,0.755c-0.888,2.328,2.17,4.099,4.075,2.982
				c-0.725,2.373,1.978,9.494,9.494,6.527c4.483,2.835,9.032-0.593,8.439-6.857C171.818,153.433,172.88,150.993,171.364,149.741z"/>
			<path style="fill:#EBEBEB;" d="M199.779,156.07c2.304-2.745,1.648-5.604,1.648-5.604s-2.261,3.283-6.988,1.269
				c-4.728-2.014-2.176-6.676-2.176-6.676s-3.626,0.295-2.967-2.885c-1.171,0.585-2.967-0.082-2.967-2.389
				c-0.521,3.996-3.885,5.928-8.109,5.011c2.835,1.055,2.637,3.251,0.659,4.823c-2.236,2.236-1.964,7.843,3.401,7.642
				c0.701-0.759,1.101-1.714,0.97-2.735c0.158,2.06,2.718,4.125,4.37,3.464c0,0,0,0,0,0l0,0c0,0,1.544,1.377,3.39-0.403
				C192.362,158.938,197.475,158.814,199.779,156.07z"/>
		</g>
		<path style="fill:#F0F0F0;" d="M193.734,166.269c0,0,4.226-6.172,3.992-6.654c-0.233-0.481-3.992,5.656-6.321,7.319
			c-2.329,1.663-6.986,4.491-8.151,4.491c-1.164,0-1.248-1.414-0.832-4.159c0.416-2.745,0.508-3.493,2.417-5.988
			c1.908-2.495,7.38-9.249,7.065-9.565c-0.315-0.315-7.256,8.547-8.982,9.648c-1.686,1.075-3.168-6.155-3.743-6.155
			c-0.574,0,1.652,5.174,1.791,7.586c0.139,2.412-0.128,5.305-1.209,6.054c-1.081,0.749-4.033-1.58-5.946-3.66
			c-1.913-2.079-1.954-11.062-2.704-11.062s0.482,8.245,0.482,9.04c0,1.734-7.311-3.014-8.633-2.802
			c-1.322,0.212,6.731,3.084,9.897,6.155c2.758,2.674,3.23,3.517,4.17,5.498c0.999,2.103,1.29,4.816,1.29,12.551
			c0,7.735-2.084,20.128-2.084,24.921c0,0.636,0.42,1.271,1.26,1.757c1.68,0.97,4.404,0.97,6.085,0
			c0.84-0.485,1.26-1.121,1.26-1.757l0,0v0l0,0c0-4.793-2.084-17.186-2.084-24.921c0-7.735,0.313-10.622,2.61-12.256
			c2.297-1.634,6.218-4.525,7.953-5.044c1.735-0.519,6.737,0.334,6.737,0C200.055,166.933,193.734,166.269,193.734,166.269z"/>
	</g>
</g>
<g id="Shrubbery">
	<g id="Shrubbery_00000088824861150901091150000003664022385039050170_">
		<path style="fill:#EBEBEB;" d="M489.197,307.689c-0.56-2.461-2.364-4.503-4.554-5.508c1.769-0.644,2.728-2.799,2.663-4.782
			c-0.065-1.982-0.932-3.826-1.83-5.566c2.291-0.967,3.867-3.577,3.737-6.189c-0.13-2.612-1.956-5.031-4.331-5.737
			c2.055-2.753,3.055-6.903,1.082-9.724c-1.619-2.315-4.632-2.936-7.35-2.92c-2.603,0.015-5.524,0.659-6.936,2.978
			c-0.188-3.425-4.011-6.01-7.019-4.746c0.594-0.815,1.012-1.764,1.248-2.761c0.55-2.326,0.141-4.902-1.062-6.928
			c-0.508-0.856-1.262-1.937-2.217-2.247c-0.368-0.12-0.756-0.092-1.135-0.083c-1.21,0.029-2.406-0.145-3.611,0.09
			c1.147-3.656-0.073-8.008-2.917-10.407c-2.844-2.398-7.117-2.678-10.218-0.669c0.145-3.984-2.91-7.811-6.64-8.316
			c-3.729-0.505-7.594,2.383-8.398,6.278c-0.805-2.491-3.326-4.225-5.799-3.987c-2.473,0.238-4.659,2.424-5.028,5.029
			c0.7-4.445-2.858-9.097-7.103-9.29c2.316-0.486,3.864-3.16,3.663-5.655c-0.201-2.495-1.849-4.676-3.893-5.929
			c1.564-1.377,2.129-3.887,1.321-5.866c-0.808-1.978-2.921-3.257-4.939-2.99c-0.282-3.434-3.526-6.142-6.775-6.02
			c-3.248,0.122-6.163,2.747-7.201,6.013c-2.882-1.603-6.652-1.193-9.167,0.998c-2.515,2.191-3.627,6.033-2.704,9.343
			c-1.708-1.687-3.718-3.186-6.027-3.547c-2.309-0.361-4.94,0.705-5.885,2.968c-0.798-2.539-2.145-5.052-4.364-6.326
			c-2.22-1.274-5.433-0.826-6.691,1.494c-0.197-1.337-0.644-2.63-1.296-3.793c-0.326-0.581-0.704-1.13-1.128-1.635
			c-0.171-0.204-0.341-0.442-0.523-0.632c-0.065-0.068-0.113-0.142-0.186-0.206c-0.184-0.158-1.136-0.7-1.341-0.605
			c2.419-1.11,2.572-5.073,0.766-7.109c-1.806-2.036-4.717-2.469-7.343-2.218c0.174-3.353-2.654-6.541-5.821-6.561
			c-3.166-0.02-6.03,3.132-5.894,6.487c-1.215-2.686-5.133-2.702-7.243-0.735c-2.11,1.967-2.849,5.074-3.41,7.993
			c-2.542-2.886-7.15-3.376-10.181-1.082c1.124-4.308-2.056-9.276-6.246-9.758c1.841-3.629-1.877-8.221-5.762-8.306
			c-3.885-0.085-7.262,2.775-9.848,5.851c-5.531-3.039-13.277,2.54-12.652,9.113c-3.911-4.999-12.379-4.607-15.865,0.733
			c-1.06-4.246-5.755-7.028-9.72-5.758c1.654-5.371-4.863-11.164-9.56-8.499c-0.055-3.628-3.542-6.752-6.924-6.203
			c-3.382,0.549-5.829,4.636-4.857,8.116c-5.419-0.592-9.989,6.67-7.394,11.75c-2.911-2.079-7.364-1.089-9.242,2.056
			c0.958-2.554-2.077-5.563-4.415-4.378c0.635-2.575-0.841-5.535-3.205-6.428c-2.364-0.893-5.272,0.411-6.315,2.832
			c0.056-3.211-3.875-5.196-6.689-4.009c-2.814,1.187-4.432,4.364-5.164,7.48c-1.835-4.484-8.857-4.915-11.168-0.686
			c0.334-5.064-3.618-10.016-8.383-10.502c-4.765-0.487-9.535,3.574-10.118,8.613c-1.92-3.521-6.451-5.13-9.982-3.543
			c-3.531,1.586-5.595,6.157-4.547,10.069c-5.549-0.976-9.841,7.755-5.909,12.021c-2.192-2.927-7.324-2.198-8.714,1.236
			c1.261-3.384-2.017-7.581-5.387-6.895c1.072-3.236-0.891-7.219-4.008-8.134c-3.118-0.914-6.731,1.433-7.379,4.794
			c-2.054-3.886-8.024-3.156-10.709,0.27c-2.685,3.427-3.005,8.222-3.206,12.672c-2.152-1.707-5.507,0.34-6.151,3.107
			c-0.644,2.767,0.596,5.63,2.105,7.988c-3.092-2.636-6.573-2.316-9.554,0.469c0.333-2.664-1.315-5.451-3.811-6.441
			c-2.495-0.99-5.607-0.092-7.191,2.075c-2.069-2.896-6.238-4.067-9.513-2.674c-3.275,1.394-5.32,5.211-4.667,8.71
			c-3.895-0.54-8.166,1.114-10.198,4.48s-1.263,8.317,2.016,10.487c-3.658-0.283-6.975,3.657-6.074,7.213
			c-1.988-1.973-5.177-2.622-7.779-1.584c-2.602,1.038-4.467,3.704-4.552,6.504c-2.878-2.48-7.545-2.552-10.498-0.162
			c-2.953,2.39-3.856,6.969-2.031,10.301c-2.707,0.167-5.283,1.773-6.625,4.13c-1.342,2.357-1.408,5.392-0.17,7.805
			c-3.583,0.501-6.644,3.584-7.119,7.17c-0.475,3.586,1.677,7.36,5.006,8.777c-1.287-0.548-3.846,3.647-4.2,4.486
			c-0.916,2.171-0.734,4.149-0.062,6.33c1.309,4.251,4.73,7.954,9.245,8.728h466.708
			C488.945,317.484,489.757,310.15,489.197,307.689z"/>
	</g>
</g>
<g id="Floor">
	<path id="Floor_00000028326596553402126370000001554105579398346683_" style="fill:#F5F5F5;" d="M77.662,448.759
		c-95.178-54.951-95.178-144.044,0-198.995c95.178-54.951,249.494-54.951,344.674,0c95.18,54.951,95.18,144.044,0,198.995
		C327.156,503.71,172.84,503.71,77.662,448.759z"/>
</g>
<g id="Clouds">
	<path id="Cloud_00000000932529597728381110000005132886420902135743_" style="fill:#F0F0F0;" d="M136.935,59.561
		c0.01-3.512,3.852-5.953,8.211-6.364c5.136-0.484,8.78,1.805,8.902,5.85c3.359-1.379,6.9-0.494,6.634,3.199
		c0.873-1.007,4.143-0.979,5.316-0.698c1.24,0.297,2.497,1.413,2.926,2.493c0.347,0.873,0.365,1.277,0.304,1.89
		c1.958-0.642,6.411-1.034,7.525,0.762c1.982,3.198-5.937,3.298-7.535,2.331c-0.338,2.488-8.85,2.896-10.91,0.601
		c-1.61,1.622-3.922,1.979-6.418,2.128c-4.211,0.251-6.793-1.176-10.078-2.854c-3.571,3.028-9.751,3.083-12.969-0.381
		c-0.821,0.775-3.083,1.015-4.895,0.582c-1.189-0.284-1.464-0.791-1.464-0.791c-0.637,0.295-1.397,0.491-2.185,0.657
		c-2.335,0.489-6.679-0.027-4.856-2.13c0.62-0.716,2.893-1.17,3.856-0.948c1.019-2.004,5.107-3.902,7.452-2.208
		c0.091-2.427,2.31-4.325,5.432-4.807C133.23,58.711,135.741,58.57,136.935,59.561z"/>
	<path id="Cloud_00000153690286476219980240000004116805217037011854_" style="fill:#F5F5F5;" d="M339.078,48.705
		c0.011-3.883,4.258-6.581,9.077-7.035c5.678-0.535,9.706,1.996,9.841,6.467c3.713-1.524,7.628-0.547,7.334,3.536
		c0.965-1.113,4.58-1.082,5.876-0.771c1.371,0.328,2.76,1.563,3.234,2.756c0.384,0.965,0.404,1.412,0.336,2.089
		c2.165-0.709,7.087-1.143,8.319,0.842c2.191,3.535-6.564,3.645-8.33,2.577c-0.374,2.75-9.783,3.201-12.061,0.664
		c-1.78,1.793-4.336,2.188-7.095,2.352c-4.655,0.277-7.51-1.3-11.141-3.155c-3.948,3.347-10.779,3.409-14.336-0.421
		c-0.908,0.856-3.408,1.122-5.411,0.643c-1.315-0.314-1.619-0.875-1.619-0.875c-0.704,0.326-1.544,0.543-2.415,0.726
		c-2.581,0.541-7.383-0.03-5.368-2.355c0.686-0.791,3.198-1.293,4.263-1.048c1.126-2.215,5.645-4.313,8.238-2.44
		c0.1-2.683,2.553-4.781,6.005-5.315C334.982,47.765,337.758,47.61,339.078,48.705z"/>
	<path id="Cloud_00000158751153705293807200000011187347226572325055_" style="fill:#F0F0F0;" d="M412.287,72.615
		c0.014-4.776,5.237-8.095,11.164-8.654c6.984-0.658,11.938,2.455,12.104,7.955c4.567-1.875,9.382-0.672,9.021,4.349
		c1.188-1.369,5.633-1.331,7.228-0.949c1.686,0.404,3.395,1.922,3.978,3.39c0.472,1.187,0.497,1.737,0.414,2.57
		c2.663-0.872,8.718-1.406,10.232,1.036c2.695,4.348-8.073,4.484-10.245,3.17c-0.46,3.383-12.033,3.938-14.835,0.816
		c-2.189,2.205-5.333,2.691-8.727,2.893c-5.725,0.341-9.237-1.599-13.704-3.88c-4.856,4.117-13.259,4.192-17.634-0.518
		c-1.117,1.053-4.191,1.38-6.655,0.791c-1.617-0.386-1.991-1.076-1.991-1.076c-0.866,0.401-1.899,0.668-2.97,0.893
		c-3.175,0.665-9.081-0.037-6.603-2.897c0.844-0.973,3.934-1.59,5.244-1.29c1.385-2.725,6.944-5.305,10.133-3.002
		c0.123-3.3,3.14-5.881,7.386-6.537C407.248,71.458,410.663,71.267,412.287,72.615z"/>
</g>
<g id="Sun">
	
		<ellipse id="Sun_00000087375755292424713100000000873924108591446176_" transform="matrix(0.3827 -0.9239 0.9239 0.3827 -5.4956 82.6249)" style="fill:#FFBDA7;" cx="59.081" cy="45.425" rx="16.422" ry="16.422"/>
</g>
<g id="Shadows">
	<path id="Shadow_00000065754999843613862740000012905282050070670008_" style="fill:#E0E0E0;" d="M433.076,342.808
		c9.345,5.396,9.345,14.144,0,19.539c-9.346,5.396-24.497,5.396-33.843,0c-9.345-5.396-9.345-14.144,0-19.539
		C408.578,337.412,423.73,337.412,433.076,342.808z"/>
	
		<ellipse id="Shadow_00000130611313536436913640000001440198335576913045_" style="fill:#E0E0E0;" cx="233.938" cy="388.307" rx="134.661" ry="77.747"/>
	<path id="Shadow_00000131329925624367094270000010737639239151855774_" style="fill:#E0E0E0;" d="M65.318,346.597l32.798,18.935
		c1.627,0.939,4.265,0.939,5.892,0l60.431-34.89c1.627-0.939,1.627-2.462,0-3.402l-32.797-18.935c-1.627-0.939-4.265-0.939-5.892,0
		l-60.431,34.89C63.691,344.134,63.691,345.657,65.318,346.597z"/>
	<path id="Shadow_00000005261428252830414080000004314168389171402147_" style="fill:#E0E0E0;" d="M26.844,351.89l32.798,18.935
		c1.627,0.939,4.265,0.939,5.892,0l60.43-34.89c1.627-0.939,1.627-2.462,0-3.402l-32.797-18.935c-1.627-0.939-4.265-0.939-5.892,0
		l-60.431,34.89C25.217,349.428,25.217,350.951,26.844,351.89z"/>
</g>
<g id="Water">
	<g id="Water_2_">
		<g id="Jar_1_">
			<path id="XMLID_00000090274142552517329500000016171463217814348725_" style="fill:#BA68C8;" d="M429.19,293.37
				c-0.778-0.451-1.611-0.85-2.485-1.2c-1.616-0.648-2.706-2.175-2.703-3.916l0.007-4.775l-15.588-0.023l-0.007,4.775
				c-0.003,1.741-1.097,3.264-2.715,3.907c-0.875,0.348-1.709,0.745-2.488,1.193c-3.591,2.066-5.388,4.778-5.392,7.493l-0.07,47.941
				c-0.004,2.715,1.785,5.432,5.37,7.509c7.168,4.153,18.8,4.17,25.98,0.038c3.59-2.066,5.388-4.777,5.392-7.492l0.07-47.943
				C434.564,298.163,432.774,295.446,429.19,293.37z"/>
			<path id="XMLID_00000030463279588322009440000000876879399754917528_" style="opacity:0.2;" d="M429.19,293.37
				c-0.778-0.451-1.611-0.85-2.485-1.2c-1.616-0.648-2.706-2.175-2.703-3.916l0.007-4.775l-15.588-0.023l-0.007,4.775
				c-0.003,1.741-1.097,3.264-2.715,3.907c-0.875,0.348-1.709,0.745-2.488,1.193c-3.591,2.066-5.388,4.778-5.392,7.493l-0.07,47.941
				c-0.004,2.715,1.785,5.432,5.37,7.509c7.168,4.153,18.8,4.17,25.98,0.038c3.59-2.066,5.388-4.777,5.392-7.492l0.07-47.943
				C434.564,298.163,432.774,295.446,429.19,293.37z"/>
			<path style="opacity:0.6;fill:#BA68C8;" d="M432.139,311.405c-0.25-7.516-30.172-6.704-31.943-0.333l-0.056,37.697
				c-0.003,1.913,1.52,3.896,4.176,5.435c3.109,1.801,7.296,2.798,11.79,2.804c4.495,0.007,8.684-0.978,11.798-2.77
				c2.661-1.531,4.189-3.51,4.192-5.423L432.139,311.405z"/>
			<path id="XMLID_854_" style="opacity:0.2;" d="M404.24,355.678c-6.556-3.76-6.547-9.841,0.02-13.582
				c6.567-3.741,17.204-3.725,23.76,0.035c6.556,3.76,6.547,9.841-0.02,13.582C421.434,359.454,410.796,359.439,404.24,355.678z"/>
			<path style="opacity:0.15;" d="M425.491,288.502c-3.378-1.956-8.149-2.626-12.483-2.001l0.004-3.039l-4.591-0.007l-0.006,4.291
				l-0.001,0.482c-0.003,1.744-1.097,3.265-2.718,3.909c-0.87,0.351-1.704,0.743-2.486,1.192c-0.031,0.015-0.057,0.036-0.088,0.052
				c-3.533,2.06-5.297,4.749-5.301,7.441l-0.07,47.941c-0.004,2.717,1.783,5.433,5.367,7.508c5.157,2.989,12.62,3.823,19.076,2.528
				c-14.93,1.003-18.529-5.333-18.522-9.914l0.069-46.947c0.002-1.615,0.247-2.95,1.372-4.072c0.507,0.472,1.112,0.913,1.815,1.318
				c5.12,2.963,13.423,2.975,18.547,0.027c2.752-1.582,4.03-3.695,3.831-5.773l-0.311-0.18
				C428.637,291.659,427.618,289.735,425.491,288.502z"/>
			<path id="XMLID_00000114035167769887436210000000692383079113275563_" style="opacity:0.4;fill:#FFFFFF;" d="M429.19,293.37
				c-0.778-0.451-1.611-0.85-2.485-1.2c-1.616-0.648-2.706-2.175-2.703-3.916l0.007-4.775l-1.703-0.003
				c-0.009,6.373-0.008,5.032-0.009,6.391c-0.002,1.472,2.244,2.136,3.709,2.939c1.465,0.802,6.41,3.419,6.832,5.723
				c0.426,2.329,0.158,6.368,0.151,11.342c-0.007,4.974-0.05,34.085-0.055,37.351c-0.005,3.228-1.355,7.895-7.352,10.692
				c1.246-0.433,2.444-0.951,3.519-1.57c3.59-2.066,5.385-4.669,5.389-7.525l0.07-47.943
				C434.564,298.163,432.774,295.446,429.19,293.37z"/>
			<g>
				<path id="XMLID_852_" style="fill:#37474F;" d="M429.332,290.186l-0.002,1.361c0.01,1.935-1.279,3.881-3.853,5.367
					c-5.123,2.947-13.424,2.934-18.551-0.027c-1.272-0.74-2.239-1.595-2.874-2.512c-0.635-0.905-0.952-1.873-0.951-2.841
					l0.002-1.411c0-0.293,0.026-0.586,0.103-0.879c0.321-1.642,1.571-3.231,3.737-4.476c0.064-0.038,0.127-0.076,0.191-0.101
					c5.148-2.844,13.309-2.794,18.36,0.129c2.163,1.251,3.421,2.844,3.737,4.475C429.308,289.575,429.332,289.88,429.332,290.186z"
					/>
				<path id="XMLID_851_" style="fill:#263238;" d="M417.277,297.706l0.007-4.826c0.003-1.91,0.483,0.675-2.866,0.67
					c-2.903-0.004-5.478-6.705-7.283-8.885c-0.064,0.025-0.127,0.064-0.191,0.101c-2.166,1.245-3.416,2.834-3.737,4.476
					c-0.077,0.293-0.103,0.586-0.103,0.879l-0.002,1.411c-0.001,0.968,0.315,1.936,0.951,2.841c0.635,0.917,1.602,1.772,2.874,2.512
					c5.127,2.961,13.428,2.974,18.551,0.027C421.859,298.335,417.274,299.526,417.277,297.706z"/>
				<path id="XMLID_850_" style="fill:#BA68C8;" d="M406.935,295.478c-5.117-2.964-5.11-7.758,0.016-10.708
					c5.125-2.949,13.429-2.937,18.546,0.027c5.117,2.964,5.11,7.759-0.015,10.708C420.355,298.455,412.052,298.443,406.935,295.478z
					"/>
				<path id="XMLID_849_" style="fill:#37474F;" d="M429.339,285.64l-0.004,2.712c0,0.306-0.026,0.611-0.103,0.917
					c-0.321,1.629-1.584,3.219-3.75,4.463c-2.294,1.321-5.223,2.042-8.203,2.165c-3.705,0.173-7.511-0.559-10.348-2.205
					c-1.272-0.74-2.226-1.582-2.874-2.5c-0.445-0.625-0.724-1.287-0.85-1.949c-0.076-0.293-0.101-0.598-0.1-0.891l0.004-2.776
					c0.003-1.948,1.279-3.881,3.84-5.354c0.229-0.127,0.459-0.254,0.701-0.368c5.16-2.577,12.965-2.438,17.85,0.396
					C428.072,281.742,429.354,283.692,429.339,285.64z"/>
				<path id="XMLID_848_" style="fill:#455A64;" d="M406.942,290.87c-5.117-2.965-5.11-7.759,0.016-10.708
					c5.126-2.949,13.429-2.937,18.546,0.027c5.117,2.964,5.11,7.759-0.016,10.708C420.362,293.847,412.059,293.835,406.942,290.87z"
					/>
				<path id="XMLID_846_" style="fill:#263238;" d="M404.057,291.193c0.648,0.918,1.602,1.759,2.874,2.5
					c2.837,1.647,6.643,2.378,10.348,2.205l0,0c0.036-0.952,0.57-1.682-2.861-2.347c-2.85-0.553-7.065-1.746-9.028-4.867
					c-1.803-2.868-0.759-6.645,2.262-8.831c-0.242,0.115-0.472,0.241-0.701,0.368c-2.561,1.473-3.837,3.407-3.84,5.354l-0.004,2.776
					c-0.001,0.293,0.025,0.599,0.1,0.891C403.334,289.906,403.613,290.568,404.057,291.193z"/>
			</g>
		</g>
		<g>
			<path id="XMLID_859_" style="fill:#BA68C8;" d="M412.251,278.669l-0.032,5.968c0,0.093,0.007,0.186,0.03,0.28
				c0.094,0.497,0.475,0.984,1.133,1.367c0.696,0.407,1.586,0.633,2.493,0.677c1.128,0.06,2.289-0.155,3.156-0.65
				c0.389-0.223,0.681-0.477,0.88-0.755c0.137-0.189,0.223-0.39,0.263-0.592c0.024-0.089,0.032-0.182,0.033-0.271l0.032-5.987
				c0.003-0.593-0.382-1.185-1.159-1.639c-0.07-0.039-0.139-0.078-0.212-0.113c-1.566-0.796-3.943-0.77-5.437,0.083
				C412.645,277.484,412.25,278.076,412.251,278.669z"/>
			<path id="XMLID_00000040556927870396268290000001295113740870641825_" style="opacity:0.35;" d="M412.251,278.669l-0.032,5.968
				c0,0.093,0.007,0.186,0.03,0.28c0.094,0.497,0.475,0.984,1.133,1.367c0.696,0.407,1.586,0.633,2.493,0.677
				c1.128,0.06,2.289-0.155,3.156-0.65c0.389-0.223,0.681-0.477,0.88-0.755c0.137-0.189,0.223-0.39,0.263-0.592
				c0.024-0.089,0.032-0.182,0.033-0.271l0.032-5.987c0.003-0.593-0.382-1.185-1.159-1.639c-0.07-0.039-0.139-0.078-0.212-0.113
				c-1.566-0.796-3.943-0.77-5.437,0.083C412.645,277.484,412.25,278.076,412.251,278.669z"/>
			<path style="fill:#BA68C8;" d="M412.251,278.649c-0.007,1.268,1.776,2.306,3.981,2.317c2.206,0.012,3.999-1.007,4.006-2.274
				c0.007-1.268-1.776-2.305-3.981-2.317C414.051,276.363,412.258,277.381,412.251,278.649z"/>
			<path style="opacity:0.5;fill:#BA68C8;" d="M414.827,278.663c-0.002,0.45,0.63,0.819,1.413,0.823
				c0.783,0.004,1.42-0.357,1.422-0.807c0.002-0.45-0.63-0.818-1.413-0.823C415.466,277.851,414.829,278.213,414.827,278.663z"/>
			<path style="opacity:0.3;" d="M414.827,278.663c-0.002,0.45,0.63,0.819,1.413,0.823c0.783,0.004,1.42-0.357,1.422-0.807
				c0.002-0.45-0.63-0.818-1.413-0.823C415.466,277.851,414.829,278.213,414.827,278.663z"/>
		</g>
		<g>
			<path id="XMLID_861_" style="fill:#BA68C8;" d="M411.268,278.015l-0.032,2.029c0,0.116,0.009,0.232,0.037,0.349
				c0.117,0.619,0.593,1.226,1.413,1.704c0.867,0.507,1.978,0.789,3.109,0.844c1.407,0.075,2.854-0.193,3.935-0.81
				c0.485-0.278,0.849-0.595,1.098-0.942c0.171-0.236,0.278-0.487,0.328-0.738c0.03-0.111,0.04-0.227,0.04-0.339l0.032-2.053
				c0.004-0.74-0.476-1.477-1.444-2.043c-0.087-0.049-0.173-0.098-0.265-0.142c-1.953-0.992-4.917-0.96-6.779,0.104
				C411.76,276.538,411.267,277.276,411.268,278.015z"/>
			<path id="XMLID_860_" style="opacity:0.2;" d="M411.268,278.015l-0.032,2.029c0,0.116,0.009,0.232,0.037,0.349
				c0.117,0.619,0.593,1.226,1.413,1.704c0.867,0.507,1.978,0.789,3.109,0.844c1.407,0.075,2.854-0.193,3.935-0.81
				c0.485-0.278,0.849-0.595,1.098-0.942c0.171-0.236,0.278-0.487,0.328-0.738c0.03-0.111,0.04-0.227,0.04-0.339l0.032-2.053
				c0.004-0.74-0.476-1.477-1.444-2.043c-0.087-0.049-0.173-0.098-0.265-0.142c-1.953-0.992-4.917-0.96-6.779,0.104
				C411.76,276.538,411.267,277.276,411.268,278.015z"/>
			<path style="fill:#BA68C8;" d="M411.269,277.99c-0.009,1.581,2.214,2.875,4.964,2.89c2.75,0.015,4.987-1.255,4.995-2.836
				c0.009-1.581-2.214-2.875-4.964-2.889C413.513,275.14,411.277,276.409,411.269,277.99z"/>
			<path style="opacity:0.5;fill:#BA68C8;" d="M414.48,278.008c-0.003,0.561,0.786,1.021,1.762,1.026
				c0.976,0.005,1.77-0.446,1.773-1.007c0.003-0.561-0.786-1.021-1.762-1.026C415.277,276.996,414.483,277.447,414.48,278.008z"/>
			<path style="opacity:0.3;" d="M414.48,278.008c-0.003,0.561,0.786,1.021,1.762,1.026c0.976,0.005,1.77-0.446,1.773-1.007
				c0.003-0.561-0.786-1.021-1.762-1.026C415.277,276.996,414.483,277.447,414.48,278.008z"/>
		</g>
	</g>
</g>
<g id="Block_00000061435458504012604540000003322800394926794923_">
	<g id="Block">
		<path style="fill:#BA68C8;" d="M70.509,345.04l28.014,16.175c1.39,0.802,3.643,0.802,5.033,0l51.621-29.803
			c1.39-0.802,2.516-2.754,2.516-4.358l-0.001-19.087c0-1.605-1.127-3.556-2.516-4.358l-28.014-16.174
			c-1.39-0.802-3.643-0.802-5.033,0l-51.619,29.802c-1.39,0.802-2.516,2.754-2.516,4.358l0,19.086
			C67.993,342.286,69.12,344.238,70.509,345.04z"/>
		<path style="opacity:0.4;fill:#FFFFFF;" d="M70.509,345.04l28.014,16.175c1.39,0.802,3.643,0.802,5.033,0l51.621-29.803
			c1.39-0.802,2.516-2.754,2.516-4.358l-0.001-19.087c0-1.605-1.127-3.556-2.516-4.358l-28.014-16.174
			c-1.39-0.802-3.643-0.802-5.033,0l-51.619,29.802c-1.39,0.802-2.516,2.754-2.516,4.358l0,19.086
			C67.993,342.286,69.12,344.238,70.509,345.04z"/>
		<path style="fill:#BA68C8;" d="M70.509,320.143l28.015,16.174c1.39,0.802,3.643,0.802,5.033,0l51.619-29.802
			c1.39-0.802,1.39-2.103,0-2.906l-28.014-16.174c-1.39-0.802-3.643-0.802-5.033,0l-51.619,29.802
			C69.119,318.039,69.119,319.34,70.509,320.143z"/>
		<path style="opacity:0.6;fill:#FFFFFF;" d="M70.509,320.143l28.015,16.174c1.39,0.802,3.643,0.802,5.033,0l51.619-29.802
			c1.39-0.802,1.39-2.103,0-2.906l-28.014-16.174c-1.39-0.802-3.643-0.802-5.033,0l-51.619,29.802
			C69.119,318.039,69.119,319.34,70.509,320.143z"/>
		<path style="fill:#BA68C8;" d="M101.039,359.762l0.001-19.087c0-1.605-1.127-3.556-2.516-4.358l-28.015-16.174
			c-1.39-0.802-2.516-0.152-2.516,1.453l0,19.086c0,1.605,1.127,3.556,2.516,4.358l28.014,16.175
			C99.913,362.017,101.039,361.367,101.039,359.762z"/>
		<path style="opacity:0.2;fill:#FFFFFF;" d="M101.039,359.762l0.001-19.087c0-1.605-1.127-3.556-2.516-4.358l-28.015-16.174
			c-1.39-0.802-2.516-0.152-2.516,1.453l0,19.086c0,1.605,1.127,3.556,2.516,4.358l28.014,16.175
			C99.913,362.017,101.039,361.367,101.039,359.762z"/>
	</g>
	<g id="Block_00000147938724151977925110000001758277255063985304_">
		<path style="fill:#BA68C8;" d="M34.17,350.513l27.308,15.767c1.355,0.782,3.224,0.593,4.174-0.422l41.892-44.767
			c0.951-1.015,1.394-3.296,0.99-5.093l-3.989-17.675c-0.404-1.798-1.83-3.889-3.185-4.671l-27.309-15.767
			c-1.355-0.782-3.224-0.593-4.174,0.422l-41.891,44.766c-0.951,1.015-1.394,3.296-0.99,5.093l3.989,17.674
			C31.39,347.639,32.815,349.731,34.17,350.513z"/>
		<path style="opacity:0.4;fill:#FFFFFF;" d="M34.17,350.513l27.308,15.767c1.355,0.782,3.224,0.593,4.174-0.422l41.892-44.767
			c0.951-1.015,1.394-3.296,0.99-5.093l-3.989-17.675c-0.404-1.798-1.83-3.889-3.185-4.671l-27.309-15.767
			c-1.355-0.782-3.224-0.593-4.174,0.422l-41.891,44.766c-0.951,1.015-1.394,3.296-0.99,5.093l3.989,17.674
			C31.39,347.639,32.815,349.731,34.17,350.513z"/>
		<path style="fill:#BA68C8;" d="M28.719,326.329l27.309,15.767c1.355,0.782,3.224,0.593,4.174-0.422l41.89-44.766
			c0.951-1.015,0.623-2.473-0.731-3.255l-27.309-15.767c-1.355-0.782-3.224-0.593-4.174,0.422l-41.891,44.766
			C27.036,324.09,27.364,325.547,28.719,326.329z"/>
		<path style="opacity:0.6;fill:#FFFFFF;" d="M28.719,326.329l27.309,15.767c1.355,0.782,3.224,0.593,4.174-0.422l41.89-44.766
			c0.951-1.015,0.623-2.473-0.731-3.255l-27.309-15.767c-1.355-0.782-3.224-0.593-4.174,0.422l-41.891,44.766
			C27.036,324.09,27.364,325.547,28.719,326.329z"/>
		<path style="fill:#BA68C8;" d="M63.2,364.442l-3.988-17.675c-0.404-1.797-1.829-3.889-3.184-4.671l-27.309-15.767
			c-1.355-0.782-2.125,0.041-1.721,1.839l3.989,17.674c0.404,1.797,1.83,3.889,3.184,4.671l27.308,15.767
			C62.833,367.062,63.604,366.239,63.2,364.442z"/>
		<path style="opacity:0.2;fill:#FFFFFF;" d="M63.2,364.442l-3.988-17.675c-0.404-1.797-1.829-3.889-3.184-4.671l-27.309-15.767
			c-1.355-0.782-2.125,0.041-1.721,1.839l3.989,17.674c0.404,1.797,1.83,3.889,3.184,4.671l27.308,15.767
			C62.833,367.062,63.604,366.239,63.2,364.442z"/>
	</g>
</g>
<g id="Character">
	<g id="Character_00000090286831425568432720000017075215388941588658_">
		<g id="Bottom">
			<path style="fill:#FFA8A7;" d="M428.672,452.57c-0.312-3.883,0.356-11.16,0.983-14.215c1.696-8.266,4.32-18.163,3.762-22.359
				c-1.112-8.366-5.695-17.136-11.471-20.956c-5.776-3.821-10.643,1.417-12.033,5.868c-1.859,5.953-2.025,7.838-4.152,15.035
				c-1.9,6.432-4.604,11.009-11.185,8.141c-2.844-1.24-14.698-13.354-25.504-25.892c-8.144-9.448-11.629-13.474-14.747-16.976
				c-7.417-8.328-11.783-13.32-26.206-22.976c-18.925-12.669-52.224-36.895-64.363-44.472l-17.366,61.599
				c0,0,72.507,28.889,75.593,30.752c3.085,1.863,6.972,9.255,16.542,16.532c12.744,9.69,48.321,26.475,55.511,31.379
				c11.708,6.51,17.263,16.029,24.794,15.944C424.596,469.911,429.334,460.801,428.672,452.57z"/>
			<g>
				<path style="fill:#FFA8A7;" d="M311.908,394.789c-7.333-6.041-12.771-5.404-20.859-8.975
					c-8.089-3.571-13.474-10.559-20.611-10.226c-7.137,0.333-10.192,8.843-17.871,9.938c-9.469,1.351-28.036-2.333-42.562-3.542
					l7.819-5.713l3.744-62.504h-41.188c-5.742,9.441-25.616,31.175-38.616,47.708c-3.658,4.652-12.41,13.623-16.854,22.732
					c-4.316,8.846-4.804,15.46-3.789,22.731c1.38,9.886,9.771,14.139,16.345,16.532c11.128,4.05,31.643,5.698,59.79-0.367
					c31.718-6.835,56.323-13.557,64.892-14.918c8.569-1.362,25.075,2.613,33.016,4.259c7.942,1.645,16.257,8.721,20.294,7.524
					C319.495,418.773,319.241,400.831,311.908,394.789z"/>
				<path style="fill:#F28F8F;" d="M166.087,389.367c9.374-5.179,24.194-8.96,41.357-7.587c2.561,0.205,2.561,0.205,2.561,0.205
					l5.799-4.237c0,0-10.067-3.353-26.827-0.054C172.216,380.994,166.087,389.367,166.087,389.367z"/>
			</g>
			<path style="fill:#455A64;" d="M133.361,371.506c19.023-6.11,58.222,10.706,58.222,10.706s9.454-1.174,18.421-0.227
				c7.219-5.363,10.157-7.947,16.833-9.179s16.586,2.145,21.929,4.382c8.379,3.508,41.001,17.604,41.001,17.604
				s4.607-19.204,17.896-30.003c13.289-10.798,24.415-3.839,24.415-3.839s-7.914-5.681-21.062-14.83
				c-13.358-9.295-29.099-20.784-36.062-25.62c-6.465-4.49-9.182-6.732-9.182-6.732H180.91c0,0-11.231,13.044-29.434,34.832
				C139.701,362.694,133.361,371.506,133.361,371.506z"/>
			<path style="fill:#37474F;" d="M264.207,371.898c-10.396-5.158-20.361-10.812-34.73-9.925
				c-14.215,0.878-25.026,7.255-41.306,18.468c-0.119,0.082-0.24,0.165-0.359,0.248c2.382,0.927,3.772,1.523,3.772,1.523
				s9.454-1.174,18.421-0.227c7.219-5.363,10.157-7.947,16.833-9.179c6.676-1.232,16.586,2.145,21.929,4.382
				c8.379,3.508,41.001,17.604,41.001,17.604s0.731-3.037,2.441-7.369C283.331,382.308,270.594,375.067,264.207,371.898z"/>
			<g>
				<path style="fill:#F0F0F0;" d="M267.81,374.645c3.887-3.757,6.296-6.243,11.896-4.474c5.6,1.768,9.886,9.999,13.929,12.634
					c3.509,2.287,15.085,4.302,19.406,7.812c4.32,3.51,8.898,12.376,7.415,23.404c-1.483,11.028-8.872,9.153-8.872,9.153
					s4.893-17.995-6.897-25.806c-11.789-7.81-16.063-6.484-22.547-12.673C275.657,378.505,267.81,374.645,267.81,374.645z"/>
				<path style="fill:#BA68C8;" d="M273.462,393.148c-2.973-0.15-3.764-0.228-3.904,3.742c-0.14,3.969-1.669,7.224-1.839,9.819
					c-0.146,2.22,3.051,1.349,4.511,1.554c1.46,0.205,12.97,3.26,15.918,4.055c2.948,0.796,9.876,2.761,9.876,2.761
					s4.865-5.989,3.601-8.961C300.362,403.147,285.168,394.521,273.462,393.148z"/>
				<path style="fill:#BA68C8;" d="M256.161,384.383c1.766-0.608,5.935-0.329,8.049-0.107c2.115,0.223,5.231,0.223,6.566,2.783
					c1.336,2.56,2.331,5.333,2.992,6.623c1.644,3.209,8.835,5.354,17.861,9.486c5.164,2.364,9.284,3.957,8.283,6.065
					c-1.451,3.052-2.424,4.537-2.424,4.537s-13.901-4.001-25.259-5.506c10.79,3.058,22.101,5.931,25.794,7.555
					c3.694,1.624,8.573,4.821,11.484,6.521c2.911,1.7,4.636,0.704,5.949-0.054c1.313-0.758,4.862-7.731,2.61-16.752
					c-2.252-9.021-5.85-12.556-12.934-15.609c-7.085-3.052-10.294-2.551-17.324-8.168c-6.091-4.867-7.049-8.66-15.412-8.647
					c-3.594,0.005-12.664,6.065-15.517,8.875C255.928,382.922,256.161,384.383,256.161,384.383z"/>
				<path style="opacity:0.2;fill:#FFFFFF;" d="M256.161,384.383c1.766-0.608,5.935-0.329,8.049-0.107
					c2.115,0.223,5.231,0.223,6.566,2.783c1.336,2.56,2.331,5.333,2.992,6.623c1.644,3.209,8.835,5.354,17.861,9.486
					c5.164,2.364,9.284,3.957,8.283,6.065c-1.451,3.052-2.424,4.537-2.424,4.537s-13.901-4.001-25.259-5.506
					c10.79,3.058,22.101,5.931,25.794,7.555c3.694,1.624,8.573,4.821,11.484,6.521c2.911,1.7,4.636,0.704,5.949-0.054
					c1.313-0.758,4.862-7.731,2.61-16.752c-2.252-9.021-5.85-12.556-12.934-15.609c-7.085-3.052-10.294-2.551-17.324-8.168
					c-6.091-4.867-7.049-8.66-15.412-8.647c-3.594,0.005-12.664,6.065-15.517,8.875
					C255.928,382.922,256.161,384.383,256.161,384.383z"/>
				<path style="fill:#BA68C8;" d="M264.211,384.276c2.115,0.223,5.231,0.223,6.566,2.782c1.336,2.56,2.332,5.333,2.992,6.623
					c0.457,0.891,1.354,1.699,2.587,2.492c-1.731-1.176-2.449-3.264-3.294-6.586c-0.855-3.358-1.234-4.648-3.322-6.2
					c-2.051-1.524-6.54-2.162-13.095-1.116c-0.665,0.921-0.484,2.111-0.484,2.111C257.928,383.775,262.096,384.053,264.211,384.276z
					"/>
				<path style="opacity:0.2;" d="M264.211,384.276c2.115,0.223,5.231,0.223,6.566,2.782c1.336,2.56,2.332,5.333,2.992,6.623
					c0.457,0.891,1.354,1.699,2.587,2.492c-1.731-1.176-2.449-3.264-3.294-6.586c-0.855-3.358-1.234-4.648-3.322-6.2
					c-2.051-1.524-6.54-2.162-13.095-1.116c-0.665,0.921-0.484,2.111-0.484,2.111C257.928,383.775,262.096,384.053,264.211,384.276z
					"/>
				<path style="fill:#455A64;" d="M320.59,412.869c-0.87,2.772-3.67,2.772-4.996,3.067c-1.326,0.295-1.768,2.666-2.505,4.649
					c-0.737,1.983,3.065,1.784,3.065,1.784S320.349,420.675,320.59,412.869z"/>
				<path style="fill:#FFFFFF;" d="M275.168,393.462c-0.676,1.103-1.088,2.44-1.5,3.661c-0.423,1.253-0.785,2.527-1.082,3.816
					c-0.591,2.57-0.94,5.196-1.022,7.832c-0.015,0.479,0.885,0.653,0.909,0.128c0.121-2.622,0.463-5.225,1.068-7.78
					c0.289-1.222,0.632-2.431,1.029-3.622c0.204-0.611,0.422-1.217,0.654-1.817c0.242-0.626,0.552-1.256,0.72-1.905
					C276.042,393.394,275.371,393.132,275.168,393.462z M280.523,396.088c-0.067,0.074-0.131,0.157-0.188,0.251
					c-0.585,0.974-0.97,2.118-1.35,3.178c-0.412,1.155-0.762,2.329-1.052,3.521c-0.579,2.385-0.92,4.822-1.006,7.276
					c-0.016,0.448,0.764,0.613,0.862,0.191c0.042-0.179,0.081-0.371,0.094-0.581c0.14-2.239,0.468-4.466,1.01-6.644
					c0.031-0.125,0.063-0.25,0.096-0.375c0.262-1.009,0.566-2.008,0.91-2.991c0.026-0.075,0.053-0.15,0.079-0.224
					c0.176-0.49,0.366-0.976,0.564-1.458c0.239-0.581,0.528-1.165,0.697-1.768C281.344,396.099,280.751,395.834,280.523,396.088z
					 M296.347,404.092c-0.606,0.768-1.018,1.71-1.409,2.603c-0.377,0.858-0.693,1.737-0.96,2.635
					c-0.544,1.831-0.857,3.701-0.958,5.607c-0.028,0.529,0.954,0.586,0.994,0.016c0.131-1.856,0.473-3.714,1.033-5.488
					c0.265-0.84,0.573-1.671,0.922-2.48c0.358-0.831,0.849-1.615,1.167-2.46C297.285,404.12,296.609,403.759,296.347,404.092z
					 M291.234,401.338c-0.084,0.031-0.163,0.085-0.224,0.169c-0.599,0.837-1.002,1.846-1.389,2.794
					c-0.388,0.957-0.716,1.935-0.991,2.931c-0.556,2.015-0.878,4.075-0.974,6.163c-0.018,0.387,0.533,0.532,0.77,0.316
					c0.109-0.1,0.199-0.242,0.212-0.435c0.129-1.916,0.447-3.829,0.966-5.68c0.03-0.107,0.061-0.213,0.092-0.319
					c0.252-0.857,0.542-1.705,0.869-2.536c0.025-0.063,0.05-0.126,0.075-0.189c0.166-0.413,0.355-0.819,0.546-1.223
					c0.232-0.49,0.479-0.982,0.652-1.492C291.948,401.511,291.508,401.236,291.234,401.338z M285.879,398.713
					c-0.075,0.053-0.147,0.121-0.206,0.21c-0.592,0.905-0.986,1.982-1.37,2.986c-0.4,1.056-0.739,2.132-1.021,3.226
					c-0.568,2.2-0.899,4.449-0.99,6.719c-0.017,0.418,0.646,0.572,0.816,0.253c0.074-0.14,0.14-0.306,0.153-0.508
					c0.134-2.078,0.457-4.148,0.988-6.162c0.03-0.116,0.062-0.232,0.094-0.347c0.257-0.933,0.554-1.856,0.89-2.764
					c0.026-0.069,0.051-0.138,0.077-0.207c0.171-0.452,0.36-0.897,0.555-1.341c0.235-0.535,0.504-1.073,0.674-1.63
					C286.646,398.805,286.13,398.535,285.879,398.713z"/>
			</g>
			<g>
				<path style="fill:#BA68C8;" d="M393.567,423.711c-1.638-0.361-3.737-1.359-1.837-2.737c1.899-1.378,2.848-1.166,6.131-1.982
					c3.283-0.816,6.355-3.659,7.145-5.608C404.182,418.382,401.111,424.65,393.567,423.711z"/>
				<path style="fill:#BA68C8;" d="M392.248,423.796c4.651-0.102,7.958-2.138,10.269-5.655c2.294-3.492,4.375-9.075,5.683-14.592
					c1.842-7.769,4.972-11.578,9.674-10.169c-3.235,8.704-4.681,14.217-4.147,22.324c0.533,8.107,2.145,13.94,1.839,19.953
					c-0.306,6.012-1.303,8.276-3.127,16.837c-2.032,9.541-3.514,14.611,0.974,17.481c-3.885-1.135-10.318-7.338-13.558-9.903
					c-3.24-2.564-6.388-4.597-7.582-5.723c-1.194-1.125-0.924-2.749-0.454-4.359c0.47-1.609,2.781-3.74-1.786-11.62
					c-4.019-6.935,0.511-6.003-1.013-11.106C388.042,423.986,389.437,423.858,392.248,423.796z"/>
				<path style="opacity:0.2;fill:#FFFFFF;" d="M392.248,423.796c4.651-0.102,7.958-2.138,10.269-5.655
					c2.294-3.492,4.375-9.075,5.683-14.592c1.842-7.769,4.972-11.578,9.674-10.169c-3.235,8.704-4.681,14.217-4.147,22.324
					c0.533,8.107,2.145,13.94,1.839,19.953c-0.306,6.012-1.303,8.276-3.127,16.837c-2.032,9.541-3.514,14.611,0.974,17.481
					c-3.885-1.135-10.318-7.338-13.558-9.903c-3.24-2.564-6.388-4.597-7.582-5.723c-1.194-1.125-0.924-2.749-0.454-4.359
					c0.47-1.609,2.781-3.74-1.786-11.62c-4.019-6.935,0.511-6.003-1.013-11.106C388.042,423.986,389.437,423.858,392.248,423.796z"
					/>
				<path style="fill:#263238;" d="M429.899,447.443c0.367,5.052,0.177,12.655-2.913,18.356c-2.352,4.319-5.077,6.494-10.21,5.266
					c-0.009-0.001-0.018-0.013-0.027-0.014c-2.175-0.996-3.517-2.868-4.011-4.944c-1.019-4.314,0.969-10.069,2.727-14.721
					c2.869-7.643,3.165-12.606,2.347-19.038c-0.818-6.433-4.253-21.382-4.3-28.022c-0.019-3.766,1.445-7.347,3.144-9.131
					c1.411-1.468,3.298-1.953,3.96-2.09c0.102-0.022,0.181-0.029,0.212-0.034c0.021-0.006,0.03-0.005,0.03-0.005
					c6.177,0.319,10.112,9.78,11.89,14.199c1.988,4.935,4.376,11.675,1.513,21.02C431.406,437.63,429.524,442.381,429.899,447.443z"
					/>
				<path style="fill:#BA68C8;" d="M393.444,450.574c0.583-2.56,0.809-0.663,0.337-4.713c-0.47-4.037-3.09-6.295-4.931-9.949
					c0.269,0.725,0.646,1.532,1.184,2.46c4.567,7.88,2.256,10.011,1.786,11.62c-0.47,1.609-0.741,3.233,0.453,4.359
					c0.271,0.255,0.679,0.526,1.166,0.818C393.432,455.143,392.864,453.118,393.444,450.574z"/>
				<path style="opacity:0.2;" d="M393.444,450.574c0.583-2.56,0.809-0.663,0.337-4.713c-0.47-4.037-3.09-6.295-4.931-9.949
					c0.269,0.725,0.646,1.532,1.184,2.46c4.567,7.88,2.256,10.011,1.786,11.62c-0.47,1.609-0.741,3.233,0.453,4.359
					c0.271,0.255,0.679,0.526,1.166,0.818C393.432,455.143,392.864,453.118,393.444,450.574z"/>
				<path style="fill:#E0E0E0;" d="M415.462,451.384c2.876-7.641,3.168-12.599,2.351-19.036c-0.817-6.437-4.254-21.385-4.298-28.027
					c-0.025-3.761,1.446-7.345,3.145-9.125c1.726-1.808,4.193-2.13,4.193-2.13l-3.643,0.255c-5.301,0.565-6.718,7.24-6.385,16.403
					c0.294,8.079,2.999,16.414,3.664,20.915c1.42,9.607-2.563,19.166-4.456,24.74c-2.622,7.719-1.96,13.034,3.381,14.595
					c0.999,0.292,3.363,1.091,3.363,1.091c-2.194-1.001-3.545-2.871-4.039-4.964C411.721,461.794,413.711,456.038,415.462,451.384z"
					/>
				<path style="fill:#455A64;" d="M421.815,393.186c-3.31-0.867-5.677-1.126-7.524-0.193c-1.847,0.934-3.469,2.286-3.715,3.362
					c-0.246,1.076,1.131,2.271,2.134,3.868s0.844,2.949,0.844,2.949L421.815,393.186z"/>
				<path style="fill:#263238;" d="M420.748,393.078c-0.04,0.003-0.081,0.016-0.132,0.027c-0.661,0.137-2.549,0.622-3.96,2.09
					c-1.699,1.784-3.162,5.365-3.144,9.131c0.047,6.64,3.482,21.589,4.3,28.022c0.818,6.433,0.522,11.395-2.347,19.038
					c-1.758,4.653-3.747,10.407-2.727,14.721c0.494,2.076,1.836,3.947,4.011,4.944c0.009,0.002,0.017,0.013,0.027,0.014
					c5.133,1.228,7.859-0.947,10.21-5.266c3.09-5.701,3.28-13.304,2.913-18.356c-0.375-5.063,1.507-9.813,4.361-19.159
					c2.864-9.344,0.475-16.084-1.513-21.02c-1.778-4.419-5.714-13.88-11.89-14.199c0,0-0.009-0.002-0.03,0.005
					C420.807,393.078,420.788,393.074,420.748,393.078L420.748,393.078z"/>
			</g>
		</g>
		<g id="Top">
			<g>
				<path style="fill:#FFA8A7;" d="M316.596,142.43c-0.639-0.635-1.561-0.867-2.418-1.149c-1.765-0.581-3.335-1.122-4.229-2.88
					c-0.563-1.106-0.919-2.345-1.745-3.27c-1.051-1.177-2.1-1.64-3.893-2.359c0.322-0.811-0.359-2.402-1.948-3.105
					c-5.417-2.399-9.367-3.38-12.68-3.669c-5.031-0.438-7.978-0.291-13.812,1.002c-2.698,0.598-7.169,1.328-9.987,1.489
					c-4.722,0.27-13.869-2.23-27.357-4.833c-16.418-3.168-26.184-4.785-37.477-4.275c-10.112,0.456-12.868,2.441-14.523,13.093
					c-0.519,2.503-0.496,11.303-0.081,15.052c3.098,27.979,7.514,59.162,9.717,75.797c2.331,17.6-0.46,32.591-0.46,32.591
					l43.646-38.025c-6.482-5.966-7.868-12.316-9.881-16.736c-1.261-2.768-7.976-32.258-10.553-51.282
					c4.788-0.016,36.433-1.597,40.346-0.988c4.31,0.671,8.809,1.734,9.89,2.51c7.446,5.347,10.882,5.201,19.806,6.138
					c1.529,0.161,3.06,0.302,4.59,0.441c0.743,0.068,1.493,0.105,2.215,0.267c0.685,0.154,1.273,0.258,1.704-0.521
					c0.305-0.549,0.275-1.225,0.127-1.836c-0.492-2.025-2.147-3.594-3.989-4.57c-1.841-0.976-3.893-1.466-5.874-2.113
					c-1.518-0.496-0.032-1.549,0.743-1.942c3.805-1.929,10.553-1.379,14.732-1.073c2.743,0.201,5.441,0.91,8.211,0.701
					c1.703-0.128,3.421-0.632,4.741-1.716C317.053,144.433,317.623,143.451,316.596,142.43z"/>
				<path style="fill:#F28F8F;" d="M218.915,149.871c-6.95,0.63-18.259-0.752-24.164-5.275c5.78,7.162,9.424,8.293,15.957,9.047
					c6.534,0.754,8.75,0,8.75,0L218.915,149.871z"/>
			</g>
			<path style="fill:#BA68C8;" d="M172.448,323.422c5.68-8.949,9.582-12.655,15.905-37.152c6.322-24.497,3.28-40.704,22.301-55.315
				c11.373-8.736,28.962-13.066,28.962-13.066s2.354,0.95,6.29,2.978c13.8,7.109,26.516,14.405,40.454,16.98
				c2.431,2.076,7.028,5.806,12.089,9.919c1.079,13.163-8.435,35.524-13.254,39.236c-6.603,5.087-12.462,11.314-15.388,20.174
				c-1.298,3.93,0.417,8.087,3.45,11.502c-1.579,6.115-13.975,24.489-43.736,25.824
				C191.211,346.222,172.448,323.422,172.448,323.422z"/>
			<path style="fill:#FFFFFF;" d="M278.836,277.907l-0.623-0.623c-13.75,13.74-20.441,26.842-18.356,35.945
				c1.308,5.713,4.788,11.153,7.529,14.768c0.2-0.229,0.394-0.457,0.583-0.683c-2.667-3.539-5.995-8.788-7.253-14.281
				C258.7,304.231,265.305,291.428,278.836,277.907z M280.532,285.077l-0.625-0.622c-9.728,9.764-14.661,18.545-14.661,26.1
				c0,5.176,3.243,10.232,5.427,13.052c0.176-0.28,0.342-0.555,0.498-0.824c-2.1-2.784-5.044-7.52-5.044-12.227
				C266.128,303.242,270.974,294.67,280.532,285.077z"/>
			<g>
				<path style="fill:#FFA8A7;" d="M398.478,402.996c0.734-0.485,0.924-1.477,0.914-2.356c-0.01-0.863-0.149-1.724-0.412-2.545
					c-0.192-0.599-0.946-3.3-0.946-3.3c0.951-2.202,0.172-5.428-0.544-7.584c-0.73-2.199-8.754-17.2-10.663-18.743
					c-4.645-3.752-14.347-8.272-23.672-18.853c-2.066-2.344-4.678-5.335-6.999-8.017c-7.623-8.811-14.873-17.933-22.294-26.913
					c-3.962-5.955-17.058-32.665-23.14-46.019c-4.649-10.208-6.198-14.905-11.472-19.939c-2.26-2.156-5.496-4.563-5.496-4.563
					c-7.319,2.4-14.559,10.111-17.129,20.435c-2.559,10.28,2.362,21.006,2.362,21.006s24.342,35.421,30.222,43.924
					c3.063,4.43,7.164,7.921,14.652,14.748c10.896,9.934,26.047,21.154,29.685,25.311c2.613,2.986,3.665,8.496,4.17,9.918
					c1.176,3.307,2.74,5.63,4.549,8.627c2.036,3.374,3.701,6.258,5.498,10.706c0.171,0.423,0.596,1.179,1.116,1.185
					c1.229,0.014,2.424-0.764,3.11-1.783c0.686-1.02,0.729-2.809,0.612-4.032c-0.314-3.292-1.102-5.326-2.115-9.414
					c-0.474-1.911,0.187-2.333,1.38-1.243c3.229,2.946,5.508,6.708,7.635,10.482c2.12,3.763,4.045,7.81,7.326,10.705
					c0.528,0.466,1.083,0.901,1.663,1.301c0.489,0.338,1.007,0.657,1.587,0.79c0.579,0.133,1.235,0.055,1.686-0.332
					c0.305-0.261,0.56-0.673,0.961-0.669c0.178,0.002,0.341,0.091,0.496,0.177c0.913,0.507,1.892,0.997,2.936,0.985
					c0.803-0.009,1.567-0.391,2.039-1.041c0.549-0.756,0.173-1.458-0.046-2.306c-0.027-0.103-0.053-0.213-0.023-0.314
					C398.173,403.172,398.34,403.087,398.478,402.996z"/>
				<path style="fill:#F28F8F;" d="M388.159,394.432c-0.655-1.878-1.5-3.712-2.515-5.418c-1.008-1.713-2.084-3.378-3.224-5.001
					c0.947,1.742,1.931,3.461,2.856,5.206c0.931,1.744,1.757,3.517,2.365,5.396c0.645,1.869,1.391,3.731,2.222,5.526
					c0.83,1.802,1.699,3.584,2.647,5.327l-2.258-5.495C389.499,398.137,388.766,396.321,388.159,394.432z M396.224,397.768
					l-2.2-5.391c-0.736-1.801-1.518-3.602-2.498-5.291c-0.96-1.699-2.039-3.323-3.204-4.881c0.987,1.676,1.967,3.35,2.845,5.073
					c0.875,1.726,1.665,3.484,2.353,5.296l2.298,5.358c0.794,1.775,1.591,3.547,2.451,5.292
					C397.632,401.387,396.929,399.577,396.224,397.768z M395.374,387.478c0.533,1.184,1.006,2.391,1.459,3.606
					c0.453,1.216,0.852,2.451,1.201,3.711c-0.125-1.305-0.427-2.588-0.8-3.845c-0.375-1.258-0.858-2.479-1.356-3.69
					c-0.54-1.194-1.092-2.379-1.708-3.532c-0.615-1.154-1.257-2.29-1.947-3.401c0.488,1.214,1.035,2.399,1.569,3.587
					C394.324,385.102,394.881,386.277,395.374,387.478z"/>
				<g>
					<path style="fill:#F28F8F;" d="M323.861,344.277c8.837,7.846,18.354,14.831,27.33,22.55c1.105,0.987,2.222,1.97,3.164,3.192
						c0.898,1.239,1.541,2.614,2.073,4.011c0.536,1.397,0.944,2.835,1.336,4.257c0.354,1.395,0.955,2.737,1.592,4.041
						c1.313,2.597,2.995,5.044,4.473,7.61c1.511,2.549,2.874,5.207,4.018,7.948c0.139,0.327,0.287,0.724,0.416,0.994
						c0.138,0.283,0.344,0.571,0.517,0.67c0.035,0.075,0.472,0.033,0.756-0.037c0.311-0.076,0.616-0.203,0.898-0.373
						c0.556-0.336,1.069-0.846,1.351-1.4c0.281-0.574,0.394-1.282,0.433-1.981c0.077-2.851-0.758-5.719-1.521-8.558l-0.555-2.151
						c-0.088-0.363-0.182-0.75-0.2-1.166c0-0.215-0.01-0.427,0.073-0.686c0.042-0.125,0.1-0.268,0.232-0.396
						c0.122-0.131,0.316-0.21,0.485-0.226c0.65,0.013,0.933,0.331,1.257,0.569c0.3,0.263,0.555,0.514,0.828,0.779
						c0.531,0.529,1.038,1.08,1.524,1.649c1.942,2.28,3.505,4.83,4.952,7.408c1.466,2.574,2.749,5.237,4.382,7.667
						c0.81,1.218,1.724,2.362,2.757,3.387c0.512,0.518,1.101,0.949,1.669,1.405c0.561,0.465,1.161,0.897,1.81,1.121
						c0.637,0.221,1.397,0.165,1.859-0.328c0.128-0.123,0.254-0.267,0.425-0.393c0.164-0.128,0.418-0.223,0.656-0.173
						c0.45,0.131,0.689,0.357,1.034,0.512c0.643,0.336,1.321,0.619,2.032,0.671c0.703,0.068,1.426-0.176,1.936-0.668
						c0.255-0.245,0.465-0.542,0.515-0.884c0.056-0.342-0.033-0.7-0.131-1.051l-0.148-0.535c-0.054-0.156-0.096-0.435,0.088-0.583
						c0.33-0.226,0.606-0.409,0.79-0.738c0.365-0.63,0.418-1.396,0.386-2.124c-0.031-0.735-0.157-1.467-0.372-2.173
						c0.233,0.7,0.377,1.431,0.426,2.17c0.049,0.731,0.02,1.509-0.347,2.181c-0.167,0.338-0.518,0.589-0.789,0.78
						c-0.126,0.112-0.095,0.268-0.039,0.449l0.16,0.528c0.106,0.352,0.215,0.729,0.162,1.124c-0.049,0.398-0.284,0.742-0.551,1.01
						c-0.541,0.55-1.335,0.84-2.105,0.784c-0.771-0.039-1.494-0.323-2.161-0.652c-0.328-0.145-0.683-0.395-0.95-0.456
						c-0.259-0.053-0.493,0.212-0.753,0.488c-0.566,0.627-1.52,0.715-2.257,0.471c-2.773-1.332-4.878-3.554-6.564-6.01
						c-1.697-2.454-3.02-5.11-4.511-7.644c-1.479-2.543-3.048-5.033-4.942-7.25c-0.476-0.551-0.971-1.085-1.488-1.595
						c-0.257-0.248-0.531-0.513-0.787-0.735c-0.236-0.214-0.58-0.402-0.686-0.384c-0.011,0.009,0.008-0.026-0.04,0.082
						c-0.036,0.094-0.036,0.259-0.034,0.411c0.015,0.323,0.094,0.658,0.182,1.011l0.561,2.134c0.768,2.836,1.652,5.724,1.588,8.809
						c-0.044,0.768-0.148,1.554-0.51,2.315c-0.393,0.762-0.975,1.325-1.67,1.762c-0.349,0.212-0.732,0.375-1.137,0.476
						c-0.202,0.052-0.411,0.082-0.622,0.098c-0.124-0.001-0.172,0.018-0.358-0.002c-0.163-0.02-0.309-0.079-0.424-0.149
						c-0.864-0.608-0.997-1.44-1.302-2.076c-1.118-2.713-2.444-5.327-3.932-7.863c-1.456-2.556-3.12-4.994-4.464-7.677
						c-0.65-1.347-1.259-2.72-1.628-4.191c-0.385-1.425-0.779-2.833-1.295-4.195c-0.508-1.362-1.131-2.682-1.955-3.847
						c-0.846-1.131-1.941-2.135-3.022-3.123c-4.381-3.928-9.01-7.61-13.536-11.398C332.681,352.134,328.185,348.299,323.861,344.277
						z"/>
				</g>
			</g>
			<g id="Head_00000032610692259830685110000004062143391930849182_">
				<g id="XMLID_00000042712726384050615850000008812527126530417815_">
					<path style="fill:#37474F;" d="M339.094,226.614c-2.092-3.632-4.469-7.262-5.095-11.407c-0.715-4.739,0.952-9.464,2.196-14.093
						c1.244-4.628,2.02-9.81-0.277-14.016c-1.092-2-2.798-3.599-4.619-4.969c-2.946-2.217-7.151-4.418-10.803-4.919l-10.478,20.796
						c1.459,2.453,2.973,5.167,2.542,7.988c-0.407,2.66-2.449,4.739-3.572,7.184c-0.743,1.616-1.08,3.386-1.369,5.142
						c-0.745,4.513-0.119,10.279,2.012,14.373c1.55,2.976,4.031,5.582,4.573,8.894c0.475,2.903-0.635,5.796-1.536,8.596
						c-1.735,5.39-2.659,11.593,0.219,16.468c2.83,4.792,8.653,7.022,14.193,7.549c-2.765-1.904-4.393-5.344-4.113-8.69
						c0.324-3.878,2.694-5.23,5.073-7.746c2.288-2.42,4.693-6.161,6.359-9.076c1.885-3.299,2.616-7.79,0.162-10.691
						c3.216,2.493,4.394,7.287,2.699,10.987c2.456-3.154,4.958-6.558,5.388-10.533C343.098,234.283,341.186,230.245,339.094,226.614
						z"/>
					<path style="fill:#BA68C8;" d="M312.176,181.982c4.755-12.18,17.022-6.719,12.191,5.27
						C319.877,197.656,308.069,192.322,312.176,181.982z"/>
					<path style="fill:#37474F;" d="M287.725,223.101c3.307-0.184,6.642-0.374,9.839-1.241c7.136-1.937,13.006-7.124,17.43-13.05
						c2.182-2.922,4.159-6.31,4.602-9.993c0.171-1.418,0.217-3.202,0.005-4.615c-0.066-0.444-1.551-3.191-1.537-3.222
						c8.966-19.553-4.814-31.386-16.702-38.403c-18.504-10.922-31.653-6.997-36.865-3.654c-9.532,6.115-10.652,15.928-8.578,20.857
						c-0.678,2.982-2.041,6.124-1.443,9.105c0.716,3.567,1.581,7.109,2.529,10.621c1.864,6.898,4.135,13.685,6.799,20.315
						c1.111,2.764,2.337,5.573,4.438,7.685C273.039,222.328,281.255,223.462,287.725,223.101z"/>
					<path id="XMLID_00000166641904016043563380000005341921298461256338_" style="fill:#FFA8A7;" d="M270.35,159.201
						c-6.196,1.371-9.12,1.226-20.312,19.663c-8.741,14.398-8.509,21.672-3.804,28.361c1.671,2.376,3.854,4.693,8.271,6.852
						c0,0-0.231,0.614-1.591,2.746c-1.544,2.422-2.52,5.397-7.274,4.044c-7.127,4.424-13.675,20.816-14.271,25.909
						c32.531,1.891,54.725-8.928,54.725-8.928s-8.333-4.469-3.35-12.788c2.856-4.768,6.748-11.656,6.748-11.656
						c-0.054,2.019,3.002,6.787,9.242,4.664c7.337-2.495,10.428-9.175,8.337-13.746c-2.164-4.732-7.825-5.281-12.174-2.178
						c-4.875-0.908-5.651-6.389,4.283-21.052C293.456,170.857,283.534,160.364,270.35,159.201z"/>
					<path style="fill:#37474F;" d="M275.043,151.479c-5.916,5.415-10.599,17.537-3.394,26.845
						c0.62-5.385,5.721-13.046,5.721-13.046s-3.016,19.698,17.451,28.855l11.937-16.506
						C301.74,165.215,290.577,151.163,275.043,151.479z"/>
					<g id="XMLID_00000020400752418323117630000008214098888267605151_">
						<path id="XMLID_00000114064631265879500070000008554860448075454128_" style="fill:#F28F8F;" d="M254.505,214.076
							c13.418,6.013,25.162,5.665,29.513,1.659c0,0-4.034,5.855-9.992,6.378c-11.298,0.992-21.112-5.291-21.112-5.291
							L254.505,214.076z"/>
					</g>
					<g>
						<g id="XMLID_00000034077277788535272780000005555003992298598577_">
							<path id="XMLID_00000142163160587731856200000004904536199975819420_" style="fill:#B16668;" d="M258.165,198.515
								l10.268,2.353c-0.529,2.869-3.258,4.668-6.094,4.018C259.505,204.235,257.635,201.383,258.165,198.515z"/>
						</g>
						<path style="fill:#F28F8F;" d="M260.286,203.906c0.598,0.456,1.286,0.804,2.053,0.98c1.977,0.453,3.884-0.301,5.048-1.76
							C265.052,201.801,262.191,202.159,260.286,203.906z"/>
						<path style="fill:#263238;" d="M281.205,190.014c-0.859,1.316-2.631,1.68-3.957,0.813c-1.326-0.866-1.703-2.634-0.844-3.95
							c0.86-1.316,2.631-1.68,3.956-0.814C281.686,186.93,282.064,188.699,281.205,190.014z"/>
						<path style="fill:#263238;" d="M263.677,178.778c-0.86,1.316-2.631,1.68-3.956,0.814c-1.326-0.866-1.703-2.635-0.844-3.95
							c0.86-1.315,2.631-1.68,3.957-0.813C264.159,175.694,264.536,177.463,263.677,178.778z"/>
						<g id="XMLID_00000062177895045199089820000017159763749521273503_">
							<polygon id="XMLID_00000075134425108852497300000009969696303112108725_" style="fill:#F28F8F;" points="272.923,180.351 
								261.152,195.572 255.49,187.552 							"/>
						</g>
						<g id="XMLID_00000052067068988776159930000001991486068575996303_">
							<path id="XMLID_00000067937696788026512020000008601816673673662617_" style="fill:#263238;" d="M259.666,170.077
								l6.744,1.696c0.531-1.85-0.549-3.729-2.412-4.198C262.136,167.107,260.196,168.228,259.666,170.077z"/>
						</g>
						<g id="XMLID_00000106138153371057968280000002211011523733992096_">
							<path id="XMLID_00000150092322775350491160000005168903081733096078_" style="fill:#263238;" d="M286.498,186.323
								l-3.892-5.866c1.589-1.13,3.75-0.732,4.824,0.888C288.504,182.965,288.087,185.194,286.498,186.323z"/>
						</g>
					</g>
					<path style="fill:#F28F8F;" d="M276.181,196.345c-1.201,2.131,0.183,5.188,3.091,6.826c2.908,1.639,6.24,1.24,7.441-0.891
						c1.201-2.132-0.183-5.188-3.091-6.827C280.713,193.814,277.382,194.214,276.181,196.345z"/>
					<path style="fill:#F28F8F;" d="M246.754,174.598c-1.792,1.666-1.402,4.998,0.871,7.443c2.273,2.445,5.568,3.076,7.36,1.411
						c1.792-1.666,1.402-4.998-0.872-7.443C251.841,173.564,248.546,172.932,246.754,174.598z"/>
				</g>
			</g>
		</g>
	</g>
</g>
<g id="Speech_Bubble">
	<g id="Speech_Bubble_00000143608865373922005170000008772096286307524500_">
		<g id="Speech_Bubble_00000092427655169174697390000016961385394389999776_">
			<path style="fill:#FFFFFF;" d="M274.245,43.903c8.826,16.941,2.226,37.898-14.708,46.72c-16.941,8.826-37.905,2.23-46.731-14.712
				c-8.826-16.941-2.218-37.902,14.723-46.728C244.463,20.362,265.419,26.962,274.245,43.903z"/>
			<path style="fill:#455A64;" d="M209.777,77.489c8.698,16.696,28.128,24.236,45.471,18.613l8.882,7.803
				c1.517,1.333,3.879,0.102,3.656-1.905l-1.305-11.75c14.548-10.989,19.498-31.233,10.8-47.929
				c-9.699-18.618-32.724-25.869-51.334-16.174C207.337,35.843,200.078,58.872,209.777,77.489z M227.529,29.184
				c16.934-8.822,37.89-2.222,46.716,14.72c8.826,16.941,2.226,37.898-14.708,46.72c-16.941,8.826-37.905,2.23-46.731-14.712
				C203.98,58.97,210.587,38.01,227.529,29.184z"/>
		</g>
		<g id="Like_1_">
			<path id="XMLID_2086_" style="fill:#BA68C8;" d="M235.762,53.116c0,0,5.844-8.561,6.402-9.943
				c0.559-1.382,0.027-7.474,0.031-8.581c0.004-1.107,5.265-1.504,6.912,2.516c1.646,4.02,1.773,7.342,0.791,11.075l12.8,0.045
				c2.701,0.01,3.8,2.505,3.794,4.028c-0.007,2.145-1.396,3.317-2.089,3.73c0,0,2.558,0.632,2.547,3.607
				c-0.006,1.661-1.189,3.456-3.128,3.864c0,0,0.827,0.972,0.82,3.048c-0.005,1.384-1.813,3.731-3.612,3.724
				c0,0,0.549,1.248,0.543,2.909c-0.007,2.007-1.952,4.007-4.72,3.997c-2.768-0.01-21.176-0.076-21.176-0.076L235.762,53.116z"/>
			<path style="fill:#BA68C8;" d="M223.492,52.384l-0.105,27.858l9.236,0.035l0.091-27.86L223.492,52.384z M226.369,75.461
				c0.182-1.055,1.181-1.75,2.223-1.57c1.055,0.182,1.752,1.168,1.57,2.223c-0.179,1.042-1.168,1.752-2.223,1.57
				C226.897,77.504,226.19,76.502,226.369,75.461z"/>
		</g>
	</g>
</g>
</svg>
