<?xml version="1.0" encoding="UTF-8" standalone="no"?>
<!-- Created with Inkscape (http://www.inkscape.org/) -->

<svg
   width="1024"
   height="1024"
   viewBox="0 0 270.93333 270.93333"
   version="1.1"
   id="svg1"
   inkscape:version="1.4 (1:1.4+202410161351+e7c3feb100)"
   sodipodi:docname="icon.svg"
   inkscape:export-filename="icon.png"
   inkscape:export-xdpi="96"
   inkscape:export-ydpi="96"
   xmlns:inkscape="http://www.inkscape.org/namespaces/inkscape"
   xmlns:sodipodi="http://sodipodi.sourceforge.net/DTD/sodipodi-0.dtd"
   xmlns:xlink="http://www.w3.org/1999/xlink"
   xmlns="http://www.w3.org/2000/svg"
   xmlns:svg="http://www.w3.org/2000/svg">
  <sodipodi:namedview
     id="namedview1"
     pagecolor="#505050"
     bordercolor="#ffffff"
     borderopacity="1"
     inkscape:showpageshadow="0"
     inkscape:pageopacity="0"
     inkscape:pagecheckerboard="1"
     inkscape:deskcolor="#d1d1d1"
     inkscape:document-units="mm"
     inkscape:zoom="0.34342382"
     inkscape:cx="396.01213"
     inkscape:cy="502.2948"
     inkscape:window-width="1920"
     inkscape:window-height="1003"
     inkscape:window-x="0"
     inkscape:window-y="40"
     inkscape:window-maximized="1"
     inkscape:current-layer="layer1" />
  <defs
     id="defs1">
    <linearGradient
       id="linearGradient1"
       inkscape:collect="always">
      <stop
         style="stop-color:#ff6161;stop-opacity:1;"
         offset="0"
         id="stop1" />
      <stop
         style="stop-color:#fa74a7;stop-opacity:1;"
         offset="0.5"
         id="stop3" />
      <stop
         style="stop-color:#ff3cf7;stop-opacity:1;"
         offset="1"
         id="stop2" />
    </linearGradient>
    <linearGradient
       inkscape:collect="always"
       xlink:href="#linearGradient1"
       id="linearGradient2"
       x1="33.228672"
       y1="46.592548"
       x2="237.70461"
       y2="224.34076"
       gradientUnits="userSpaceOnUse" />
    <symbol
       id="AigaSymbols.svg:FirstAid">
      <title
         id="title29">First Aid</title>
      <path
         d="M 44,13 V 28 H 59 V 44 H 44 V 59 H 28 V 44 H 13 V 28 H 28 V 13 Z"
         style="stroke:none"
         id="path30" />
    </symbol>
    <symbol
       id="sjjb-sport.svg:canoe"
       viewBox="0 0 471.16992 413.27539">
      <title
         id="title4">Canoe</title>
      <path
         d="m 161.32812,0 a 43.70733,43.70733 0 0 0 -43.70703,43.707031 43.70733,43.70733 0 0 0 43.70703,43.70704 43.70733,43.70733 0 0 0 43.70703,-43.70704 A 43.70733,43.70733 0 0 0 161.32812,0 Z m 100.11914,72.250001 c -7.32069,-0.072 -15.14034,3.77634 -20.82812,13.16211 L 212.47265,131.40821 145.53906,94.394531 C 99.142932,68.536271 79.519532,111.38477 79.519532,111.38477 l -52.574219,90.04687 c -8.92453,18.70719 -0.972657,26.77344 -0.972657,26.77344 L 0,228.14848 v 98.16992 h 0.115234 c 10.240331,0 20.078552,-2.34558 28.888672,-6.29297 9.03895,-4.17622 19.279706,-6.63671 29.863286,-6.63671 10.58358,0 20.82489,2.46049 29.80664,6.63671 8.86732,3.94739 18.764388,6.23438 29.119138,6.23438 10.29753,0 20.19378,-2.28699 29.0039,-6.23438 8.98174,-4.17622 19.22249,-6.63671 29.86328,-6.63671 10.64079,0 20.76713,2.46049 29.86329,6.63671 8.75291,3.94739 18.7064,6.23438 29.0039,6.23438 10.2976,0 20.25296,-2.28699 29.00586,-6.23438 9.0961,-4.17622 19.27912,-6.63671 29.91992,-6.63671 10.6408,0 20.76569,2.46049 29.80469,6.63671 8.8673,3.94739 18.765,6.23438 29.0625,6.23438 10.3548,0 20.1951,-2.28699 29.0625,-6.23438 8.9817,-4.17622 19.22109,-6.63671 29.80469,-6.63671 9.0962,0 17.90681,1.71681 25.91601,4.86328 12.9863,-14.18772 20.99414,-33.06646 20.99414,-53.71875 0,-44.05058 -35.63941,-79.69141 -79.63281,-79.69141 l -8.92578,0.97266 c -9.7827,39.70273 -49.48437,41.41796 -49.48437,41.41796 l -181.8086,-0.0566 -15.21875,-8.92578 36.67188,-61.49804 40.10351,23.16992 c 24.02756,15.56073 36.55469,-6.23633 36.55469,-6.23633 l 40.21875,-65.56055 C 289.33788,88.983461 276.43726,72.397531 261.44726,72.250081 Z M 58.98242,356.86719 c -10.58358,0 -20.824331,2.46049 -29.863281,6.63672 -8.81012,3.94739 -18.706367,6.29297 -29.003907,6.29297 v 43.47851 c 10.297541,0 20.193787,-2.28893 29.003907,-6.23632 9.03895,-4.17622 19.279701,-6.63672 29.863281,-6.63672 10.58358,0 20.82295,2.4605 29.80469,6.63672 8.86733,3.94739 18.7644,6.23632 29.11914,6.23632 10.29754,0 20.19574,-2.28893 29.00586,-6.23632 8.98174,-4.17622 19.16528,-6.63672 29.86328,-6.63672 10.58358,0 20.76517,2.4605 29.86133,6.63672 8.75291,3.94739 18.70836,6.23632 29.00586,6.23632 10.2976,0 20.251,-2.28893 29.0039,-6.23632 9.0961,-4.17622 19.22192,-6.63672 29.91992,-6.63672 10.5836,0 20.76765,2.4605 29.80664,6.63672 8.86731,3.94739 18.76305,6.23632 29.06055,6.23632 10.3548,0 20.1952,-2.28893 29.0625,-6.23632 8.9817,-4.17622 19.16584,-6.63672 29.80664,-6.63672 10.6408,0 20.82372,2.4605 29.91992,6.63672 8.7529,3.94739 18.64977,6.23632 28.94727,6.23632 v -43.47851 c -10.2975,0 -20.19437,-2.34558 -28.94727,-6.29297 -9.0962,-4.17623 -19.22192,-6.63672 -29.91992,-6.63672 -10.5835,0 -20.82494,2.46049 -29.80664,6.63672 -8.8673,3.94739 -18.7077,6.29297 -29.0625,6.29297 -10.2975,0 -20.19324,-2.34558 -29.06055,-6.29297 -9.03899,-4.17623 -19.16584,-6.63672 -29.80664,-6.63672 -10.6407,0 -20.82382,2.46049 -29.91992,6.63672 -8.7529,3.94739 -18.7063,6.29297 -29.0039,6.29297 -10.2975,0 -20.25295,-2.34558 -29.00586,-6.29297 -9.09616,-4.17623 -19.22054,-6.63672 -29.86133,-6.63672 -10.64079,0 -20.88154,2.46049 -29.86328,6.63672 -8.81012,3.94739 -18.70832,6.29297 -29.00586,6.29297 -10.35474,0 -20.25181,-2.34558 -29.11914,-6.29297 -8.98174,-4.17623 -19.22111,-6.63672 -29.80469,-6.63672 z"
         id="path4" />
    </symbol>
    <symbol
       id="sjjb-sport.svg:hillclimbing"
       viewBox="0 0 461.54923 463.36725">
      <title
         id="title12">Hill climbing</title>
      <path
         d="m 170.18081,301.35371 11.15062,70.50708 c 1.57733,11.74821 8.62864,18.59635 21.15393,20.5444 8.61666,1.18324 16.15498,-1.26078 22.61497,-7.33217 6.45942,-6.07126 9.10365,-13.41537 7.93272,-22.03234 l -13.517,-85.17141 c -1.5659,-9.01118 -6.45999,-15.27967 -14.68225,-18.80548 l -61.09538,-27.60766 38.77621,-67.54911 19.37914,24.66761 c 1.56536,2.35464 3.91978,4.11747 7.06325,5.28849 l 73.4292,21.15392 c 1.94772,0.77703 3.70457,1.16547 5.27055,1.16532 5.48531,1.9e-4 10.18817,-2.15403 14.10859,-6.46269 3.91968,-4.30827 5.87969,-9.20534 5.88007,-14.69122 -3.8e-4,-9.78795 -4.70324,-16.24766 -14.10859,-19.37914 L 230.09301,156.86176 181.92304,98.688479 c -6.65715,-7.82783 -16.0569,-12.7219 -28.19927,-14.68225 -21.14216,-3.13093 -37.0016,4.30879 -47.57838,22.319181 l -53.458457,92.23467 c -3.52577,5.88028 -5.0914,13.12279 -4.69689,21.72758 l 1.75685,116.90229 -40.53305,86.9462 c -1.565702,3.52563 -2.53974,6.45968 -2.922115,8.80218 -1.183238,7.44566 0.379335,14.00695 4.687925,19.6839 4.308385,5.67684 10.185467,9.10688 17.631246,10.29011 12.524935,1.94802 21.333074,-2.36044 26.424484,-12.9254 l 44.65627,-95.17469 c 1.565467,-3.5256 2.348277,-7.24247 2.348437,-11.15064 l -0.59154,-72.26393 68.73231,29.9561 z m 249.07843,-292.5336 -24.09396,109.26537 -41.12465,17.0307 -35.83616,100.44525 34.07931,76.96083 -9.39377,29.9561 -79.30927,23.50237 -4.69689,35.24457 -126.29607,31.13928 1.16532,21.13599 h 308.39904 c 5.48517,-4e-5 10.08943,-1.85848 13.81279,-5.5753 3.72233,-3.71691 5.58375,-8.31819 5.58428,-13.80384 V 18.21389 L 419.2593,8.820106 Z M 177.81773,78.71768 c 10.57671,3.2e-4 19.77925,-3.81813 27.60766,-11.45539 7.82787,-7.63657 11.74194,-16.93473 11.74222,-27.894489 -2.8e-4,-10.57658 -3.91435,-19.782104 -11.74222,-27.616617 C 197.59698,3.917478 188.39444,4.12e-4 177.81773,1e-6 c -10.97157,4.11e-4 -20.27571,3.917477 -27.91241,11.751183 -7.63713,7.834513 -11.45558,17.040037 -11.45539,27.616617 -1.9e-4,10.959759 3.81826,20.257919 11.45539,27.894489 7.6367,7.63726 16.94084,11.45571 27.91241,11.45539 z M 40.35312,186.22619 99.10006,85.18935 c 3.91988,-6.65659 2.55146,-11.74786 -4.10529,-15.27385 L 76.18928,58.74694 C 69.53225,54.8392 64.44097,56.2136 60.91544,62.87016 L 2.168499,163.90702 c -3.908151,6.65715 -2.533747,11.74842 4.123226,15.27384 l 18.78755,11.15062 c 6.656812,3.92027 11.748098,2.55184 15.273845,-4.10529 z"
         id="path13" />
    </symbol>
    <symbol
       id="sjjb-shopping.svg:florist"
       viewBox="0 0 320.707 485.33444">
      <title
         id="title31">Florist</title>
      <path
         d="m 117.24815,0.00825287 c -8.49162,-0.216306 -16.46317,3.80085303 -21.765624,14.24023413 -30.06173,-5.0764012 -37.22193,33.508334 -25.90625,55.482422 8.60569,16.71148 37.565564,46.041511 61.203124,53.861331 a 41.614659,40.909326 0 0 0 -7.1289,9.01758 C 109.84793,111.87572 72.902146,91.944469 54.224716,88.359819 c -24.27348,-4.65861 -58.75498,10.40011 -45.57813,38.707031 -22.54783,20.52005 3.39253,49.96636 27.66602,54.625 19.4789,3.73847 64.017624,-1.67482 83.410154,-17.26953 a 41.614659,40.909326 0 0 0 4.07422,9.24805 c -24.615334,-1.96752 -65.121954,29.41286 -77.117194,47.33008 -13.7502,20.53866 -13.32124,58.16171 17.88282,57.05859 10.11018,28.76215 47.337674,16.34918 61.087894,-4.18945 11.06839,-16.5328 23.48532,-59.87435 16.54101,-83.76563 a 41.614659,40.909326 0 0 0 10.2793,3.17774 c -9.16142,23.07947 -6.98208,62.32904 -0.64648,79.42773 8.58767,23.17665 39.32994,44.87281 56.71874,18.93945 29.23184,8.65897 40.98414,-28.78427 32.39649,-51.96093 -6.18572,-16.69418 -29.13692,-46.84083 -50.68359,-58.9961 a 41.614659,40.909326 0 0 0 6.89648,-10.01367 c 15.5709,19.2953 61.91394,31.36526 82.54297,30.09961 24.67007,-1.51361 54.33301,-24.66128 34.54101,-48.81055 16.74739,-25.47551 -15.6912,-47.5585 -40.36132,-46.04492 -18.97815,1.16437 -58.15618,16.1955 -74.50586,34.98633 a 41.614659,40.909326 0 0 0 -6.16602,-12.02344 c 24.67088,1.26189 62.37186,-38.586801 71.75781,-59.033201 10.31157,-22.462768 3.90956,-59.540097 -26.72265,-53.492193 -14.55245,-26.789997 -49.33492,-8.6190262 -59.64649,13.84375 -8.25694,17.986961 -13.61395,62.379333 -3.18359,84.976564 a 41.614659,40.909326 0 0 0 -14.83008,-3.01757 C 170.74558,89.480099 163.2885,44.125602 154.06847,26.221144 146.99615,12.487347 131.40085,0.36876387 117.24815,0.00825287 Z m 111.2168,201.13867713 4.09375,5.125 c 15.32135,17.92051 25.59445,42.36275 19.40625,65.96875 -2.0368,8.92708 -7.66231,16.58551 -13.75,22.9375 -13.33763,59.51675 -34.66797,116.92241 -56.81055,173.69922 -0.37944,4.78377 9.99443,5.02487 14.03321,7.9414 6.9758,2.8441 13.96965,5.64271 20.93359,8.51563 23.79787,-60.85348 46.64982,-122.54607 60.53125,-186.5 5.14805,-24.69902 8.68472,-52.1996 -3.65625,-75.34375 -2.77011,-4.50612 -5.02568,-10.22697 -9.15625,-13.25 -12.22697,-1.16677 -23.88404,-5.66749 -35.625,-9.09375 z"
         id="path32" />
    </symbol>
  </defs>
  <g
     inkscape:label="Layer 1"
     inkscape:groupmode="layer"
     id="layer1">
    <rect
       style="fill:url(#linearGradient2);stroke-width:0.567593"
       id="rect1"
       width="270.93332"
       height="270.93332"
       x="0"
       y="0"
       ry="82.821014"
       rx="82.821014" />
    <circle
       style="fill:#fff700;fill-opacity:1;stroke-width:0.529167"
       id="path3"
       cx="188.94746"
       cy="108.05251"
       r="49.499996" />
    <use
       xlink:href="#sjjb-shopping.svg:florist"
       width="320.707"
       height="485.33444"
       style="fill:#73003e;stroke:none;fill-opacity:1"
       id="use1"
       transform="matrix(0.27410783,0,0,0.27410783,44.658639,123.77874)" />
  </g>
</svg>
