<?xml version="1.0" encoding="utf-8"?>
<!-- Generator: Adobe Illustrator 27.5.0, SVG Export Plug-In . SVG Version: 6.00 Build 0)  -->
<svg version="1.1" xmlns="http://www.w3.org/2000/svg" xmlns:xlink="http://www.w3.org/1999/xlink" x="0px" y="0px"
	 viewBox="0 0 750 500" style="enable-background:new 0 0 750 500;" xml:space="preserve">
<g id="Background_Complete">
	<g>
		<g>
			<g>
				<g>
					<g>
						<path style="fill:#F5F5F5;" d="M660.721,70.976c-0.339-3.871-2.114-7.534-4.624-10.5c-2.46-2.905-5.71-5.232-9.406-6.14
							c-3.927-0.965-8.24-0.238-11.633,1.962c-2.018,1.308-3.693,3.126-4.871,5.222c-1.051-1.914-2.512-3.604-4.28-4.888
							c-3.271-2.377-7.539-3.333-11.511-2.578c-3.74,0.71-7.109,2.86-9.719,5.63c-2.665,2.828-4.632,6.392-5.176,10.239
							c-0.682,4.819,0.112,10.134,2.507,14.37c2.53,4.474,6.713,8.144,11.042,10.912c7.281,4.655,16.875,10.496,16.875,10.496
							s8.399-5.939,15.918-10.2c4.471-2.534,8.844-5.975,11.608-10.308C660.069,81.09,661.145,75.824,660.721,70.976z"/>
					</g>
				</g>
			</g>
		</g>
	</g>
	<g>
		<g>
			<g>
				<g>
					<g>
						<path style="fill:#F5F5F5;" d="M109.899,137.486c-1.447-3.563-4.191-6.513-7.429-8.589c-3.172-2.033-6.924-3.289-10.685-3.073
							c-3.996,0.229-7.865,2.172-10.435,5.24c-1.529,1.825-2.585,4.032-3.09,6.357c-1.551-1.506-3.425-2.679-5.471-3.38
							c-3.786-1.298-8.102-0.961-11.641,0.909c-3.332,1.76-5.894,4.774-7.558,8.154c-1.699,3.45-2.523,7.394-1.919,11.192
							c0.757,4.757,3.054,9.555,6.552,12.866c3.695,3.497,8.72,5.752,13.621,7.112c8.242,2.286,19.018,5.022,19.018,5.022
							s6.219-8.062,12.093-14.28c3.493-3.698,6.629-8.226,7.984-13.129C112.224,147.245,111.71,141.95,109.899,137.486z"/>
					</g>
				</g>
			</g>
		</g>
	</g>
	<g>
		<g>
			<g>
				<g>
					<g>
						<path style="fill:#F5F5F5;" d="M525.753,70.717c-0.159-1.816-0.992-3.535-2.169-4.926c-1.154-1.363-2.679-2.454-4.413-2.881
							c-1.842-0.453-3.866-0.112-5.457,0.92c-0.947,0.614-1.733,1.467-2.285,2.45c-0.493-0.898-1.179-1.691-2.008-2.293
							c-1.535-1.115-3.537-1.564-5.401-1.21c-1.755,0.333-3.335,1.342-4.56,2.642c-1.25,1.327-2.173,2.999-2.429,4.804
							c-0.32,2.261,0.053,4.755,1.176,6.742c1.187,2.099,3.149,3.821,5.181,5.12c3.416,2.184,7.917,4.924,7.917,4.924
							s3.94-2.786,7.468-4.785c2.098-1.189,4.149-2.803,5.446-4.836C525.447,75.462,525.952,72.991,525.753,70.717z"/>
					</g>
				</g>
			</g>
		</g>
	</g>
	<g>
		<g>
			<g>
				<g>
					<g>
						<path style="fill:#F5F5F5;" d="M685.808,279.056c-0.159-1.816-0.992-3.535-2.169-4.926c-1.154-1.363-2.679-2.454-4.413-2.881
							c-1.843-0.453-3.866-0.112-5.458,0.92c-0.947,0.614-1.733,1.467-2.285,2.45c-0.493-0.898-1.179-1.691-2.008-2.293
							c-1.535-1.115-3.537-1.564-5.401-1.21c-1.755,0.333-3.335,1.342-4.56,2.642c-1.25,1.327-2.173,2.999-2.429,4.804
							c-0.32,2.261,0.052,4.755,1.176,6.742c1.187,2.099,3.149,3.821,5.181,5.12c3.416,2.184,7.917,4.924,7.917,4.924
							s3.94-2.786,7.468-4.785c2.098-1.189,4.149-2.803,5.446-4.836C685.502,283.802,686.006,281.331,685.808,279.056z"/>
					</g>
				</g>
			</g>
		</g>
	</g>
	<g>
		<g>
			<g>
				<g>
					<g>
						<path style="fill:#F5F5F5;" d="M677.461,155.459c-0.159-1.816-0.992-3.535-2.169-4.926c-1.154-1.363-2.679-2.454-4.413-2.881
							c-1.843-0.453-3.866-0.112-5.458,0.92c-0.947,0.614-1.733,1.467-2.285,2.45c-0.493-0.898-1.179-1.691-2.008-2.293
							c-1.535-1.115-3.537-1.564-5.4-1.21c-1.755,0.333-3.335,1.342-4.56,2.642c-1.25,1.327-2.173,2.999-2.429,4.804
							c-0.32,2.261,0.052,4.755,1.176,6.742c1.187,2.099,3.149,3.821,5.181,5.12c3.416,2.184,7.917,4.924,7.917,4.924
							s3.94-2.786,7.468-4.785c2.098-1.189,4.149-2.803,5.446-4.836C677.155,160.204,677.66,157.733,677.461,155.459z"/>
					</g>
				</g>
			</g>
		</g>
	</g>
	<g>
		<g>
			<g>
				<g>
					<g>
						<path style="fill:#F5F5F5;" d="M348.977,50.378c-0.159-1.816-0.992-3.535-2.169-4.926c-1.154-1.363-2.679-2.454-4.413-2.881
							c-1.842-0.453-3.866-0.112-5.457,0.92c-0.947,0.614-1.733,1.467-2.285,2.45c-0.493-0.898-1.179-1.691-2.008-2.293
							c-1.535-1.115-3.537-1.564-5.4-1.21c-1.755,0.333-3.335,1.342-4.56,2.642c-1.25,1.327-2.173,2.999-2.428,4.804
							c-0.32,2.261,0.052,4.755,1.176,6.742c1.187,2.099,3.149,3.821,5.181,5.12c3.416,2.184,7.917,4.924,7.917,4.924
							s3.94-2.786,7.468-4.785c2.098-1.189,4.149-2.803,5.446-4.836C348.671,55.123,349.176,52.652,348.977,50.378z"/>
					</g>
				</g>
			</g>
		</g>
	</g>
	<g>
		<g>
			<g>
				<g>
					<g>
						<path style="fill:#F5F5F5;" d="M157.574,107.43c-0.159-1.816-0.992-3.535-2.169-4.926c-1.154-1.363-2.679-2.454-4.413-2.881
							c-1.842-0.453-3.866-0.112-5.458,0.92c-0.947,0.614-1.733,1.467-2.285,2.45c-0.493-0.898-1.179-1.691-2.008-2.293
							c-1.535-1.115-3.537-1.564-5.401-1.21c-1.755,0.333-3.335,1.342-4.56,2.642c-1.25,1.327-2.173,2.999-2.429,4.804
							c-0.32,2.261,0.053,4.755,1.176,6.742c1.187,2.099,3.149,3.821,5.181,5.12c3.416,2.184,7.917,4.924,7.917,4.924
							s3.94-2.786,7.468-4.785c2.098-1.189,4.149-2.803,5.446-4.836C157.268,112.175,157.773,109.704,157.574,107.43z"/>
					</g>
				</g>
			</g>
		</g>
	</g>
	<g>
		<g>
			<g>
				<g>
					<g>
						<path style="fill:#F5F5F5;" d="M85.293,249.069c-0.657-1.294-1.782-2.315-3.065-2.993c-1.257-0.664-2.707-1.016-4.114-0.816
							c-1.495,0.213-2.887,1.066-3.756,2.3c-0.517,0.735-0.844,1.598-0.96,2.488c-0.631-0.517-1.372-0.898-2.164-1.097
							c-1.464-0.368-3.076-0.104-4.347,0.711c-1.197,0.767-2.064,1.981-2.582,3.305c-0.529,1.351-0.714,2.859-0.366,4.268
							c0.435,1.764,1.451,3.495,2.871,4.628c1.5,1.197,3.46,1.885,5.346,2.241c3.171,0.598,7.308,1.284,7.308,1.284
							s2.082-3.228,4.092-5.751c1.196-1.501,2.231-3.302,2.584-5.188C86.477,252.663,86.116,250.689,85.293,249.069z"/>
					</g>
				</g>
			</g>
		</g>
	</g>
	<g>
		<g>
			<g>
				<g>
					<g>
						<g>
							<g>
								<g>
									<g>
										<path style="fill:#EBEBEB;" d="M107.734,326.06c-26.971,32.78-22.986,71.401-22.986,71.401
											C113.584,376.049,107.734,326.06,107.734,326.06z"/>
									</g>
								</g>
							</g>
						</g>
					</g>
				</g>
			</g>
			<g>
				<g>
					<g>
						<g>
							<g>
								<g>
									<g>
										<path style="fill:#EBEBEB;" d="M51.428,429.856c23.108,12.029,47.174,4.823,47.174,4.823
											C82.504,420.113,51.428,429.856,51.428,429.856z"/>
									</g>
								</g>
							</g>
						</g>
					</g>
				</g>
			</g>
			<g>
				<g>
					<g>
						<g>
							<g>
								<g>
									<g>
										<path style="fill:#EBEBEB;" d="M100.715,424.63c19.503-24.469,16.699-54.41,16.699-54.41
											C96.576,385.854,100.715,424.63,100.715,424.63z"/>
									</g>
								</g>
							</g>
						</g>
					</g>
				</g>
			</g>
			<g>
				<g>
					<g>
						<g>
							<g>
								<g>
									<g>
										<g>
											<path style="fill:#E0E0E0;" d="M68.584,369.634c-0.516,0.268,9.514,20.565,22.397,45.329
												c12.888,24.773,23.75,44.631,24.265,44.363c0.515-0.268-9.512-20.561-22.4-45.333
												C79.963,389.228,69.098,369.366,68.584,369.634z"/>
										</g>
									</g>
								</g>
							</g>
						</g>
					</g>
				</g>
			</g>
			<g>
				<g>
					<g>
						<g>
							<g>
								<g>
									<g>
										<path style="fill:#EBEBEB;" d="M45.713,306.257c0,0-6.77,47.947,28.584,72.882
											C74.297,379.139,80.639,338.309,45.713,306.257z"/>
									</g>
								</g>
							</g>
						</g>
					</g>
				</g>
			</g>
			<g>
				<g>
					<g>
						<g>
							<g>
								<g>
									<g>
										<path style="fill:#EBEBEB;" d="M18.429,369.543c0,0,23.145,42.533,66.396,41.479
											C84.825,411.023,65.577,374.459,18.429,369.543z"/>
									</g>
								</g>
							</g>
						</g>
					</g>
				</g>
			</g>
		</g>
	</g>
	<g>
		<g>
			<g>
				<g>
					<g>
						<g>
							<g>
								<g>
									<g>
										<path style="fill:#EBEBEB;" d="M721.703,388.624c-38.029-9.177-68.447,9.662-68.447,9.662
											C682.608,413.582,721.703,388.624,721.703,388.624z"/>
									</g>
								</g>
							</g>
						</g>
					</g>
				</g>
			</g>
			<g>
				<g>
					<g>
						<g>
							<g>
								<g>
									<g>
										<path style="fill:#EBEBEB;" d="M612.992,383.69c-0.678,23.998,14.977,41.053,14.977,41.053
											C633.57,405.537,612.992,383.69,612.992,383.69z"/>
									</g>
								</g>
							</g>
						</g>
					</g>
				</g>
			</g>
			<g>
				<g>
					<g>
						<g>
							<g>
								<g>
									<g>
										<path style="fill:#EBEBEB;" d="M637.151,422.454c28.133,6.328,51.83-8.041,51.83-8.041
											C667.636,403.424,637.151,422.454,637.151,422.454z"/>
									</g>
								</g>
							</g>
						</g>
					</g>
				</g>
			</g>
			<g>
				<g>
					<g>
						<g>
							<g>
								<g>
									<g>
										<g>
											<path style="fill:#E0E0E0;" d="M669.826,373.69c-0.43-0.32-13.224,16.16-28.575,36.803
												c-15.356,20.651-27.452,37.645-27.022,37.964c0.43,0.319,13.222-16.157,28.577-36.808
												C658.156,391.007,670.254,374.009,669.826,373.69z"/>
										</g>
									</g>
								</g>
							</g>
						</g>
					</g>
				</g>
			</g>
			<g>
				<g>
					<g>
						<g>
							<g>
								<g>
									<g>
										<path style="fill:#EBEBEB;" d="M713.174,329.234c0,0-42.478,13.673-48.931,53.017
											C664.242,382.251,700.647,371.085,713.174,329.234z"/>
									</g>
								</g>
							</g>
						</g>
					</g>
				</g>
			</g>
			<g>
				<g>
					<g>
						<g>
							<g>
								<g>
									<g>
										<path style="fill:#EBEBEB;" d="M649.726,332.069c0,0-25.956,36.299-7.685,71.736
											C642.041,403.805,664.615,373.138,649.726,332.069z"/>
									</g>
								</g>
							</g>
						</g>
					</g>
				</g>
			</g>
		</g>
	</g>
</g>
<g id="Background_Simple" style="display:none;">
	<path style="display:inline;fill:#F5F5F5;" d="M719.143,140.332l-0.927,1.576c-7.812,13.286-22.157,21.429-37.41,20.677
		c-1.961-0.097-3.915-0.335-5.846-0.72c-13.898-2.773-26.101-13.085-31.285-26.435c-3.049-7.852-3.996-16.928-9.661-23.115
		c-7.372-8.052-19.7-8.137-30.53-7.649c-10.831,0.488-23.167,0.372-30.504-7.713c-4.595-5.063-6.134-12.333-5.865-19.204
		c0.713-18.189,13.153-34.618,29.148-42.919c15.995-8.302,34.949-9.289,52.627-5.98c24.764,4.635,48.439,17.98,62.849,38.899
		S730.121,117.385,719.143,140.332z"/>
	<path style="display:inline;fill:#F5F5F5;" d="M53.458,151.056l0.916,1.195c7.719,10.077,20.263,15.294,32.657,13.148
		c1.593-0.276,3.167-0.667,4.706-1.175c11.083-3.662,20.023-13.316,22.921-24.749c1.704-6.724,1.568-14.239,5.578-19.865
		c5.218-7.322,15.287-8.629,24.19-9.316c8.903-0.688,18.975-2.021,24.162-9.367c3.248-4.6,3.777-10.698,2.867-16.287
		c-2.408-14.798-14.226-26.978-28.134-32.16s-29.502-4.086-43.62,0.393C79.92,59.147,61.906,72.432,52.226,90.978
		C42.546,109.525,42.181,133.399,53.458,151.056z"/>
	<circle style="display:inline;fill:#F5F5F5;" cx="513.864" cy="67.506" r="20.966"/>
</g>
<g id="Table">
	<g>
		
			<path style="fill:#263238;stroke:#263238;stroke-width:0.5;stroke-linecap:round;stroke-linejoin:round;stroke-miterlimit:10;" d="
			M698.866,468.28c0,0.144-145.011,0.26-323.85,0.26c-178.901,0-323.881-0.116-323.881-0.26c0-0.144,144.98-0.26,323.881-0.26
			C553.854,468.019,698.866,468.136,698.866,468.28z"/>
	</g>
</g>
<g id="Speech_Bubble">
	<g>
		<g>
			<g>
				<g>
					<g>
						<g>
							<g>
								<g>
									<g>
										<g>
											<g>
												<g>
													<g>
														<path style="fill:#FFFFFF;" d="M266.63,97.89l-10.895-3.312c-5.703,3.213-12.337,4.94-19.358,4.665
															c-20.191-0.79-35.919-17.799-35.129-37.99c0.79-20.191,17.799-35.919,37.99-35.129
															c20.192,0.79,35.92,17.799,35.129,37.99c-0.33,8.431-3.495,16.077-8.531,22.075l0.017-0.012L266.63,97.89z"/>
													</g>
													<g>
														<g>
															
																<path style="fill:#263238;stroke:#263238;stroke-width:0.5;stroke-linecap:round;stroke-linejoin:round;stroke-miterlimit:10;" d="
																M266.63,97.89c0,0-0.025-0.265-0.063-0.772c-0.038-0.512-0.093-1.262-0.165-2.247
																c-0.141-1.977-0.35-4.893-0.621-8.69l0.111,0.053l-0.017,0.012l-0.413,0.285l0.319-0.389
																c1.491-1.819,3.084-4.028,4.454-6.727c1.397-2.68,2.571-5.844,3.305-9.399c0.737-3.554,0.945-7.514,0.472-11.661
																c-0.493-4.141-1.755-8.463-3.923-12.584c-2.162-4.118-5.244-8.024-9.165-11.249
																c-3.909-3.232-8.689-5.727-13.947-7.095c-5.252-1.384-10.992-1.55-16.603-0.405
																c-5.606,1.162-11.065,3.72-15.671,7.512c-2.328,1.893-4.368,4.087-6.139,6.436c-1.761,2.36-3.197,4.919-4.327,7.567
																c-2.245,5.311-3.114,11.019-2.788,16.465c0.347,5.454,1.922,10.637,4.36,15.111c2.43,4.488,5.731,8.245,9.385,11.149
																c3.662,2.904,7.685,4.968,11.68,6.205c1.997,0.625,3.983,1.058,5.921,1.338c1.941,0.261,3.833,0.369,5.649,0.345
																c3.635-0.053,6.957-0.646,9.848-1.508c2.898-0.856,5.361-1.993,7.408-3.127l0.026-0.015l0.028,0.009
																c3.524,1.091,6.233,1.929,8.071,2.498c0.916,0.285,1.612,0.503,2.089,0.651
																C266.384,97.808,266.63,97.89,266.63,97.89s-0.23-0.063-0.695-0.2c-0.474-0.14-1.168-0.346-2.079-0.616
																c-1.854-0.553-4.587-1.369-8.142-2.43l0.054-0.006c-2.048,1.15-4.516,2.305-7.425,3.178
																c-2.901,0.879-6.239,1.488-9.896,1.553c-1.827,0.03-3.73-0.073-5.684-0.33c-1.951-0.276-3.952-0.707-5.964-1.332
																c-4.026-1.237-8.082-3.306-11.778-6.226c-3.687-2.919-7.02-6.701-9.476-11.222
																c-2.464-4.508-4.058-9.734-4.413-15.235c-0.333-5.493,0.539-11.252,2.803-16.612
																c1.139-2.672,2.587-5.256,4.364-7.637c1.786-2.371,3.844-4.585,6.194-6.495c4.647-3.827,10.157-6.407,15.815-7.577
																c5.663-1.153,11.452-0.981,16.749,0.419c5.303,1.384,10.121,3.906,14.059,7.17c3.949,3.257,7.049,7.199,9.22,11.352
																c2.177,4.157,3.439,8.513,3.925,12.684c0.466,4.177,0.245,8.161-0.507,11.734c-0.75,3.574-1.942,6.751-3.358,9.438
																c-1.389,2.706-2.999,4.918-4.508,6.734l-0.094-0.104l0.017-0.012l0.103-0.07l0.008,0.124
																c0.235,3.821,0.415,6.756,0.537,8.745c0.058,0.978,0.102,1.722,0.132,2.23C266.621,97.645,266.63,97.89,266.63,97.89
																z"/>
														</g>
													</g>
												</g>
											</g>
										</g>
									</g>
								</g>
							</g>
						</g>
					</g>
				</g>
			</g>
		</g>
		<g>
			<g>
				<g>
					<g>
						<g>
							<path style="fill:#FF725E;" d="M255.813,60.473c-0.188-2.149-1.173-4.182-2.567-5.829c-1.365-1.613-3.169-2.904-5.221-3.409
								c-2.18-0.536-4.574-0.132-6.458,1.089c-1.12,0.726-2.05,1.736-2.704,2.899c-0.583-1.063-1.395-2.001-2.376-2.713
								c-1.816-1.32-4.185-1.85-6.39-1.431c-2.076,0.395-3.946,1.588-5.395,3.126c-1.479,1.57-2.571,3.548-2.874,5.684
								c-0.378,2.675,0.062,5.626,1.392,7.977c1.405,2.484,3.726,4.521,6.13,6.058c4.042,2.584,9.367,5.827,9.367,5.827
								s4.662-3.297,8.836-5.662c2.482-1.407,4.909-3.317,6.444-5.722C255.451,66.088,256.049,63.165,255.813,60.473z"/>
						</g>
					</g>
				</g>
			</g>
		</g>
	</g>
</g>
<g id="Characters">
	<g>
		<path style="fill:#263238;" d="M418.819,229.172c-6.014-6.987-15.41-11.529-17.316-20.992c-1.417-7.035,2.001-13.996,3.918-20.886
			c4.949-17.782-9.239-46.212-18.791-61.449c-9.552-15.237-14.984-21.437-28.183-32.771l-85.657,46.22
			c1.744,10.118-0.775,20.554-4.143,30.153c-3.367,9.599-7.626,18.897-9.586,28.97c-1.961,10.074-1.29,21.419,4.428,29.496
			c3.878,5.477,9.834,9.162,12.459,15.503c3.052,7.374,0.689,16.075-2.358,23.461c-3.038,7.363-6.735,14.387-11.019,20.932
			c7.674,9.363,19.959,12.235,31.312,11.604c11.353-0.631,22.417-4.211,33.721-5.555c13.395-1.593,26.912-0.027,40.381-0.222
			c17.534-0.254,34.914-3.489,52.213-6.715c2.038-0.38,4.185-0.815,5.76-2.312c2.468-2.346,2.723-6.427,2.791-10.045
			C429.05,258.551,428.747,240.708,418.819,229.172z"/>
		<g>
			<path style="fill:#263238;" d="M123.725,307.967c-6.274-0.821-12.824-1.747-17.996-5.392c-5.173-3.645-8.376-10.926-5.375-16.497
				c2.231-4.141,6.995-6.092,10.644-9.06c8.287-6.742,10.456-18.514,10.193-29.194c-0.263-10.68-2.365-21.475-0.296-31.955
				c2.594-13.144,11.379-24.08,19.885-34.431c9.97-12.132,17.374-26.451,27.357-38.571l93.453,79.678
				c0,0,16.496,90.323,4.336,98.181C253.765,328.583,123.725,307.967,123.725,307.967z"/>
			<g style="opacity:0.5;">
				<path style="fill:#FFFFFF;" d="M123.725,307.967c-6.274-0.821-12.824-1.747-17.996-5.392
					c-5.173-3.645-8.376-10.926-5.375-16.497c2.231-4.141,6.995-6.092,10.644-9.06c8.287-6.742,10.456-18.514,10.193-29.194
					c-0.263-10.68-2.365-21.475-0.296-31.955c2.594-13.144,11.379-24.08,19.885-34.431c9.97-12.132,17.374-26.451,27.357-38.571
					l93.453,79.678c0,0,16.496,90.323,4.336,98.181C253.765,328.583,123.725,307.967,123.725,307.967z"/>
			</g>
			<g>
				<g>
					<g>
						<path style="fill:#263238;" d="M179.23,131.347c17.73-13.761,38.573-19.248,60.544-14.602
							c12.396,2.622,16.92,6.355,25.266,10.788c8.346,4.432,15.281,11.035,18.867,19.775c4.259,10.379,7.267,21.598,5.975,32.74
							c-1.327,11.444-2.669,22.964-6.07,33.969c-3.401,11.007-9.022,21.589-17.698,29.169l-29.646-1.574
							c-15.87-3.066-31.955-6.204-46.476-13.304c-14.522-7.1-27.544-18.76-32.692-34.076
							C150.15,172.952,161.5,145.107,179.23,131.347z"/>
					</g>
				</g>
				<g style="opacity:0.5;">
					<g>
						<path style="fill:#FFFFFF;" d="M179.23,131.347c17.73-13.761,38.573-19.248,60.544-14.602
							c12.396,2.622,16.92,6.355,25.266,10.788c8.346,4.432,15.281,11.035,18.867,19.775c4.259,10.379,7.267,21.598,5.975,32.74
							c-1.327,11.444-2.669,22.964-6.07,33.969c-3.401,11.007-9.022,21.589-17.698,29.169l-29.646-1.574
							c-15.87-3.066-31.955-6.204-46.476-13.304c-14.522-7.1-27.544-18.76-32.692-34.076
							C150.15,172.952,161.5,145.107,179.23,131.347z"/>
					</g>
				</g>
			</g>
			<g>
				<path style="fill:#FFBF9D;" d="M176.521,218.552l15.745-73.688c1.447-5.447,6.826-8.878,12.379-7.9l41.464-6.402l9.667,3.425
					c22.328,5.192,32.113,33.345,28.128,51.464c-4.428,20.13-10.628,44.531-17.205,58.61
					c-13.227,28.309-39.227,24.969-39.227,24.969l-9.596,28.031l-9.44,23.665l-40.377-43.721L176.521,218.552z"/>
			</g>
			<g>
				<g>
					<g>
						<path style="fill:#FF9A6C;" d="M223.59,226.863c0.565-1.522,1.756-2.71,3.087-3.409c2.663-1.397,5.959-0.838,7.967,1.351
							c2.008,2.189,2.604,5.872,1.438,8.902l0,0c-1.757,1.531-4.088,2.304-6.398,1.982c-0.359-0.05-0.716-0.118-1.068-0.209
							c-1.708-0.438-3.323-1.417-4.346-2.983C223.248,230.932,222.893,228.742,223.59,226.863z"/>
					</g>
				</g>
			</g>
			<g>
				<g>
					<g>
						<path style="fill:#263238;" d="M255.598,204.567c0.486-0.52,3.507,1.672,7.77,1.625c4.258,0.013,7.367-2.205,7.834-1.687
							c0.23,0.229-0.264,1.165-1.616,2.167c-1.332,0.999-3.611,1.977-6.266,1.99c-2.655,0.008-4.898-0.95-6.189-1.938
							C255.811,205.73,255.359,204.8,255.598,204.567z"/>
					</g>
				</g>
			</g>
			<g>
				<g>
					<g>
						<path style="fill:#263238;" d="M240.708,220.353c0.047-0.238,2.72,0.054,6.998,0.711c1.077,0.192,2.127,0.269,2.508-0.393
							c0.463-0.685,0.349-1.937,0.191-3.299c-0.258-2.813-0.526-5.76-0.809-8.85c-1.043-12.566-1.48-22.78-0.974-22.817
							c0.508-0.037,1.765,10.12,2.809,22.687c0.231,3.092,0.457,6.04,0.666,8.858c0.056,1.302,0.349,2.845-0.635,4.259
							c-0.506,0.701-1.437,1.046-2.159,1.035c-0.729,0.012-1.321-0.146-1.847-0.264C243.238,221.311,240.657,220.59,240.708,220.353
							z"/>
					</g>
				</g>
			</g>
			<g>
				<g>
					<g>
						<path style="fill:#FF9A6C;" d="M227.527,269.008c0,0-20.34-4.449-36.714-22.017c0,0,3.228,24.815,33.737,30.574
							L227.527,269.008z"/>
					</g>
				</g>
			</g>
			<g>
				<g>
					<g>
						<path style="fill:#263238;" d="M227.839,219.721c0.677,0.153-0.59,4.598,2.312,8.846c2.89,4.256,7.773,5.119,7.63,5.75
							c-0.018,0.296-1.304,0.56-3.319,0.039c-1.982-0.497-4.668-1.95-6.442-4.549c-1.768-2.6-2.026-5.468-1.654-7.335
							C226.73,220.567,227.542,219.609,227.839,219.721z"/>
					</g>
				</g>
			</g>
			<g>
				<g>
					<g>
						<path style="fill:#263238;" d="M276.702,179.095c-0.975,0.802-3.921-0.768-7.674-1.516c-3.728-0.869-7.066-0.656-7.613-1.788
							c-0.233-0.543,0.447-1.402,2.006-2.043c1.538-0.641,3.969-0.947,6.541-0.393c2.57,0.558,4.65,1.836,5.776,3.055
							C276.885,177.636,277.139,178.696,276.702,179.095z"/>
					</g>
				</g>
			</g>
			<g style="opacity:0.5;">
				<g>
					<g>
						<path style="fill:#FFFFFF;" d="M276.702,179.095c-0.975,0.802-3.921-0.768-7.674-1.516c-3.728-0.869-7.066-0.656-7.613-1.788
							c-0.233-0.543,0.447-1.402,2.006-2.043c1.538-0.641,3.969-0.947,6.541-0.393c2.57,0.558,4.65,1.836,5.776,3.055
							C276.885,177.636,277.139,178.696,276.702,179.095z"/>
					</g>
				</g>
			</g>
			<g>
				<g>
					<g>
						<path style="fill:#263238;" d="M230.102,197.388c-0.258-0.664-3.876,0.248-7.816-1.381c-3.957-1.572-6.019-4.788-6.645-4.48
							c-0.298,0.127-0.188,1.179,0.695,2.613c0.866,1.422,2.617,3.178,5.077,4.178c2.462,0.995,4.899,0.94,6.465,0.503
							C229.473,198.389,230.238,197.695,230.102,197.388z"/>
					</g>
				</g>
			</g>
			<g>
				<g>
					<g>
						<path style="fill:#263238;" d="M224.546,166.774c0.583,1.14,4.017,0.955,7.866,1.858c3.878,0.783,6.934,2.383,7.924,1.586
							c0.446-0.395,0.166-1.463-1.035-2.703c-1.181-1.231-3.342-2.534-5.998-3.115c-2.656-0.577-5.152-0.292-6.724,0.341
							C224.984,165.37,224.3,166.227,224.546,166.774z"/>
					</g>
				</g>
			</g>
			<g style="opacity:0.5;">
				<g>
					<g>
						<path style="fill:#FFFFFF;" d="M224.546,166.774c0.583,1.14,4.017,0.955,7.866,1.858c3.878,0.783,6.934,2.383,7.924,1.586
							c0.446-0.395,0.166-1.463-1.035-2.703c-1.181-1.231-3.342-2.534-5.998-3.115c-2.656-0.577-5.152-0.292-6.724,0.341
							C224.984,165.37,224.3,166.227,224.546,166.774z"/>
					</g>
				</g>
			</g>
			<g>
				<g>
					<g>
						<path style="fill:#FFBF9D;" d="M185.897,196.529c0.629-2.21-0.432-8.153-2.518-9.12c-5.569-2.583-16.212-5.133-20.556,9.634
							c-5.937,20.186,15.57,21.994,15.776,21.425C178.76,218.023,183.726,204.162,185.897,196.529z"/>
					</g>
				</g>
			</g>
			<g>
				<g>
					<g>
						<path style="fill:#FF9A6C;" d="M175.195,209.452c-0.069-0.09-0.424,0.143-1.099,0.24c-0.659,0.094-1.711-0.016-2.648-0.72
							c-1.904-1.411-2.705-5.326-1.731-8.993c0.488-1.853,1.388-3.488,2.465-4.746c1.052-1.295,2.311-2.045,3.441-1.919
							c1.142,0.067,1.713,0.935,1.794,1.574c0.105,0.645-0.143,1.011-0.045,1.076c0.041,0.067,0.533-0.21,0.615-1.091
							c0.035-0.427-0.062-0.973-0.423-1.501c-0.369-0.536-1.022-0.946-1.795-1.087c-1.59-0.35-3.412,0.669-4.596,2.048
							c-1.271,1.361-2.326,3.187-2.875,5.268c-1.067,4.106-0.103,8.525,2.57,10.229c1.311,0.788,2.623,0.71,3.376,0.413
							C175.015,209.931,175.254,209.51,175.195,209.452z"/>
					</g>
				</g>
			</g>
			<g>
				<g>
					<g>
						<path style="fill:#263238;" d="M182.53,187.276l3.973,6.588c27.393-16.36,83.627-60.147,80.442-57.5
							c0,0-13.954-9.854-31.321-10.833c-17.366-0.979-50.982,0.127-54.996,19.939C176.614,165.283,182.53,187.276,182.53,187.276z"
							/>
					</g>
				</g>
			</g>
			<g style="opacity:0.5;">
				<g>
					<g>
						<path style="fill:#FFFFFF;" d="M182.53,187.276l3.973,6.588c27.393-16.36,83.627-60.147,80.442-57.5
							c0,0-13.954-9.854-31.321-10.833c-17.366-0.979-50.982,0.127-54.996,19.939C176.614,165.283,182.53,187.276,182.53,187.276z"
							/>
					</g>
				</g>
			</g>
			<g>
				<g>
					<g>
						<path style="fill:#FF9A6C;" d="M212.484,197.598c-0.397,0.063-0.07,2.483,2.029,4.424c2.084,1.957,4.52,2.112,4.556,1.712
							c0.099-0.421-1.795-1.159-3.531-2.812C213.766,199.308,212.897,197.47,212.484,197.598z"/>
					</g>
				</g>
			</g>
			<g>
				<g>
					<g>
						<path style="fill:#FF9A6C;" d="M256.82,217.639c0.007,0.415,1.565,0.728,3.48,0.698c1.916-0.029,3.464-0.39,3.458-0.805
							c-0.007-0.415-1.565-0.728-3.48-0.698C258.362,216.863,256.814,217.224,256.82,217.639z"/>
					</g>
				</g>
			</g>
			<g>
				<path style="fill:#FFFFFF;" d="M108.415,300.083c0,0,0.16-0.15,0.478-0.435c0.319-0.284,0.789-0.712,1.394-1.285
					c1.211-1.144,2.948-2.887,5.047-5.256c2.102-2.366,4.557-5.366,7.164-9.029c1.315-1.822,2.668-3.815,3.938-6.011
					c1.19-2.241,2.337-4.683,3.185-7.377c1.798-5.351,2.84-11.514,3.125-18.145c0.055-6.627-0.149-13.781,0.164-21.265
					c0.309-7.482,1.09-15.384,3.292-23.273c2.195-7.847,5.814-15.77,11.644-22.266c5.829-6.506,13.194-11.027,20.463-14.68
					c7.32-3.629,14.656-6.524,21.72-9.027c7.066-2.503,13.856-4.651,20.199-6.684c6.346-2.022,12.233-3.978,17.568-5.87
					c10.659-3.825,18.988-7.693,24.524-10.76c1.378-0.778,2.63-1.421,3.667-2.06c1.03-0.641,1.905-1.186,2.617-1.63
					c0.699-0.43,1.236-0.76,1.616-0.994c0.366-0.221,0.561-0.324,0.561-0.324s-0.175,0.132-0.531,0.368
					c-0.373,0.244-0.901,0.589-1.589,1.038c-0.706,0.456-1.573,1.015-2.594,1.674c-1.03,0.654-2.276,1.312-3.649,2.105
					c-5.514,3.126-13.839,7.055-24.497,10.929c-5.334,1.917-11.219,3.895-17.561,5.935c-6.338,2.051-13.119,4.214-20.17,6.725
					c-7.049,2.511-14.362,5.41-21.652,9.031c-7.238,3.644-14.544,8.14-20.304,14.571c-5.761,6.419-9.354,14.265-11.541,22.056
					c-2.193,7.831-2.982,15.694-3.303,23.156c-0.325,7.484-0.138,14.574-0.212,21.262c-0.306,6.669-1.374,12.862-3.207,18.245
					c-0.866,2.71-2.033,5.168-3.245,7.422c-1.297,2.216-2.661,4.201-3.991,6.02c-2.636,3.655-5.12,6.644-7.25,8.994
					c-2.127,2.353-3.89,4.076-5.127,5.198c-0.617,0.562-1.1,0.978-1.431,1.249C108.598,299.96,108.415,300.083,108.415,300.083z"/>
			</g>
		</g>
		<g>
			<g>
				<g>
					<g>
						<path style="fill:#263238;" d="M383.967,103.742c-14.18-14.675-35.636-23.364-58.262-21.504
							c-12.588,1.035-17.489,4.33-26.266,7.753c-8.776,3.421-16.407,9.158-20.968,17.4c-5.418,9.788-9.693,20.556-9.703,31.744
							c-0.009,11.493,1.088,22.737,5.028,33.532c4.941,13.537,14.232,20.722,21.946,29.242l18.795,4.432
							c16.07-1.194,32.359-2.433,47.559-7.781c15.201-5.347,29.444-15.386,36.312-29.963
							C407.95,148.345,399.523,119.842,383.967,103.742z"/>
					</g>
					<path style="fill:#FFAE8A;" d="M357.988,107.329l-39.914-11.051l-9.869,2.248c-22.482,2.523-35.297,29.013-33.465,47.244
						c2.035,20.255,5.319,44.903,10.156,59.47c9.725,29.291,38.005,29.603,38.005,29.603s5.242,15.559,8.037,23.146l56.838,22.461
						l-15.079-89.525l-3.479-74.424C368.423,110.992,363.544,107.007,357.988,107.329z"/>
					<g>
						<path style="fill:#FF9A6C;" d="M322.901,234.844c0,0,17.985-2.65,36.049-17.998c0,0-3.257,22.414-33.823,24.552
							L322.901,234.844z"/>
					</g>
					<path style="fill:#FF9A6C;" d="M336.49,193.493c0.469,3.726-2.172,7.126-5.898,7.595c-3.726,0.469-7.126-2.172-7.595-5.898
						c-0.469-3.726,2.172-7.126,5.898-7.595C332.621,187.126,336.022,189.767,336.49,193.493z"/>
					<g>
						<path style="fill:#263238;" d="M323.134,197.617c0.005-0.703,3.665-1.127,6.73-4.008c3.102-2.835,3.878-6.525,4.563-6.46
							c0.32,0.013,0.586,1.023,0.275,2.656c-0.301,1.615-1.302,3.85-3.222,5.632c-1.924,1.779-4.193,2.581-5.792,2.726
							C322.766,198.603,322.714,198.035,323.134,197.617z"/>
					</g>
					<g>
						<path style="fill:#FFAE8A;" d="M369.547,167.913c-0.363-2.24,1.356-7.948,3.512-8.657c5.755-1.893,16.481-3.17,19.048,11.815
							c3.509,20.484-20.981,19.985-21.118,19.404C370.882,190.02,370.801,175.65,369.547,167.913z"/>
					</g>
					<g>
						<path style="fill:#FF9A6C;" d="M378.558,181.821c0.078-0.081,0.4,0.189,1.049,0.362c0.635,0.167,1.679,0.181,2.678-0.402
							c2.028-1.165,3.261-4.912,2.727-8.622c-0.267-1.874-0.961-3.582-1.873-4.939c-0.883-1.391-2.031-2.272-3.154-2.278
							c-1.126-0.066-1.786,0.719-1.939,1.337c-0.177,0.621,0.024,1.008-0.078,1.06c-0.048,0.062-0.498-0.267-0.478-1.141
							c0.015-0.422,0.172-0.947,0.587-1.423c0.422-0.483,1.11-0.811,1.884-0.859c1.599-0.161,3.269,1.049,4.271,2.538
							c1.09,1.482,1.915,3.394,2.215,5.498c0.576,4.15-0.875,8.374-3.69,9.738c-1.376,0.622-2.653,0.394-3.356,0.016
							C378.68,182.311,378.493,181.87,378.558,181.821z"/>
					</g>
					<g>
						<path style="fill:#263238;" d="M373.907,159.224l-4.649,6.004c-27.411-13.312-76.179-65.99-72.273-65.658
							c0,0,14.808-8.059,31.944-7.022c17.135,1.037,49.963,5.991,51.63,25.887C382.224,138.332,373.907,159.224,373.907,159.224z"/>
					</g>
					<path style="opacity:0.5;fill:#FF9A6C;" d="M332.205,175.961c0.652,2.252,4.833,3.02,9.338,1.715
						c4.505-1.305,7.628-4.188,6.975-6.44c-0.652-2.252-4.833-3.02-9.338-1.715C334.676,170.826,331.553,173.71,332.205,175.961z"/>
					<g style="opacity:0.5;">
						<path style="fill:#FF9A6C;" d="M283.877,185.593c0.447,2.301,3.784,3.589,7.453,2.876c3.669-0.713,6.28-3.157,5.833-5.459
							c-0.447-2.302-3.784-3.589-7.453-2.876C286.041,180.847,283.429,183.291,283.877,185.593z"/>
					</g>
				</g>
				<g>
					<g>
						<g>
							<g>
								<g>
									<g>
										<g>
											<g>
												<path style="fill:#263238;" d="M300.415,170.156c-0.583-0.403-3.05,2.37-7.199,3.23
													c-4.132,0.918-7.624-0.578-7.967,0.024c-0.175,0.271,0.504,1.076,2.03,1.763c1.506,0.687,3.927,1.154,6.508,0.603
													c2.58-0.556,4.554-1.963,5.599-3.198C300.455,171.331,300.697,170.331,300.415,170.156z"/>
											</g>
										</g>
									</g>
									<g>
										<g>
											<g>
												<path style="fill:#263238;" d="M308.359,186.398c-0.493-0.659-0.439-1.908-0.346-3.269
													c0.123-2.807,0.251-5.748,0.385-8.831c0.442-12.536,0.392-22.704-0.112-22.717c-0.506-0.013-1.274,10.137-1.717,22.673
													c-0.084,3.083-0.168,6.022-0.242,8.833c0.006,1.296-0.212,2.843,0.832,4.202c0.536,0.672,1.477,0.973,2.193,0.927
													c0.725-0.022,1.304-0.206,1.823-0.348c4.142-1.16,6.672-1.998,6.609-2.231c-0.058-0.234-2.699,0.181-6.916,1.034"/>
											</g>
										</g>
									</g>
									<g>
										<g>
											<g>
												<g>
													<path style="fill:#263238;" d="M292.467,141.744c-1.228-0.264-3.114,2.465-6.088,4.837
														c-2.898,2.467-5.944,3.801-5.911,5.05c0.043,0.586,1.036,1.035,2.706,0.891c1.652-0.135,3.939-0.972,5.959-2.634
														c2.016-1.665,3.27-3.742,3.709-5.332C293.296,142.949,293.036,141.896,292.467,141.744z"/>
												</g>
											</g>
										</g>
									</g>
									<g>
										<g>
											<g>
												<path style="fill:#263238;" d="M324.234,162.428c0.282-0.65,3.843,0.395,7.818-1.074
													c3.991-1.411,6.159-4.529,6.769-4.199c0.292,0.138,0.143,1.179-0.787,2.571c-0.914,1.38-2.72,3.06-5.202,3.958
													c-2.483,0.895-4.903,0.747-6.442,0.254C324.822,163.447,324.088,162.728,324.234,162.428z"/>
											</g>
										</g>
									</g>
									<g>
										<g>
											<g>
												<g>
													<path style="fill:#263238;" d="M317.827,136.5c1.012-0.773,4.012,0.865,7.852,1.706
														c3.813,0.961,7.241,0.836,7.787,1.976c0.23,0.546-0.478,1.384-2.087,1.983c-1.587,0.598-4.084,0.841-6.715,0.223
														c-2.63-0.622-4.746-1.949-5.885-3.19C317.617,137.949,317.371,136.886,317.827,136.5z"/>
												</g>
											</g>
										</g>
									</g>
								</g>
							</g>
						</g>
					</g>
				</g>
				<path style="fill:#455A64;" d="M282.062,238.249c0,0,35.567-0.055,36.18,9.57c0,0,2.506-15.639,14.183,6.673
					c0,0,16.316,13.51,32.628,7.786c12.912-4.531,16.145-20.88,16.145-20.88l62.878,23.322l-39.018,154.586
					c0,0,26.616,42.738,19.899,48.588l-162.265,0.199C246.355,442.191,282.062,238.249,282.062,238.249z"/>
				<path style="fill:#455A64;" d="M305.526,244.794c0,0-21.386-14.833-38.796-0.157C253.055,256.165,215.414,360.4,211.892,377.3
					c-3.523,16.9-10.307,46.455,25.312,59.884c35.619,13.429,64.011,2.465,64.453-6.506c0.442-8.971-9.308-57.99-14.958-56.491
					c-5.65,1.498-14.806,2.873-14.806,2.873s36.995-59.807,39.027-72.478C312.952,291.91,319.492,256.764,305.526,244.794z"/>
				<g>
					<path style="fill:#263238;" d="M327.741,285.727c-0.036,0.005-0.145-0.551-0.313-1.559c-0.186-1.098-0.429-2.533-0.722-4.263
						c-0.626-3.596-1.594-8.545-2.928-13.949c-1.341-5.405-2.793-10.235-3.916-13.707c-0.548-1.667-1.002-3.05-1.349-4.108
						c-0.322-0.969-0.484-1.512-0.45-1.525c0.034-0.013,0.26,0.506,0.641,1.455c0.384,0.948,0.902,2.334,1.508,4.06
						c1.215,3.45,2.728,8.278,4.073,13.699c1.339,5.421,2.252,10.397,2.786,14.015c0.268,1.809,0.457,3.277,0.56,4.295
						C327.734,285.158,327.776,285.722,327.741,285.727z"/>
				</g>
				<g>
					<path style="fill:#263238;" d="M343.401,282.05c-0.034,0.011-0.199-0.391-0.467-1.128c-0.27-0.736-0.637-1.809-1.082-3.138
						c-0.894-2.655-2.063-6.343-3.53-10.348c-1.471-4.005-3.058-7.526-4.346-10.005c-0.643-1.24-1.18-2.236-1.568-2.915
						c-0.381-0.683-0.578-1.071-0.548-1.09c0.03-0.019,0.285,0.332,0.721,0.985c0.443,0.649,1.031,1.622,1.72,2.846
						c1.379,2.448,3.032,5.975,4.51,9.999c1.474,4.023,2.589,7.734,3.393,10.417c0.367,1.264,0.676,2.331,0.924,3.187
						C343.336,281.616,343.435,282.039,343.401,282.05z"/>
				</g>
				<g>
					<path style="fill:#FF9A6C;" d="M285.847,208.026c-0.034,0.011-0.18-0.333-0.414-0.964c-0.235-0.631-0.552-1.552-0.925-2.697
						c-0.747-2.288-1.7-5.476-2.622-9.032c-0.921-3.557-1.635-6.807-2.092-9.171c-0.229-1.182-0.399-2.141-0.5-2.806
						c-0.102-0.666-0.142-1.037-0.106-1.044c0.035-0.007,0.142,0.351,0.305,1.004c0.183,0.766,0.404,1.689,0.661,2.769
						c0.549,2.34,1.318,5.568,2.237,9.117c0.92,3.548,1.814,6.743,2.47,9.055c0.299,1.069,0.554,1.983,0.766,2.742
						C285.801,207.65,285.881,208.015,285.847,208.026z"/>
				</g>
			</g>
			<g>
				<path style="fill:#455A64;" d="M366.043,115.448c-0.005,0.017-0.247-0.036-0.703-0.152c-0.458-0.107-1.118-0.316-1.988-0.51
					c-1.728-0.435-4.255-0.956-7.406-1.408c-3.151-0.459-6.932-0.795-11.139-1.053c-4.207-0.265-8.843-0.453-13.703-0.858
					c-4.861-0.418-9.476-1.111-13.586-2.142c-4.107-1.034-7.706-2.373-10.551-3.854c-2.849-1.47-4.986-2.967-6.35-4.125
					c-0.71-0.546-1.184-1.061-1.536-1.372c-0.341-0.324-0.514-0.5-0.502-0.513c0.012-0.013,0.209,0.138,0.572,0.436
					c0.374,0.285,0.867,0.773,1.592,1.291c1.394,1.103,3.544,2.54,6.388,3.955c2.84,1.425,6.418,2.716,10.501,3.717
					c4.085,0.998,8.674,1.672,13.515,2.089c4.844,0.403,9.478,0.606,13.69,0.898c4.212,0.285,8.004,0.66,11.162,1.167
					c3.159,0.501,5.686,1.079,7.403,1.576c0.865,0.225,1.518,0.466,1.967,0.606C365.817,115.344,366.048,115.43,366.043,115.448z"/>
			</g>
		</g>
		<path style="fill:#FF725E;" d="M91.094,468.196c0-10.986,16.926-80.054,19.969-95.521c5.271-26.793,18.531-88.84,36.328-103.4
			c17.797-14.56,38.972-8.84,41.334-8.243c13.154,3.328,72.569,55.352,80.046,80.755c5.459,18.547,22.23,72.452-12.35,104.115
			c-1.635,1.497,10.03,17.492,11.029,22.187L91.094,468.196z"/>
		<path style="fill:#FF725E;" d="M501.481,232.092c0,0,27.874-0.392,34.379,38.238c4.123,24.483-22.919,151.757-22.919,151.757
			l17.304,46.193H404.43c0,0-7.35-116.765-5.903-131.902C399.975,321.241,468.185,223.362,501.481,232.092z"/>
		<g>
			<g>
				<g>
					<g>
						<g>
							<g>
								<path style="fill:#263238;" d="M469.051,107.928c0.684-4.176-1.255-8.668-4.763-11.035
									c-3.508-2.367-8.399-2.482-12.015-0.284c-7.722-4.782-18.784-3.171-24.821,3.615l-63.491,70.853
									c7.398,11.196,23.1,33.495,33.004,42.551c9.904,9.056,22.621,15.755,36.041,15.781c14.954,0.029,28.585-7.999,41.359-15.775
									c6.339-3.859,13.013-8.078,16.215-14.773c2.87-6.001,2.455-12.984,1.978-19.619c-0.87-12.097-1.74-24.195-2.61-36.292
									c-0.534-7.428-1.113-15.038-4.203-21.814C482.654,114.361,476.477,108.485,469.051,107.928z"/>
							</g>
						</g>
					</g>
				</g>
				<g>
					<path style="fill:#AE7461;" d="M450.668,123.566l-38.972-0.197l-8.409,4.474c-19.795,7.834-24.904,35.049-18.746,51.155
						c6.841,17.893,15.9,39.468,23.883,51.505c16.052,24.203,40.492,15.578,40.492,15.578l10.894,28.209l52.552-15.49
						l-23.247-46.464l-25.988-83.208C461.048,124.321,455.634,121.904,450.668,123.566z"/>
				</g>
				<g>
					<g>
						<g>
							<g>
								<path style="fill:#263238;" d="M414.108,193.584c-0.606-0.266-2.38,2.713-6.035,4.233c-3.629,1.571-7.096,0.815-7.304,1.428
									c-0.112,0.279,0.652,0.898,2.173,1.259c1.503,0.365,3.806,0.366,6.077-0.596c2.268-0.966,3.831-2.605,4.571-3.922
									C414.353,194.655,414.398,193.695,414.108,193.584z"/>
							</g>
						</g>
					</g>
				</g>
				<g>
					<g>
						<g>
							<g>
								<path style="fill:#263238;" d="M429.032,205.149c-0.076-0.213-2.491,0.422-6.331,1.614
									c-0.962,0.324-1.917,0.539-2.358-0.018c-0.52-0.566-0.587-1.732-0.63-3.005c-0.151-2.62-0.31-5.366-0.476-8.244
									c-0.774-11.692-1.78-21.139-2.25-21.103c-0.472,0.036-0.227,9.542,0.546,21.235c0.214,2.874,0.413,5.613,0.609,8.232
									c0.129,1.204,0.072,2.662,1.171,3.827c0.561,0.574,1.464,0.765,2.126,0.655c0.671-0.089,1.192-0.316,1.66-0.496
									C426.839,206.377,429.112,205.359,429.032,205.149z"/>
							</g>
						</g>
					</g>
				</g>
				<g>
					<g>
						<g>
							<g>
								<path style="fill:#6F4439;" d="M448.525,246.221c0,0,18.072-6.879,30.693-25.27c0,0,0.455,24.868-26.777,34.346
									L448.525,246.221z"/>
							</g>
						</g>
					</g>
				</g>
				<g>
					<g>
						<g>
							<g>
								<path style="fill:#263238;" d="M389.252,169.845c1.007,0.603,3.497-1.243,6.84-2.445c3.305-1.31,6.401-1.573,6.748-2.688
									c0.139-0.531-0.605-1.227-2.125-1.602c-1.502-0.379-3.776-0.326-6.063,0.536c-2.284,0.865-4.018,2.325-4.885,3.6
									C388.882,168.529,388.794,169.539,389.252,169.845z"/>
							</g>
						</g>
					</g>
				</g>
				<g>
					<g>
						<g>
							<g>
								<path style="fill:#263238;" d="M435.589,184.361c0.257-0.61,3.593,0.333,7.293-1.077c3.714-1.355,5.711-4.289,6.285-3.987
									c0.273,0.126,0.143,1.1-0.712,2.409c-0.841,1.298-2.512,2.884-4.821,3.747c-2.311,0.859-4.573,0.744-6.017,0.297
									C436.148,185.307,435.455,184.642,435.589,184.361z"/>
							</g>
						</g>
					</g>
				</g>
				<g>
					<g>
						<g>
							<g>
								<path style="fill:#263238;" d="M436.494,153.691c-0.378,1.128-3.558,1.429-6.97,2.786c-3.454,1.251-6.041,3.141-7.061,2.545
									c-0.464-0.303-0.354-1.322,0.578-2.626c0.915-1.293,2.722-2.788,5.081-3.686c2.361-0.895,4.692-0.975,6.224-0.609
									C435.898,152.46,436.645,153.154,436.494,153.691z"/>
							</g>
						</g>
					</g>
				</g>
				<g>
					<g>
						<g>
							<g>
								<path style="fill:#AE7461;" d="M476.099,175.736c-0.882-1.945-0.727-7.552,1.056-8.727
									c4.76-3.137,14.185-6.942,20.211,6.035c8.236,17.738-15.888,22.384-16.156,21.89
									C481.001,194.547,479.145,182.454,476.099,175.736z"/>
							</g>
						</g>
					</g>
				</g>
				<g>
					<g>
						<g>
							<g>
								<path style="fill:#6F4439;" d="M487.711,186.146c0.051-0.093,0.409,0.073,1.042,0.07c0.618-0.004,1.569-0.249,2.333-1.025
									c1.554-1.558,1.751-5.265,0.352-8.502c-0.704-1.636-1.756-3.016-2.919-4.024c-1.144-1.046-2.404-1.563-3.426-1.291
									c-1.039,0.218-1.444,1.093-1.431,1.692c-0.008,0.607,0.27,0.909,0.19,0.982c-0.029,0.068-0.519-0.12-0.716-0.918
									c-0.09-0.387-0.077-0.903,0.182-1.437c0.264-0.543,0.808-1.01,1.5-1.245c1.412-0.54,3.227,0.147,4.504,1.251
									c1.355,1.078,2.576,2.611,3.367,4.448c1.546,3.627,1.27,7.821-0.951,9.753c-1.096,0.904-2.313,1.012-3.044,0.842
									C487.943,186.561,487.664,186.206,487.711,186.146z"/>
							</g>
						</g>
					</g>
				</g>
				<g>
					<g>
						<g>
							<g>
								<path style="fill:#263238;" d="M438.858,91.614c-4.519-3.884-11.407-3.879-16.895-1.558
									c-5.488,2.321-9.901,6.56-14.179,10.708c-7.661-2.885-16.779-1.499-23.237,3.53c-6.459,5.03-10.035,13.53-9.115,21.664
									c-10.384-1.263-21.19,5.542-24.538,15.452c-3.348,9.91,1.119,21.874,10.142,27.166c-5.495,5.685-4.922,16.049,1.165,21.094
									c6.088,5.044,16.378,3.681,20.943-2.773c4.565-6.455,2.42-16.612-4.365-20.67c9.498,0.359,17.928-9.591,16.014-18.901
									c9.733,0.548,19.632-3.143,26.63-9.931c6.997-6.788,10.988-16.57,10.737-26.315l6.719-4.037
									C443.859,103.769,443.378,95.498,438.858,91.614z"/>
							</g>
						</g>
					</g>
				</g>
				<g>
					<g>
						<g>
							<g>
								<path style="fill:#263238;" d="M473.556,141.434c-1.859-4.875-2.831-10.144-5.542-14.602
									c-4.063-6.682-11.599-10.651-19.271-12.167c-7.672-1.517-15.586-0.888-23.38-0.254l-10.546,19.778
									c4.902,3.619,9.902,7.292,15.661,9.284c5.759,1.992,12.499,2.08,17.61-1.237c-0.171,6.58,5.763,12.692,12.345,12.715
									c-1.009,4.142-0.966,8.709,1.076,12.451c2.042,3.742,6.391,6.381,10.577,5.571c3.991-0.773,6.964-4.469,7.837-8.439
									c0.874-3.97-0.023-8.133-1.473-11.931C477,148.803,475.005,145.232,473.556,141.434z"/>
							</g>
						</g>
					</g>
				</g>
			</g>
			<g>
				<g>
					<path style="fill:#6F4439;" d="M447.933,208.996c-0.483-1.485-1.58-2.674-2.832-3.398c-2.503-1.448-5.691-1.041-7.705,0.983
						c-2.013,2.024-2.729,5.539-1.728,8.497l0,0c1.628,1.541,3.836,2.376,6.067,2.158c0.347-0.034,0.692-0.086,1.035-0.158
						c1.657-0.353,3.247-1.231,4.29-2.695C448.104,212.919,448.53,210.829,447.933,208.996z"/>
				</g>
				<g>
					<path style="fill:#263238;" d="M444.132,201.964c-0.656,0.12,0.387,4.442-2.566,8.41c-2.942,3.975-7.666,4.611-7.553,5.222
						c0.006,0.286,1.23,0.59,3.186,0.17c1.923-0.399,4.559-1.689,6.365-4.116c1.799-2.43,2.159-5.175,1.874-6.984
						C445.163,202.82,444.421,201.867,444.132,201.964z"/>
				</g>
			</g>
			<g>
				<g>
					<g>
						<g>
							<path style="fill:#E0E0E0;" d="M415.789,193.16c2.914,6.709,2.871,15.253-2.208,20.954c-4.927,5.53-12.96,5.792-19.031,2.043
								c-3.333-2.059-6.015-5.084-7.808-8.556c-1.523-2.949-2.693-6.485-1.775-9.805c1.609-5.817,8.683-8.771,13.798-10.666
								c2.992-1.109,6.385-2.013,9.572-1.247C412.018,186.767,414.306,189.878,415.789,193.16c0.315,0.697,1.403,0.217,1.087-0.482
								c-1.421-3.144-3.524-6.146-6.825-7.488c-2.901-1.179-6.141-0.839-9.087-0.021c-3.457,0.961-6.874,2.453-9.962,4.275
								c-2.621,1.546-5.144,3.514-6.517,6.299c-1.474,2.989-1.166,6.37-0.09,9.434c1.41,4.015,3.96,7.675,7.254,10.368
								c5.848,4.78,14.354,6.116,20.644,1.368c7.409-5.593,8.045-16.266,4.584-24.236
								C416.572,191.977,415.484,192.458,415.789,193.16z"/>
						</g>
					</g>
					<g>
						<g>
							<path style="fill:#E0E0E0;" d="M460.68,172.005c3.191,7.358,2.217,16.612-3.344,22.606c-5.474,5.9-14.505,6.9-21.497,3.225
								c-3.497-1.838-6.4-4.76-8.253-8.245c-1.608-3.025-2.669-6.643-1.481-10c1.033-2.92,3.454-5.064,5.969-6.734
								c3.133-2.081,6.649-3.604,10.122-5.018c3.299-1.343,6.983-2.749,10.613-2.407
								C456.697,165.797,459.148,168.622,460.68,172.005c0.315,0.697,1.403,0.217,1.087-0.482c-1.426-3.15-3.644-6.031-7.121-6.966
								c-3.169-0.853-6.532-0.066-9.568,0.939c-3.993,1.322-7.981,3.061-11.637,5.141c-2.989,1.7-5.988,3.83-7.698,6.896
								c-3.869,6.934,1.311,15.634,7.02,19.78c6.745,4.899,16.331,5.33,23.103,0.223c7.845-5.917,9.683-17.292,5.902-26.012
								C461.463,170.821,460.375,171.302,460.68,172.005z"/>
						</g>
					</g>
					<g>
						<g>
							<path style="fill:#E0E0E0;" d="M411.991,186.727c2.059-5.101,7.797-7.681,12.979-5.825c0.72,0.258,1.15-0.851,0.428-1.109
								c-5.792-2.074-12.213,0.799-14.517,6.507C410.594,187.01,411.704,187.438,411.991,186.727L411.991,186.727z"/>
						</g>
					</g>
				</g>
				<g>
					<g>
						<path style="fill:#E0E0E0;" d="M482.055,163.61c-0.498-0.58-2.107-0.262-2.741-0.243c-2.054,0.065-4.106,0.178-6.157,0.292
							c-4.857,0.269-9.712,0.582-14.566,0.904c-1.134,0.075-2.268,0.151-3.401,0.229c-0.765,0.053-0.583,1.229,0.176,1.176
							c7.46-0.513,14.924-1.03,22.395-1.358c0.853-0.038,1.706-0.076,2.559-0.089c0.25-0.004,0.499,0,0.748,0
							c0.435,0.001,0.331,0.15,0.066-0.159C481.631,164.943,482.555,164.193,482.055,163.61L482.055,163.61z"/>
					</g>
				</g>
				<g style="opacity:0.3;">
					<g>
						<path style="fill:#FFFFFF;" d="M400.441,190.417c-0.416-0.533-1.229-0.715-1.904-0.688c-0.675,0.027-1.919,0.494-2.553,0.729
							c-2.087,0.734-4.133,1.677-5.827,3.1c-1.694,1.422-3.02,3.369-3.371,5.553c-0.311,1.933,0.154,3.926,0.972,5.705
							c0.818,1.778,1.975,3.376,3.125,4.96c0.785,1.081,1.888,2.294,3.194,2.011c1.071-0.232,1.653-1.365,2.088-2.371
							c2.3-5.322,4.642-10.841,4.588-16.638C400.747,192.129,400.841,190.929,400.441,190.417z"/>
					</g>
				</g>
				<g style="opacity:0.3;">
					<g>
						<path style="fill:#FFFFFF;" d="M441.654,171.692c-0.416-0.533-1.229-0.715-1.904-0.688c-0.675,0.027-1.919,0.493-2.553,0.729
							c-2.087,0.734-4.133,1.677-5.827,3.1c-1.694,1.422-3.02,3.369-3.371,5.553c-0.311,1.933,0.155,3.926,0.972,5.705
							c0.818,1.778,1.975,3.376,3.125,4.96c0.785,1.081,1.888,2.294,3.194,2.011c1.071-0.232,1.653-1.365,2.088-2.371
							c2.3-5.322,4.642-10.841,4.588-16.638C441.96,173.403,442.054,172.203,441.654,171.692z"/>
					</g>
				</g>
			</g>
			<g>
				<path style="fill:#455A64;" d="M392.125,100.382c0.001,0.006-0.049,0.025-0.15,0.058c-0.122,0.037-0.268,0.081-0.45,0.136
					c-0.394,0.129-0.998,0.255-1.753,0.526c-0.381,0.132-0.804,0.278-1.266,0.438c-0.456,0.19-0.951,0.396-1.484,0.619
					c-0.531,0.232-1.077,0.533-1.674,0.825c-0.563,0.35-1.195,0.67-1.795,1.112c-2.456,1.645-5.109,4.328-6.678,8.176
					c-1.586,3.805-2.146,8.652-1.223,13.636l0.049,0.266l-0.262,0.01c-2.446,0.094-5.001,0.374-7.581,0.978
					c-2.579,0.594-5.195,1.5-7.653,2.87c-1.225,0.685-2.428,1.475-3.479,2.435c-1.048,0.977-1.928,2.151-2.719,3.391
					c-1.552,2.51-2.638,5.375-3.298,8.369c-0.507,2.475-0.758,4.998-0.469,7.427c0.285,2.43,1.084,4.746,2.19,6.829
					c2.251,4.184,5.651,7.356,8.861,10.172l0.168,0.147l-0.136,0.177c-1.754,2.287-2.79,4.954-3.26,7.554
					c-0.469,2.607-0.349,5.193,0.364,7.451c0.385,1.116,0.883,2.158,1.542,3.046c0.678,0.867,1.427,1.646,2.275,2.235
					c1.657,1.234,3.456,1.969,5.121,2.41c3.355,0.892,6.178,0.604,7.967,0.131c1.809-0.488,2.652-1.094,2.68-1.035
					c0.003,0.006-0.049,0.04-0.156,0.104c-0.128,0.073-0.285,0.163-0.482,0.275c-0.209,0.13-0.482,0.263-0.821,0.388
					c-0.333,0.141-0.72,0.299-1.181,0.413c-1.8,0.524-4.659,0.865-8.078-0.002c-1.698-0.429-3.538-1.158-5.252-2.409
					c-0.876-0.598-1.658-1.395-2.369-2.291c-0.692-0.918-1.216-1.993-1.621-3.144c-0.752-2.327-0.887-4.978-0.421-7.649
					c0.47-2.665,1.513-5.397,3.318-7.77l0.032,0.324c-3.232-2.817-6.685-6.01-9-10.289c-1.137-2.132-1.96-4.503-2.256-7.008
					c-0.299-2.507-0.042-5.076,0.474-7.597c0.672-3.049,1.776-5.962,3.369-8.532c0.812-1.271,1.718-2.477,2.809-3.491
					c1.107-1.006,2.33-1.803,3.584-2.501c2.513-1.393,5.174-2.305,7.789-2.899c2.618-0.604,5.203-0.877,7.675-0.961l-0.213,0.276
					c-0.924-5.114-0.322-10.003,1.322-13.88c1.629-3.911,4.363-6.62,6.872-8.252c0.614-0.439,1.258-0.755,1.832-1.1
					c0.607-0.286,1.163-0.581,1.703-0.805c0.542-0.213,1.044-0.411,1.507-0.594c0.469-0.149,0.897-0.286,1.284-0.409
					c0.765-0.251,1.376-0.355,1.777-0.462c0.186-0.041,0.335-0.075,0.459-0.102C392.071,100.384,392.124,100.376,392.125,100.382z"
					/>
			</g>
		</g>
		<g>
			<g>
				<g>
					<g>
						<path style="fill:#FFAE8A;" d="M103.259,354.078c0,0-5.992-7.497-3.423-10.77c2.569-3.273,2.569-3.273,2.569-3.273
							s-2.921-7.064-0.465-9.956c2.456-2.892,7.337-4.645,7.337-4.645s-0.983-4.893,1.445-8.101
							c3.504-4.629,7.424-7.368,7.424-7.368l16.736-10.467l0,0c1.717,2.878,1.689,4.827,0.2,7.829
							c-0.721,1.454-2.94,4.427-4.624,5.906c-3.029,2.659-6.727,4.684-6.727,4.684s29.898,8.402,30.881,12.293
							c0.983,3.891-3.766,6.117-4.505,6.524c-0.739,0.407-27.057-4.005-27.057-4.005s28.928,11.261,30.007,15.677
							c1.08,4.416-3.647,5.281-4.29,6.213c-0.644,0.932-7.212-0.851-7.212-0.851s3.37,10.803-6.295,9.572
							c-4.134-0.526-8.596-1.962-8.596-1.962l-12.915-5.248l-2.11,0.979c0,0,13.834,6.658,12.953,9.262
							c-0.881,2.604-2.812,4.183-9.809,1.689c-3.234-1.152-7.66-2.516-10.057-4.245c-2.004-1.445-2.918-3.958-2.316-6.355
							L103.259,354.078z"/>
					</g>
				</g>
			</g>
			<g>
				<g>
					<g>
						<g>
							<path style="fill:#FF9A6C;" d="M113.749,345.148c-0.177,0.358,6.003,3.665,14.212,6.276
								c8.203,2.638,15.153,3.532,15.217,3.137c0.083-0.438-6.656-1.99-14.751-4.595
								C120.327,347.39,113.936,344.744,113.749,345.148z"/>
						</g>
					</g>
				</g>
			</g>
			<g>
				<g>
					<g>
						<g>
							<path style="fill:#FF9A6C;" d="M112.117,328.658c-0.105,0.168,0.48,0.76,1.65,1.328c1.162,0.58,2.869,1.065,4.725,1.443
								c3.752,0.626,6.468,1.556,6.688,1.273c0.105-0.168-0.48-0.76-1.65-1.328c-1.162-0.58-2.869-1.065-4.726-1.443
								C115.054,329.305,112.337,328.374,112.117,328.658z"/>
						</g>
					</g>
				</g>
			</g>
		</g>
		<g>
			<g>
				<path style="fill:#FFBF9D;" d="M174.575,267.405c-2.353,1.372-41.488,28.907,5.449,77.162s101.03,81.811,122.948,85.828
					s144.489-21.235,144.489-21.235s-2.22-32.318-14.784-32.629c-12.564-0.312-115.204-0.345-125.25-2.787
					C286.044,368.546,200.962,252.023,174.575,267.405z"/>
			</g>
			<path style="fill:#FF725E;" d="M283.037,331.373c-25.118-14.066-76.683-74.706-104.649-71.84
				c-27.965,2.865-49.295,32.79-41.018,51.891c8.277,19.101,71.8,88.271,71.8,88.271L283.037,331.373z"/>
			<g>
				<path style="fill:#263238;" d="M283.037,331.373c0,0-0.437,0.423-1.318,1.247c-0.893,0.833-2.203,2.055-3.911,3.648
					c-3.45,3.209-8.497,7.902-14.923,13.879c-12.918,11.989-31.374,29.117-53.564,49.711l-0.164,0.152l-0.151-0.165
					c-10.574-11.565-21.997-24.365-33.875-38.189c-5.933-6.917-11.972-14.097-17.992-21.572c-3.008-3.739-6.001-7.56-8.943-11.481
					c-2.931-3.928-5.835-7.944-8.449-12.21c-0.947-1.544-1.814-3.135-2.575-4.78c-0.676-1.681-1.267-3.408-1.519-5.197
					c-0.626-3.56-0.321-7.192,0.415-10.646c1.603-6.921,5.137-13.146,9.499-18.39c8.778-10.464,21.271-17.293,33.881-18.122
					c1.585-0.126,3.148,0.085,4.693,0.262c0.762,0.156,1.522,0.311,2.279,0.465c0.762,0.139,1.482,0.418,2.222,0.619
					c1.487,0.39,2.878,1.014,4.296,1.531c1.376,0.617,2.756,1.205,4.079,1.882c5.309,2.681,10.157,5.827,14.706,9.035
					c9.087,6.449,17.007,13.165,24.177,19.336c7.151,6.198,13.518,11.92,19.155,16.889c5.634,4.973,10.533,9.203,14.647,12.527
					c4.104,3.335,7.426,5.756,9.749,7.288c1.14,0.79,2.076,1.335,2.681,1.712C282.741,331.184,283.037,331.373,283.037,331.373
					s-0.332-0.185-0.951-0.542c-0.619-0.358-1.53-0.863-2.69-1.648c-2.345-1.506-5.691-3.904-9.819-7.218
					c-4.137-3.303-9.058-7.514-14.712-12.467c-5.657-4.95-12.04-10.652-19.203-16.829c-7.181-6.149-15.108-12.844-24.185-19.262
					c-4.543-3.193-9.381-6.321-14.662-8.978c-1.315-0.672-2.686-1.253-4.052-1.864c-1.405-0.51-2.787-1.129-4.255-1.511
					c-0.73-0.198-1.445-0.474-2.194-0.609c-0.746-0.151-1.494-0.303-2.245-0.456c-1.517-0.172-3.052-0.377-4.596-0.252
					c-6.193,0.391-12.436,2.329-18.169,5.406c-5.732,3.1-10.992,7.37-15.344,12.564c-4.318,5.195-7.808,11.36-9.385,18.176
					c-0.724,3.401-1.022,6.967-0.408,10.447c0.246,1.75,0.825,3.433,1.483,5.074c0.746,1.612,1.602,3.186,2.543,4.719
					c2.597,4.238,5.494,8.247,8.419,12.168c2.936,3.915,5.925,7.732,8.929,11.469c6.012,7.471,12.044,14.651,17.97,21.569
					c11.863,13.827,23.271,26.639,33.822,38.215l-0.315-0.013c22.21-20.473,40.681-37.5,53.61-49.418
					c6.478-5.959,11.566-10.639,15.043-13.838c1.736-1.593,3.069-2.815,3.978-3.648
					C282.553,331.802,283.037,331.373,283.037,331.373z"/>
			</g>
			<g>
				<g>
					<g>
						<path style="fill:#FFBF9D;" d="M451.799,347.651c2.217,4.415,0.778,9.641-2.641,14.182c-3.418,4.54-0.399,8.99-0.399,8.99
							s16.679-4.328,24.078-7.939c7.398-3.611,21.884-12.895,27.082-12.232c5.198,0.663,7.434,4.645,2.083,7.429
							c-5.351,2.783-22.303,13.253-21.997,15.424c0.305,2.172,32.756-4.156,34.246-1.5c1.49,2.656,1.379,7.323-7.074,8.522
							c-7.983,1.132-22.835,3.961-22.835,3.961s28.533,0.404,27.52,5.107c-1.013,4.703-3.822,4.578-8.658,4.795
							c-4.834,0.216-24.308,4.098-24.308,4.098s23.62,2.345,23.008,7.065c-0.611,4.721-1.051,5.564-5.847,4.919
							c-4.797-0.644-58.193,1.375-59.798,1.304c-1.605-0.072-32.49-1.814-32.49-1.814l-5.428-27.487l29.732-1.304
							c0,0,10.025-23.771,14.65-28.314C447.346,348.318,449.582,343.237,451.799,347.651z"/>
					</g>
				</g>
			</g>
			<g>
				<path style="fill:#263238;" d="M452.917,369.561c0.07,0.111-1.806,1.298-4.427,2.002c-2.617,0.72-4.836,0.648-4.832,0.516
					c-0.008-0.156,2.147-0.316,4.695-1.018C450.905,370.376,452.845,369.422,452.917,369.561z"/>
			</g>
		</g>
		<path style="opacity:0.3;" d="M225.477,340.807c0,0,107.598,49.942,156.606,45.243c49.008-4.699,76.271-41.817,76.271-41.817
			l-5.437-19.328L225.477,340.807"/>
		<g>
			<path style="fill:#AE7461;" d="M509.894,243.729c2.023,1.65,34.96,33.556-16.674,72.232s-107.849,62.37-129.198,62.901
				c-21.348,0.531-133.612-41.665-133.612-41.665s1.274-26.913,13.214-25.333c11.94,1.58,114.76,13.516,124.635,12.704
				C389.278,322.839,487.211,225.23,509.894,243.729z"/>
			<path style="fill:#FF725E;" d="M460.509,347.151l-46.911-62.28c0,0,71.058-65.354,96.349-48.316
				c25.291,17.038,8.614,53.995,2.982,65.113C507.297,312.786,460.509,347.151,460.509,347.151z"/>
			<g>
				<path style="fill:#263238;" d="M509.947,236.499c0,0-0.174-0.083-0.499-0.264c-0.325-0.183-0.8-0.468-1.473-0.749
					c-1.319-0.599-3.388-1.285-6.157-1.52c-2.765-0.226-6.194,0.031-10.061,0.917c-3.864,0.898-8.171,2.366-12.764,4.411
					c-9.205,4.066-19.592,10.276-30.627,18.044c-11.021,7.792-22.787,17.072-34.594,27.667l0.032-0.345
					c3.389,4.498,6.956,9.232,10.58,14.042c13.185,17.522,25.605,34.029,36.309,48.255l-0.323-0.045
					c16.48-12.597,29.977-23.572,39.113-31.649c2.299-2.004,4.277-3.876,6.018-5.487c1.672-1.679,3.162-3.049,4.229-4.292
					c0.55-0.603,1.037-1.138,1.46-1.602c0.374-0.493,0.69-0.911,0.949-1.253c0.25-0.327,0.443-0.579,0.583-0.763
					c0.133-0.17,0.208-0.252,0.208-0.252s-0.054,0.095-0.177,0.272c-0.134,0.19-0.317,0.449-0.555,0.786
					c-0.252,0.349-0.561,0.776-0.925,1.28c-0.416,0.472-0.895,1.015-1.437,1.629c-1.053,1.263-2.529,2.649-4.189,4.347
					c-1.727,1.629-3.695,3.519-5.983,5.539c-9.093,8.145-22.552,19.174-39.016,31.813l-0.183,0.141l-0.14-0.186
					c-10.719-14.216-23.155-30.71-36.357-48.219c-3.623-4.811-7.188-9.545-10.576-14.045l-0.143-0.189l0.174-0.156
					c11.839-10.612,23.623-19.88,34.68-27.661c11.069-7.755,21.497-13.947,30.752-17.984c4.618-2.031,8.952-3.482,12.843-4.36
					c3.894-0.865,7.351-1.096,10.136-0.84c2.789,0.267,4.867,0.988,6.181,1.619c0.67,0.297,1.14,0.597,1.458,0.795
					C509.792,236.389,509.947,236.499,509.947,236.499z"/>
			</g>
			<g>
				<g>
					<g>
						<path style="fill:#AE7461;" d="M226.605,275.107c-3.135,3.818-2.882,9.233-0.548,14.415c2.334,5.181-1.591,8.858-1.591,8.858
							s-15.316-7.896-21.738-13.048c-6.421-5.152-18.506-17.399-23.722-17.897c-5.216-0.499-8.275,2.893-3.668,6.788
							c4.607,3.894,18.836,17.84,18.059,19.891c-0.776,2.051-31.036-11.269-33.074-9.006c-2.038,2.262-2.958,6.84,5.023,9.871
							c7.537,2.862,21.402,8.894,21.402,8.894s-27.921-5.891-27.969-1.081c-0.048,4.811,2.72,5.308,7.39,6.585
							c4.668,1.276,22.808,9.352,22.808,9.352s-23.557-2.916-23.999,1.824c-0.444,4.74-0.201,5.659,4.62,6.086
							c4.821,0.429,56.461,14.16,58.042,14.444c1.582,0.284,32.092,5.387,32.092,5.387l11.349-25.617l-28.715-7.821
							c0,0-4.543-25.396-8.054-30.845C230.801,276.738,229.739,271.289,226.605,275.107z"/>
					</g>
				</g>
			</g>
			<g>
				<path style="fill:#6F4439;" d="M228.815,299.969c-0.042,0.138-1.57-0.204-3.414-0.762c-1.844-0.559-3.305-1.123-3.263-1.261
					c0.042-0.138,1.57,0.204,3.414,0.763C227.396,299.267,228.856,299.832,228.815,299.969z"/>
			</g>
			<g>
				<path style="fill:#6F4439;" d="M204.741,300.083c0.065,0.051-0.88,1.308-2.299,3.408c-1.42,2.099-3.277,5.07-5.046,8.505
					c-1.764,3.44-3.099,6.68-3.978,9.056c-0.882,2.376-1.353,3.876-1.433,3.853c-0.035-0.01,0.046-0.396,0.222-1.086
					c0.172-0.691,0.464-1.68,0.863-2.89c0.795-2.42,2.085-5.707,3.862-9.172c1.782-3.461,3.703-6.424,5.208-8.479
					c0.751-1.029,1.385-1.842,1.847-2.384C204.446,300.351,204.712,300.06,204.741,300.083z"/>
			</g>
		</g>
		<g>
			<g>
				<path style="fill:#263238;" d="M663.408,209.422c-2.584-8.785-8.876-15.917-14.99-22.735
					c-11.4-12.714-22.8-25.428-34.199-38.142c-8.341-9.302-17.217-18.672-28.744-23.495c-16.247-6.797-31.894-8.221-41.775-6.37
					c-9.88,1.851-7.236,10-16.6,13.654l-4.719,121.125c-8.174,35.589,56.377,51.168,73.645,34.646
					c8.561-8.191,21.416-3.526,30.96-10.547c9.544-7.021,20.997-18.253,21.293-30.094c0.09-3.61-0.33-7.68,2.081-10.37
					c1.426-1.592,3.553-2.314,5.405-3.38C663.703,229.144,665.992,218.206,663.408,209.422z"/>
			</g>
			<g>
				<g>
					<g>
						<g>
							<g>
								<g>
									<path style="fill:#263238;" d="M597.136,136.967c-16.103-14.316-35.717-20.907-57.061-17.862
										c-12.042,1.718-16.615,5.005-24.893,8.717c-8.278,3.711-15.344,9.593-19.338,17.735c-4.745,9.669-8.343,20.224-7.82,30.979
										c0.539,11.046,1.087,22.167,3.641,32.928c2.554,10.76,7.26,21.257,15.086,29.074l28.498,0.389
										c15.399-1.922,31.006-3.898,45.371-9.77c14.366-5.872,27.586-16.207,33.496-30.549
										C622.33,178.682,613.24,151.282,597.136,136.967z"/>
								</g>
							</g>
						</g>
					</g>
				</g>
				<g>
					<g>
						<g>
							<g>
								<g>
									<path style="fill:#D39281;" d="M572.867,141.615l-39.309-8.786l-9.479,2.663c-21.72,3.545-32.895,29.886-30.237,47.497
										c2.953,19.565,7.2,43.388,12.73,57.244c12.483,31.276,42.114,24.923,42.114,24.923l8.475,26.167l47.338-22.501
										l-13.069-34.122l-7.211-84.724C583.182,144.665,578.249,141.034,572.867,141.615z"/>
								</g>
							</g>
						</g>
					</g>
				</g>
				<g style="opacity:0.3;">
					<path style="fill:#6F4439;" d="M518.95,217.177c0.785,3.221-2.314,6.743-6.923,7.867c-4.609,1.124-8.981-0.577-9.767-3.798
						c-0.785-3.221,2.314-6.743,6.923-7.867C513.792,212.255,518.164,213.956,518.95,217.177z"/>
				</g>
				<g style="opacity:0.3;">
					<path style="fill:#6F4439;" d="M566.615,209.013c0.785,3.221-3.255,6.973-9.024,8.379c-5.769,1.406-11.083-0.065-11.868-3.286
						c-0.785-3.221,3.255-6.973,9.024-8.379C560.516,204.32,565.83,205.791,566.615,209.013z"/>
				</g>
				<g>
					<g>
						<g>
							<g>
								<g>
									<path style="fill:#6F4439;" d="M548.966,226.518c-0.445-1.494-1.508-2.708-2.739-3.463
										c-2.461-1.509-5.655-1.184-7.718,0.785c-2.064,1.968-2.87,5.458-1.947,8.435l0,0c1.586,1.579,3.768,2.469,6.002,2.307
										c0.347-0.025,0.693-0.068,1.037-0.132c1.664-0.31,3.274-1.145,4.354-2.58C549.033,230.437,549.513,228.362,548.966,226.518
										z"/>
								</g>
							</g>
						</g>
					</g>
				</g>
				<g>
					<g>
						<g>
							<g>
								<g>
									<path style="fill:#263238;" d="M518.756,202.107c-0.532-0.43-3.114,2.053-7.174,2.571c-4.048,0.574-7.297-1.124-7.673-0.57
										c-0.188,0.248,0.405,1.073,1.823,1.848c1.398,0.773,3.695,1.403,6.221,1.064c2.525-0.344,4.531-1.55,5.629-2.661
										C518.706,203.24,519.014,202.296,518.756,202.107z"/>
								</g>
							</g>
						</g>
					</g>
				</g>
				<g>
					<g>
						<g>
							<g>
								<g>
									<path style="fill:#263238;" d="M532.985,219.186c-0.03-0.231-2.609-0.123-6.749,0.234
										c-1.044,0.115-2.055,0.121-2.377-0.537c-0.4-0.687-0.211-1.878,0.028-3.173c0.427-2.677,0.873-5.484,1.341-8.425
										c1.804-11.97,2.875-21.727,2.393-21.794c-0.484-0.067-2.338,9.581-4.142,21.552c-0.419,2.947-0.824,5.756-1.205,8.443
										c-0.137,1.244-0.516,2.703,0.336,4.121c0.44,0.704,1.309,1.094,2.002,1.129c0.698,0.058,1.274-0.055,1.786-0.135
										C530.5,219.942,533.019,219.416,532.985,219.186z"/>
								</g>
							</g>
						</g>
					</g>
				</g>
				<g>
					<g>
						<g>
							<g>
								<g>
									<path style="fill:#6F4439;" d="M548.686,265.156c0,0,13.58-1.48,30.389-17.259c0,0-0.027,19.177-27.297,26.806
										L548.686,265.156z"/>
								</g>
							</g>
						</g>
					</g>
				</g>
				<g>
					<g>
						<g>
							<g>
								<g>
									<path style="fill:#263238;" d="M545.353,219.404c-0.658,0.103,0.271,4.443-2.781,8.326
										c-3.04,3.892-7.774,4.406-7.677,5.019c-0.002,0.285,1.213,0.62,3.177,0.251c1.93-0.349,4.596-1.57,6.462-3.945
										c1.86-2.378,2.29-5.109,2.054-6.92C546.361,220.286,545.645,219.316,545.353,219.404z"/>
								</g>
							</g>
						</g>
					</g>
				</g>
				<g>
					<g>
						<g>
							<g>
								<g>
									<path style="fill:#263238;" d="M501.132,182.21c0.883,0.831,3.805-0.484,7.447-0.961c3.626-0.593,6.811-0.177,7.407-1.225
										c0.258-0.506-0.339-1.372-1.791-2.085c-1.433-0.713-3.741-1.161-6.241-0.795c-2.497,0.37-4.571,1.462-5.729,2.557
										C501.049,180.801,500.739,181.801,501.132,182.21z"/>
								</g>
							</g>
						</g>
					</g>
				</g>
				<g>
					<g>
						<g>
							<g>
								<g>
									<path style="fill:#263238;" d="M540.747,198.592c0.261-0.632,3.716,0.316,7.529-1.169c3.83-1.429,5.873-4.476,6.468-4.167
										c0.283,0.128,0.156,1.135-0.719,2.494c-0.859,1.347-2.576,2.999-4.957,3.908c-2.383,0.906-4.721,0.804-6.216,0.354
										C541.332,199.565,540.611,198.884,540.747,198.592z"/>
								</g>
							</g>
						</g>
					</g>
				</g>
				<g>
					<g>
						<g>
							<g>
								<g>
									<path style="fill:#263238;" d="M551.423,171.056c-0.631,1.055-3.909,0.658-7.654,1.276
										c-3.765,0.502-6.795,1.839-7.692,1.012c-0.403-0.407-0.066-1.412,1.164-2.523c1.21-1.104,3.364-2.214,5.945-2.6
										c2.581-0.383,4.953,0.049,6.419,0.757C551.094,169.682,551.694,170.547,551.423,171.056z"/>
								</g>
							</g>
						</g>
					</g>
				</g>
				<g>
					<g>
						<g>
							<g>
								<g>
									<path style="fill:#263238;" d="M590.831,191.224l-4.228,6.057c-25.193-17.424-76.257-62.968-73.375-60.228
										c0,0,13.997-8.546,30.695-8.372c16.698,0.173,48.828,3.385,51.405,22.62C597.906,170.537,590.831,191.224,590.831,191.224z
										"/>
								</g>
							</g>
						</g>
					</g>
				</g>
				<g>
					<g>
						<g>
							<g>
								<g>
									<path style="fill:#D39281;" d="M584.572,203.585c-0.461-2.157,0.935-7.781,2.995-8.575
										c5.5-2.117,15.858-3.88,19.075,10.544c4.395,19.717-16.323,20.072-16.483,19.513
										C590.032,224.631,586.163,211.036,584.572,203.585z"/>
								</g>
							</g>
						</g>
					</g>
				</g>
				<g>
					<g>
						<g>
							<g>
								<g>
									<path style="fill:#6F4439;" d="M591.805,215.864c0.073-0.083,0.398,0.164,1.037,0.3c0.625,0.132,1.639,0.094,2.582-0.521
										c1.914-1.229,2.932-4.928,2.235-8.503c-0.349-1.807-1.106-3.431-2.057-4.705c-0.925-1.308-2.083-2.107-3.174-2.058
										c-1.097-0.009-1.701,0.786-1.819,1.393c-0.142,0.611,0.072,0.977-0.025,1.034c-0.044,0.062-0.497-0.236-0.519-1.085
										c-0.006-0.411,0.121-0.928,0.501-1.41c0.387-0.49,1.039-0.842,1.789-0.926c1.545-0.234,3.226,0.859,4.272,2.256
										c1.13,1.386,2.024,3.202,2.417,5.23c0.76,4.002-0.446,8.173-3.116,9.634c-1.307,0.671-2.559,0.512-3.26,0.179
										C591.946,216.334,591.744,215.915,591.805,215.864z"/>
								</g>
							</g>
						</g>
					</g>
				</g>
			</g>
			<g>
				<path style="fill:#455A64;" d="M635.982,241.795c0,0,0.096-0.124,0.3-0.348c0.222-0.238,0.525-0.563,0.915-0.981
					c0.203-0.216,0.429-0.455,0.677-0.718c0.224-0.288,0.469-0.601,0.732-0.94c0.266-0.34,0.551-0.705,0.856-1.094
					c0.292-0.4,0.559-0.856,0.867-1.322c1.237-1.857,2.473-4.324,3.459-7.336c0.99-3.008,1.696-6.587,1.806-10.577
					c0.111-3.984-0.357-8.381-1.663-12.887c-0.721-2.229-1.527-4.523-2.691-6.738c-0.519-1.138-1.203-2.21-1.818-3.338
					c-0.708-1.072-1.363-2.201-2.162-3.252c-6.123-8.632-15.518-16-26.381-21.502c-10.909-5.521-22.092-8.978-32.138-12.319
					c-10.089-3.262-19.063-6.578-26.438-9.735c-7.387-3.132-13.232-5.964-17.227-8c-2-1.013-3.538-1.83-4.576-2.393
					c-0.501-0.275-0.892-0.49-1.177-0.646c-0.264-0.148-0.393-0.236-0.393-0.236s0.146,0.056,0.417,0.189
					c0.291,0.145,0.69,0.345,1.201,0.6c1.078,0.538,2.63,1.313,4.618,2.305c4.02,1.979,9.884,4.758,17.279,7.842
					c7.386,3.11,16.351,6.382,26.445,9.618c10.052,3.315,21.261,6.762,32.225,12.31c10.919,5.531,20.376,12.96,26.536,21.688
					c0.803,1.063,1.462,2.204,2.173,3.289c0.618,1.14,1.305,2.225,1.825,3.376c1.168,2.24,1.978,4.567,2.696,6.821
					c1.302,4.559,1.752,9,1.617,13.021c-0.135,4.026-0.873,7.632-1.898,10.657c-1.021,3.029-2.294,5.502-3.566,7.355
					c-0.316,0.465-0.592,0.92-0.892,1.317c-0.313,0.386-0.607,0.749-0.88,1.086c-0.272,0.334-0.524,0.644-0.755,0.928
					c-0.256,0.258-0.488,0.493-0.698,0.704c-0.406,0.404-0.723,0.718-0.954,0.948C636.102,241.697,635.982,241.795,635.982,241.795z
					"/>
			</g>
		</g>
		<path style="fill:#455A64;" d="M675.429,468.171c0-10.986-18.549-54.567-21.592-70.033
			c-5.271-26.793-15.566-111.608-32.657-126.991c-14.139-12.726-19.552-12.399-21.914-11.802
			c-13.154,3.327-74.102,55.733-81.579,81.136c-7.478,25.403,10.252,110.403,6.549,127.799L675.429,468.171z"/>
		<path style="opacity:0.3;" d="M344.034,448.921c0,0,128.01,17.826,154.974,9.4c26.964-8.426,89.807-66.41,89.807-66.41
			l-29.979-16.59l-77.102,58.985L344.034,448.921z"/>
		<g>
			<g>
				<g>
					<g>
						<path style="fill:#D39281;" d="M342.857,387.747c-2.217,4.415-0.778,9.641,2.641,14.182c3.418,4.54,0.399,8.991,0.399,8.991
							s-16.679-4.328-24.078-7.939c-7.398-3.611-21.884-12.895-27.082-12.232c-5.198,0.663-7.434,4.645-2.083,7.429
							c5.351,2.783,22.303,13.253,21.997,15.424c-0.305,2.172-32.756-4.156-34.246-1.5c-1.49,2.656-1.379,7.323,7.074,8.522
							c7.983,1.132,22.835,3.961,22.835,3.961s-28.533,0.404-27.52,5.107c1.013,4.703,3.823,4.578,8.659,4.795
							c4.834,0.216,23.556,0.51,23.556,0.51s-24.418,6.018-23.805,10.739c0.611,4.721,4.052,3.991,8.849,3.346
							c1.793-0.241,10.642-2.448,20.518-1.932c16.546,0.864,39.097,3.347,40.102,3.303c1.605-0.072,32.841,1.269,32.841,1.269
							l2.803-29.149l-29.732-1.304c0,0-10.025-23.771-14.65-28.314C347.31,388.413,345.073,383.333,342.857,387.747z"/>
					</g>
				</g>
			</g>
			<path style="fill:#D39281;" d="M600.816,279.73c2.412,0.997,43.15,22.053,4.859,73.973
				c-38.292,51.92-85.289,90.814-105.578,97.477c-20.289,6.663-139.951-1.377-139.951-1.377s-6.539-26.137,5.35-28.067
				c11.889-1.929,113.784-20.142,123.005-23.767C508.129,390.254,573.763,268.555,600.816,279.73z"/>
			<path style="fill:#455A64;" d="M522.1,343.185c0.61-0.184,43.736-68.45,71.34-73.769c27.604-5.319,45.515,12.357,43.096,33.033
				c-2.419,20.676-42.231,94.598-42.231,94.598L522.1,343.185z"/>
			<g>
				<path style="fill:#263238;" d="M522.1,343.185c0,0,0.125,0.082,0.352,0.247c0.236,0.172,0.57,0.416,1.008,0.735
					c0.893,0.658,2.198,1.62,3.897,2.873c3.408,2.525,8.387,6.214,14.721,10.908c12.649,9.401,30.7,22.819,52.362,38.919
					l-0.332,0.074c6.213-11.661,12.815-24.483,19.526-38.212c3.357-6.864,6.718-13.966,10.022-21.283
					c3.274-7.328,6.53-14.866,9.311-22.713c1.044-2.941,1.97-5.906,2.675-8.894c0.173-0.748,0.349-1.494,0.45-2.249l0.18-1.128
					l0.069-1.139l0.13-2.274c0.057-0.757-0.069-1.511-0.094-2.264c-0.091-3.028-0.911-5.947-1.87-8.75
					c-0.286-0.684-0.623-1.347-0.93-2.019c-0.323-0.665-0.591-1.358-1.022-1.961c-0.796-1.239-1.52-2.523-2.515-3.603
					c-3.687-4.541-8.658-7.826-13.977-9.664c-5.335-1.846-10.955-2.346-16.319-1.921c-1.352,0-2.669,0.291-3.989,0.455
					c-0.659,0.095-1.316,0.19-1.97,0.284c-0.653,0.101-1.276,0.31-1.912,0.459l-0.947,0.243l-0.916,0.34
					c-0.609,0.229-1.215,0.457-1.819,0.685c-1.154,0.584-2.349,1.069-3.447,1.724c-4.463,2.494-8.422,5.544-12.074,8.664
					c-7.291,6.282-13.369,12.918-18.746,19.085c-10.689,12.416-18.459,23.187-23.764,30.651c-2.643,3.742-4.646,6.682-5.996,8.681
					c-0.668,0.993-1.178,1.753-1.531,2.278C522.284,342.933,522.1,343.185,522.1,343.185s0.157-0.281,0.485-0.8
					c0.342-0.531,0.839-1.301,1.488-2.307c1.322-2.018,3.299-4.978,5.917-8.74c5.257-7.503,12.985-18.313,23.651-30.775
					c5.366-6.191,11.437-12.852,18.743-19.172c3.66-3.139,7.632-6.212,12.134-8.738c1.107-0.662,2.317-1.157,3.484-1.748
					c0.614-0.232,1.229-0.465,1.847-0.699l0.93-0.346l0.966-0.25c0.648-0.153,1.289-0.367,1.948-0.47
					c0.66-0.096,1.323-0.193,1.987-0.289c1.332-0.168,2.66-0.461,4.026-0.464c5.416-0.435,11.102,0.063,16.515,1.93
					c5.397,1.859,10.456,5.192,14.211,9.813c1.012,1.099,1.752,2.405,2.562,3.667c0.438,0.613,0.712,1.319,1.042,1.995
					c0.314,0.684,0.656,1.359,0.947,2.056c0.98,2.852,1.812,5.824,1.908,8.903c0.026,0.766,0.153,1.533,0.096,2.302l-0.131,2.311
					l-0.07,1.158l-0.183,1.149c-0.103,0.772-0.281,1.526-0.456,2.282c-0.712,3.021-1.644,5.999-2.691,8.951
					c-2.79,7.874-6.052,15.417-9.332,22.752c-3.309,7.323-6.677,14.427-10.041,21.292c-6.725,13.731-13.345,26.546-19.582,38.204
					l-0.123,0.23l-0.209-0.157c-21.651-16.209-39.694-29.717-52.337-39.182c-6.287-4.722-11.229-8.433-14.612-10.973
					c-1.671-1.261-2.954-2.229-3.831-2.891c-0.422-0.322-0.745-0.569-0.974-0.742C522.201,343.272,522.1,343.185,522.1,343.185z"/>
			</g>
			<g>
				<path style="fill:#6F4439;" d="M318.478,425.151c-0.014,0.143-2.434,0.028-5.405-0.256c-2.972-0.284-5.37-0.631-5.356-0.774
					c0.014-0.143,2.433-0.029,5.405,0.256C316.094,424.661,318.491,425.007,318.478,425.151z"/>
			</g>
			<g>
				<path style="fill:#6F4439;" d="M351.857,412.461c-0.045,0.141-1.965-0.367-4.322-1c-1.027-0.276-1.98-0.533-3.018-0.812
					c-0.171-0.047-0.344-0.095-0.52-0.144l-0.213-0.061l-0.092-0.027l-0.037-0.011l-0.003-0.001l-0.001,0l0.002,0
					c0.018-0.038-0.025,0.09,0.11-0.101c-0.085-0.18-0.066-0.072-0.076-0.106l-0.001,0l0.001,0l0.007,0.003l0.017,0.006
					c0.21,0.07,0.331,0.121,0.324,0.157c-0.006,0.035-0.132,0.053-0.363,0.042l-0.025-0.002l-0.014-0.002l-0.002,0l-0.003-0.001
					c-0.011-0.034,0.008,0.074-0.077-0.107c0.135-0.192,0.092-0.064,0.11-0.102h0.003h0.002l0.008,0l0.053,0.002l0.101,0.005
					l0.224,0.019c0.184,0.024,0.364,0.047,0.542,0.07c0.799,0.12,1.89,0.351,3.077,0.67
					C350.044,411.595,351.901,412.328,351.857,412.461z"/>
			</g>
		</g>
		<g>
			<g>
				<g>
					<g>
						<path style="fill:#FFAE8A;" d="M649.996,308.427c0,0,4.771-8.328,1.73-11.168c-3.04-2.84-3.04-2.84-3.04-2.84
							s1.803-7.428-1.068-9.909c-2.871-2.481-7.963-3.464-7.963-3.464s0.221-4.986-2.671-7.784
							c-4.173-4.037-8.467-6.142-8.467-6.142l-18.144-7.776l0,0c-1.255,3.107-0.929,5.029,1.004,7.767
							c0.936,1.326,3.584,3.924,5.475,5.127c3.401,2.163,7.366,3.596,7.366,3.596s-28.255,12.889-28.63,16.884
							c-0.374,3.996,4.659,5.467,5.453,5.755c0.793,0.288,26.123-8.108,26.123-8.108s-26.858,15.565-27.247,20.095
							c-0.39,4.529,4.414,4.659,5.193,5.481c0.779,0.822,6.996-1.948,6.996-1.948s-1.673,11.192,7.689,8.493
							c4.004-1.154,8.193-3.258,8.193-3.258l11.957-7.167l2.235,0.643c0,0-12.648,8.702-11.379,11.14
							c1.27,2.438,3.42,3.702,9.952,0.165c3.019-1.635,7.184-3.661,9.287-5.737c1.758-1.736,2.276-4.359,1.314-6.635
							L649.996,308.427z"/>
					</g>
				</g>
			</g>
			<g>
				<g>
					<g>
						<g>
							<path style="fill:#FF9A6C;" d="M638.26,301.213c0.23,0.327-5.37,4.542-13.081,8.382c-7.702,3.866-14.432,5.814-14.556,5.434
								c-0.149-0.42,6.272-2.988,13.872-6.804C632.104,304.438,638.013,300.842,638.26,301.213z"/>
						</g>
					</g>
				</g>
			</g>
			<g>
				<g>
					<g>
						<g>
							<path style="fill:#FF9A6C;" d="M637.343,284.667c0.129,0.15-0.358,0.825-1.427,1.565c-1.059,0.751-2.672,1.493-4.447,2.151
								c-3.611,1.194-6.153,2.53-6.414,2.284c-0.129-0.15,0.358-0.825,1.427-1.565c1.059-0.751,2.672-1.493,4.448-2.151
								C634.54,285.757,637.082,284.421,637.343,284.667z"/>
						</g>
					</g>
				</g>
			</g>
		</g>
	</g>
</g>
</svg>
