<?xml version="1.0" encoding="utf-8"?>
<!-- Generator: Adobe Illustrator 27.5.0, SVG Export Plug-In . SVG Version: 6.00 Build 0)  -->
<svg version="1.1" xmlns="http://www.w3.org/2000/svg" xmlns:xlink="http://www.w3.org/1999/xlink" x="0px" y="0px"
	 viewBox="0 0 500 500" style="enable-background:new 0 0 500 500;" xml:space="preserve">
<g id="Background_Simple">
	<g>
		<path style="fill:#92E3A9;" d="M394.792,129.278c-2.733-6.406-5.617-12.71-8.954-18.7C347.327,41.445,237.16,6.28,178.28,80.471
			c-14.033,17.682-19.622,38.735-29.452,58.841c-22.357,45.728-61.44,73.779-87.112,116.26
			c-19.9,32.931-19.396,74.415-10.784,109.179c9.358,37.777,27.722,63.832,58.141,83.182c34.102,21.693,72.006,14.358,110.385,5.418
			c17.26-4.021,35.053-8.128,52.468-7.258c21.803,1.089,43.088,7.319,64.643,10.037c22.417,2.827,45.804,2.994,67.907-5.131
			c70.781-26.02,92.571-139.371,66.957-203.247c-9.066-22.61-25.423-39.795-40.539-57.271
			C414.575,171.616,404.904,152.978,394.792,129.278z"/>
		<path style="opacity:0.8;fill:#FFFFFF;" d="M394.792,129.278c-2.733-6.406-5.617-12.71-8.954-18.7
			C347.327,41.445,237.16,6.28,178.28,80.471c-14.033,17.682-19.622,38.735-29.452,58.841
			c-22.357,45.728-61.44,73.779-87.112,116.26c-19.9,32.931-19.396,74.415-10.784,109.179c9.358,37.777,27.722,63.832,58.141,83.182
			c34.102,21.693,72.006,14.358,110.385,5.418c17.26-4.021,35.053-8.128,52.468-7.258c21.803,1.089,43.088,7.319,64.643,10.037
			c22.417,2.827,45.804,2.994,67.907-5.131c70.781-26.02,92.571-139.371,66.957-203.247c-9.066-22.61-25.423-39.795-40.539-57.271
			C414.575,171.616,404.904,152.978,394.792,129.278z"/>
	</g>
</g>
<g id="Clouds">
	<g>
		<path style="fill:#FFFFFF;stroke:#ADADAD;stroke-linecap:round;stroke-linejoin:round;stroke-miterlimit:10;" d="M324.323,69.601
			c0,0-3.392-17.524-18.654-23.742s-24.873,1.696-27.134,7.349c-2.261,5.653-2.826,15.263-11.306,11.306
			c-8.479-3.957-11.871-8.479-22.612-3.957c-10.74,4.522-7.349,14.132-15.263,15.828c-7.914,1.696-5.087-2.826-13.567-1.696
			c-8.479,1.131-7.914,6.218-10.175,9.045c-2.261,2.826-2.261,0.565-10.175,1.696s-13.002,6.218-13.002,6.218H357.11
			c0,0,4.522-9.045-7.349-15.828C337.89,69.036,327.715,76.384,324.323,69.601z"/>
		<path style="fill:#FFFFFF;stroke:#ADADAD;stroke-linecap:round;stroke-linejoin:round;stroke-miterlimit:10;" d="M107.671,158.539
			c0,0-2.198-11.354-12.086-15.382c-9.888-4.029-16.115,1.099-17.58,4.761s-1.831,9.889-7.325,7.325s-7.691-5.494-14.65-2.564
			s-4.761,9.156-9.889,10.255s-3.296-1.831-8.79-1.099c-5.494,0.732-5.127,4.029-6.592,5.86c-1.465,1.831-1.465,0.366-6.592,1.099
			c-5.127,0.732-8.424,4.029-8.424,4.029h113.169c0,0,2.93-5.86-4.761-10.255S109.869,162.934,107.671,158.539z"/>
		<path style="fill:#FFFFFF;stroke:#ADADAD;stroke-linecap:round;stroke-linejoin:round;stroke-miterlimit:10;" d="M246.321,304.283
			c0,0-2.197-11.354-12.086-15.382c-9.888-4.029-16.115,1.099-17.58,4.761c-1.465,3.662-1.831,9.888-7.325,7.325
			c-5.494-2.564-7.691-5.494-14.65-2.564s-4.761,9.156-9.889,10.255c-5.127,1.099-3.296-1.831-8.79-1.099
			c-5.494,0.732-5.127,4.029-6.592,5.86c-1.465,1.831-1.465,0.366-6.592,1.099c-5.127,0.732-8.424,4.029-8.424,4.029h113.169
			c0,0,2.93-5.86-4.761-10.255C255.111,303.916,248.519,308.678,246.321,304.283z"/>
		<path style="fill:#FFFFFF;stroke:#ADADAD;stroke-linecap:round;stroke-linejoin:round;stroke-miterlimit:10;" d="M436.83,202.303
			c0,0-1.26-6.511-6.931-8.821c-5.671-2.31-9.241,0.63-10.081,2.73c-0.84,2.1-1.05,5.671-4.201,4.2c-3.15-1.47-4.41-3.15-8.401-1.47
			c-3.99,1.68-2.73,5.251-5.671,5.881c-2.94,0.63-1.89-1.05-5.041-0.63c-3.15,0.42-2.94,2.31-3.78,3.36
			c-0.84,1.05-0.84,0.21-3.781,0.63c-2.94,0.42-4.83,2.31-4.83,2.31h64.897c0,0,1.68-3.36-2.73-5.881
			C441.87,202.093,438.09,204.824,436.83,202.303z"/>
	</g>
</g>
<g id="Sea">
	<g>
		<path style="fill:#92E3A9;" d="M466.566,360.655c0,0-6.449,10.318-43.852,7.094c-37.403-3.224-62.661-16.621-92.272-19.274
			c-29.611-2.652-55.406,3.152-81.202,0.572c-25.795-2.579-32.244-5.804-50.946-5.804c-18.702,0-52.236,11.608-52.236,11.608
			s36.758,4.514,29.665,5.159c-7.094,0.645-34.179,0.645-61.264,1.29c-27.085,0.645-36.758-1.29-49.011,0.645
			c-12.253,1.935-37.403,9.028-37.403,9.028s4.514,12.253,30.954,11.608c26.44-0.645,28.375-4.514,40.628-7.739
			c12.253-3.224,29.507-2.698,29.507-2.698s-36.601,20.755-55.302,21.4c-18.702,0.645-21.926,1.29-21.926,1.29
			s-0.645,11.608,13.543,16.767c14.188,5.159,27.73,16.122,52.881,12.253s48.366,3.224,63.199,3.869
			c14.832,0.645,21.281,1.29,30.31-1.29c9.028-2.579,11.608,0-9.028,2.58c-20.636,2.579-26.599,7.956-39.338,4.514
			c-12.739-3.442-23.861-3.869-33.534-1.935c-9.673,1.935-23.861,7.094-23.861,7.094s8.383,8.383,39.983,11.608
			c31.599,3.225,32.889,9.028,59.329-0.645c26.44-9.673,19.346-12.898,52.236-10.318c32.889,2.579,73.517,16.767,101.892,17.412
			c28.375,0.645,47.721-14.188,47.721-14.188s-21.281,4.514-61.909-2.579s-40.628-7.094-40.628-7.094s41.918-9.028,58.04-9.673
			c16.122-0.645,44.497-2.579,54.815-5.804c10.318-3.224,22.571-15.477,22.571-15.477s-16.122,3.224-31.599,0
			c-15.477-3.224-35.469-8.383-35.469-8.383s30.954-5.159,45.142-6.449C432.387,385.805,474.95,390.319,466.566,360.655z"/>
		<g>
			<path style="fill:none;stroke:#263238;stroke-linecap:round;stroke-linejoin:round;stroke-miterlimit:10;" d="M187.678,373.451
				c0,0-39.758-10.108-63.343-4.717s-30.998,13.477-49.866,14.825c-18.868,1.348-33.693-2.022-39.084-1.348"/>
			<path style="fill:none;stroke:#263238;stroke-linecap:round;stroke-linejoin:round;stroke-miterlimit:10;" d="M465.983,354.583
				c0,0-28.607,8.472-71.43,1.348s-69.408-13.477-95.015-11.456c-25.607,2.022-48.067,5.872-67.498,2.262
				c-19.431-3.61-40.994-10.349-63.906-3.61c-22.911,6.739-20.89,8.086-55.931,10.782c-35.041,2.695-40.432-2.695-59.3,0.674
				c-18.868,3.369-24.259,7.413-24.259,7.413"/>
			<path style="fill:none;stroke:#263238;stroke-linecap:round;stroke-linejoin:round;stroke-miterlimit:10;" d="M350.079,431.403
				c0,0,18.798-2.47,22.876-3.594c4.079-1.124,24.294-3.819,33.729-2.471c9.434,1.348,33.019,2.022,41.106,0"/>
			<path style="fill:none;stroke:#263238;stroke-linecap:round;stroke-linejoin:round;stroke-miterlimit:10;" d="M329.863,422.643
				c0,0-19.542,4.043-46.497,0.674c-26.955-3.369-41.106-2.695-54.583,3.369c-13.477,6.065-15.499,7.413-37.736,6.065
				c-22.238-1.348-23.585-7.413-37.736-2.022"/>
			<path style="fill:none;stroke:#263238;stroke-linecap:round;stroke-linejoin:round;stroke-miterlimit:10;" d="M463.288,386.254
				c0,0-20.216-2.022-35.041,3.369c-14.825,5.391-34.035,1.404-34.035,1.404"/>
		</g>
	</g>
</g>
<g id="Sun">
	<circle style="fill:#92E3A9;" cx="107.954" cy="77.864" r="34.316"/>
</g>
<g id="Sail">
	<g>
		<path style="fill:#C2C2C2;stroke:#263238;stroke-linecap:round;stroke-linejoin:round;stroke-miterlimit:10;" d="M303.5,88.247
			l-0.754,282.357c0,0,0.754,1.865,6.087,0.798l2.666-283.156C311.499,88.247,306.699,85.581,303.5,88.247z"/>
		<path style="fill:#C2C2C2;stroke:#263238;stroke-linecap:round;stroke-linejoin:round;stroke-miterlimit:10;" d="M397.057,87.331
			l-178.206,23.346c0,0-2.059,0.877-1.493,4.319l1.342,2.477l178.932-22.622c0,0,3.354,0.349,3.472-4.047
			C401.222,86.408,397.057,87.331,397.057,87.331z"/>
		<path style="fill:#FFFFFF;stroke:#263238;stroke-linecap:round;stroke-linejoin:round;stroke-miterlimit:10;" d="M234.596,107.943
			c0,0-4.918-0.797-5.981,0c-1.063,0.798-1.861,3.987-2.126,6.645c-0.266,2.658,0.93,3.455,1.994,3.588
			c1.063,0.133,1.861-2.658,4.12-5.183C234.862,110.469,236.988,108.608,234.596,107.943z"/>
		<path style="fill:#FFFFFF;stroke:#263238;stroke-linecap:round;stroke-linejoin:round;stroke-miterlimit:10;" d="M233.497,108.68
			c0,0-1.938,1.292-6.135,9.364c-4.198,8.073-12.593,12.593-26.802,47.145s-14.854,72.978-7.75,99.134
			c7.104,26.156,46.176,54.895,61.03,65.228c14.854,10.333,47.208,23.235,51.536,21.951c4.328-1.284,3.682-0.316,4.973-3.545
			c1.292-3.229,36.166-77.822,41.979-102.686c5.812-24.864,6.135-79.436,14.531-111.727c8.396-32.291,19.698-44.885,19.698-44.885
			s-19.052,1.292-23.895,2.583c-4.844,1.292-15.5,11.948-34.229,21.312c-18.729,9.364-28.416,14.208-48.437,6.781
			c-20.021-7.427-32.614-12.271-32.614-12.271S238.987,106.743,233.497,108.68z"/>
		<path style="fill:none;stroke:#263238;stroke-linecap:round;stroke-linejoin:round;stroke-miterlimit:10;" d="M334.457,121.333
			c5.402-6.152,8.811-11.019,9.476-11.684"/>
		<path style="fill:none;stroke:#263238;stroke-linecap:round;stroke-linejoin:round;stroke-miterlimit:10;" d="M252.549,112.878
			c0,0,15.177,6.781,23.25,18.729c8.073,11.948,22.281,19.698,38.749,8.073c6.659-4.7,12.526-10.298,17.238-15.385"/>
		<path style="fill:none;stroke:#263238;stroke-linecap:round;stroke-linejoin:round;stroke-miterlimit:10;" d="M366.214,93.503
			c0,0-11.302,10.333-21.635,20.989"/>
		<path style="fill:none;stroke:#263238;stroke-linecap:round;stroke-linejoin:round;stroke-miterlimit:10;" d="M238.664,108.357
			c0,0,10.01,6.135,15.177,16.468"/>
		<path style="fill:none;stroke:#263238;stroke-linecap:round;stroke-linejoin:round;stroke-miterlimit:10;" d="M376.87,93.503
			c0,0-11.302,12.917-14.531,29.385"/>
		
			<line style="fill:none;stroke:#263238;stroke-linecap:round;stroke-linejoin:round;stroke-miterlimit:10;" x1="362.016" y1="127.409" x2="360.724" y2="136.45"/>
		<path style="fill:#FFFFFF;stroke:#263238;stroke-linecap:round;stroke-linejoin:round;stroke-miterlimit:10;" d="M384.375,88.394
			c0,0-3.465,1.04-3.465,4.851c0,3.812,1.04,5.891,3.465,6.237c2.426,0.346,6.238-3.812,6.238-3.812l-4.505,0.693
			c0,0-1.529-6.476,2.536-8.081C388.645,88.284,387.808,87.008,384.375,88.394z"/>
	</g>
</g>
<g id="Logs">
	<g>
		<g>
			<path style="fill:#C2C2C2;stroke:#263238;stroke-linecap:round;stroke-linejoin:round;stroke-miterlimit:10;" d="
				M101.216,380.677c0,0,14.92-2.266,23.607-4.721c8.688-2.455,43.815-8.121,46.837-8.688c3.022-0.567,40.879-9.074,42.767-9.452
				c1.889-0.378,4.344,0.944,6.043,3.777c1.7,2.833,1.511,6.232,1.322,8.121c-0.189,1.889-1.511,2.833-2.077,3.211
				c-0.566,0.378-15.109,3.777-27.384,8.876c-12.276,5.099-44.656,8.885-55.987,12.662c-11.332,3.777-27.384,11.52-27.384,11.52
				L101.216,380.677z"/>
			<path style="fill:#FFFFFF;stroke:#263238;stroke-linecap:round;stroke-linejoin:round;stroke-miterlimit:10;" d="
				M115.191,397.297c0,7.077-7.307,10.071-14.221,10.071c-6.914,0-12.519-5.737-12.519-12.814c0-7.077,5.85-13.877,12.765-13.877
				S115.191,390.22,115.191,397.297z"/>
			<path style="fill:none;stroke:#263238;stroke-miterlimit:10;" d="M100.083,385.399c0,0-5.477,3.211-6.232,7.365
				c-0.755,4.155,0.378,7.177,3.211,8.121c2.833,0.944,8.876,2.644,10.954-1.7C110.092,394.842,103.86,384.077,100.083,385.399z"/>
			<path style="fill:none;stroke:#263238;stroke-miterlimit:10;" d="M103.815,393.033c0,0-2.571-3.084-4.477-2.374
				c-1.906,0.71-4.432,3.673-2.765,5.035c1.668,1.362,4.28,2.747,5.817,1.65C103.927,396.248,105.672,394.4,103.815,393.033z"/>
			<path style="fill:#FFFFFF;stroke:#263238;stroke-linecap:round;stroke-linejoin:round;stroke-miterlimit:10;" d="
				M114.058,391.253c0,0,4.344-1.7,8.121-3.022c3.777-1.322,12.842-3.399,12.842-3.399l14.164-3.4"/>
			
				<line style="fill:#FFFFFF;stroke:#263238;stroke-linecap:round;stroke-linejoin:round;stroke-miterlimit:10;" x1="123.312" y1="390.876" x2="141.631" y2="385.777"/>
			
				<line style="fill:#FFFFFF;stroke:#263238;stroke-linecap:round;stroke-linejoin:round;stroke-miterlimit:10;" x1="217.26" y1="367.826" x2="204.796" y2="371.981"/>
			
				<line style="fill:#FFFFFF;stroke:#263238;stroke-linecap:round;stroke-linejoin:round;stroke-miterlimit:10;" x1="219.904" y1="364.238" x2="211.405" y2="366.882"/>
			
				<line style="fill:#FFFFFF;stroke:#263238;stroke-linecap:round;stroke-linejoin:round;stroke-miterlimit:10;" x1="110.47" y1="382.944" x2="116.513" y2="381.244"/>
		</g>
		<path style="fill:#263238;stroke:#263238;stroke-linecap:round;stroke-linejoin:round;stroke-miterlimit:10;" d="M206.818,375.043
			c0,0,1.301-7.761-1.176-10.342c-2.477-2.582-7.76-3.447-7.76-3.447s0-1.077,3.057-1.508c3.057-0.431,7.29,2.155,8.23,5.602
			s0.941,7.972,0.235,9.48C208.7,376.336,207.053,376.12,206.818,375.043z"/>
		<path style="fill:#263238;stroke:#263238;stroke-linecap:round;stroke-linejoin:round;stroke-miterlimit:10;" d="M139.385,394.577
			c0,0,1.697-11.053-1.534-14.73c-3.232-3.677-10.127-4.91-10.127-4.91s0-1.534,3.989-2.148c3.989-0.614,9.513,3.069,10.741,7.979
			c1.227,4.91,1.227,11.355,0.307,13.503C141.84,396.419,139.692,396.112,139.385,394.577z"/>
		<g>
			<path style="fill:#C2C2C2;stroke:#263238;stroke-linecap:round;stroke-linejoin:round;stroke-miterlimit:10;" d="
				M121.473,383.308c0,0,14.92-2.266,23.607-4.721c8.687-2.455,59.185-9.402,62.207-9.969c3.022-0.567,30.784-8.876,32.673-9.254
				c1.889-0.378,4.344,0.944,6.043,3.777c1.7,2.833,1.511,6.232,1.322,8.121c-0.189,1.889-1.511,2.833-2.077,3.211
				c-0.567,0.378-15.109,3.777-27.384,8.876c-12.276,5.099-49.931,9.969-61.262,13.746c-11.331,3.777-27.384,11.52-27.384,11.52
				L121.473,383.308z"/>
			<path style="fill:#FFFFFF;stroke:#263238;stroke-linecap:round;stroke-linejoin:round;stroke-miterlimit:10;" d="
				M135.448,399.928c0,7.077-7.307,10.071-14.221,10.071s-12.519-5.737-12.519-12.814c0-7.077,5.85-13.877,12.765-13.877
				S135.448,392.851,135.448,399.928z"/>
			<path style="fill:none;stroke:#263238;stroke-miterlimit:10;" d="M120.34,388.03c0,0-5.477,3.211-6.232,7.366
				c-0.756,4.155,0.378,7.177,3.211,8.121c2.833,0.944,8.876,2.644,10.954-1.7C130.349,397.473,124.117,386.708,120.34,388.03z"/>
			<path style="fill:none;stroke:#263238;stroke-miterlimit:10;" d="M124.072,395.664c0,0-2.571-3.084-4.477-2.374
				c-1.906,0.71-4.432,3.673-2.765,5.035c1.668,1.362,4.28,2.747,5.817,1.65C124.184,398.878,125.929,397.031,124.072,395.664z"/>
			<path style="fill:#FFFFFF;stroke:#263238;stroke-linecap:round;stroke-linejoin:round;stroke-miterlimit:10;" d="
				M134.315,393.884c0,0,4.344-1.7,8.121-3.022c3.777-1.322,12.842-3.399,12.842-3.399l14.164-3.4"/>
			
				<line style="fill:#FFFFFF;stroke:#263238;stroke-linecap:round;stroke-linejoin:round;stroke-miterlimit:10;" x1="143.569" y1="393.507" x2="161.888" y2="388.407"/>
			
				<line style="fill:#FFFFFF;stroke:#263238;stroke-linecap:round;stroke-linejoin:round;stroke-miterlimit:10;" x1="242.792" y1="369.373" x2="230.327" y2="373.528"/>
			
				<line style="fill:#FFFFFF;stroke:#263238;stroke-linecap:round;stroke-linejoin:round;stroke-miterlimit:10;" x1="245.436" y1="365.785" x2="236.937" y2="368.429"/>
			
				<line style="fill:#FFFFFF;stroke:#263238;stroke-linecap:round;stroke-linejoin:round;stroke-miterlimit:10;" x1="130.727" y1="385.574" x2="136.77" y2="383.875"/>
		</g>
		<path style="fill:#263238;stroke:#263238;stroke-linecap:round;stroke-linejoin:round;stroke-miterlimit:10;" d="M234.017,378.453
			c0,0,1.301-8.378-1.176-11.165c-2.477-2.787-7.76-3.722-7.76-3.722s0-1.163,3.057-1.628c3.057-0.465,7.29,2.326,8.231,6.048
			c0.941,3.722,0.941,8.606,0.235,10.234C235.899,379.849,234.253,379.616,234.017,378.453z"/>
		<path style="fill:#263238;stroke:#263238;stroke-linecap:round;stroke-linejoin:round;stroke-miterlimit:10;" d="M159.333,397.646
			c0,0,1.697-11.053-1.534-14.73c-3.232-3.677-10.127-4.91-10.127-4.91s0-1.534,3.989-2.148c3.99-0.614,9.513,3.069,10.741,7.979
			c1.227,4.91,1.227,11.354,0.307,13.503C161.788,399.487,159.639,399.181,159.333,397.646z"/>
		<g>
			<path style="fill:#C2C2C2;stroke:#263238;stroke-linecap:round;stroke-linejoin:round;stroke-miterlimit:10;" d="
				M149.296,385.511c0,0,14.92-2.266,23.607-4.721c8.687-2.455,68.612-10.354,71.633-10.92c3.022-0.566,30.784-8.876,32.672-9.254
				c1.889-0.378,4.344,0.944,6.043,3.777c1.7,2.833,1.511,6.232,1.322,8.121c-0.189,1.889-1.511,2.833-2.077,3.211
				c-0.567,0.378-39.905,6.01-52.181,11.109c-12.276,5.099-34.561,8.688-45.892,12.465c-11.332,3.777-27.384,11.52-27.384,11.52
				L149.296,385.511z"/>
			<path style="fill:#FFFFFF;stroke:#263238;stroke-linecap:round;stroke-linejoin:round;stroke-miterlimit:10;" d="
				M163.271,402.131c0,7.077-7.307,10.071-14.221,10.071c-6.914,0-12.519-5.737-12.519-12.814c0-7.077,5.851-13.877,12.765-13.877
				C156.21,385.511,163.271,395.054,163.271,402.131z"/>
			<path style="fill:none;stroke:#263238;stroke-miterlimit:10;" d="M147.404,408.983c0,0,7.367-1.526,9.64-5.765
				c2.272-4.239,1.995-7.924-0.935-9.961c-2.929-2.038-9.285-6.043-13.137-2.072C139.119,395.157,142.625,409.068,147.404,408.983z"
				/>
			<path style="fill:none;stroke:#263238;stroke-miterlimit:10;" d="M150.276,403.582c0,0,4.36-1.789,4.133-4.109
				c-0.227-2.32-2.862-6.065-4.954-4.693c-2.091,1.372-4.502,3.769-3.714,5.814C146.53,402.639,148.121,405.159,150.276,403.582z"/>
			<path style="fill:#FFFFFF;stroke:#263238;stroke-linecap:round;stroke-linejoin:round;stroke-miterlimit:10;" d="
				M162.138,396.087c0,0,4.344-1.7,8.121-3.022c3.777-1.322,12.842-3.399,12.842-3.399l14.164-3.399"/>
			
				<line style="fill:#FFFFFF;stroke:#263238;stroke-linecap:round;stroke-linejoin:round;stroke-miterlimit:10;" x1="171.392" y1="395.71" x2="189.711" y2="390.611"/>
			
				<line style="fill:#FFFFFF;stroke:#263238;stroke-linecap:round;stroke-linejoin:round;stroke-miterlimit:10;" x1="280.042" y1="370.625" x2="267.577" y2="374.78"/>
			
				<line style="fill:#FFFFFF;stroke:#263238;stroke-linecap:round;stroke-linejoin:round;stroke-miterlimit:10;" x1="282.685" y1="367.037" x2="274.187" y2="369.681"/>
			
				<line style="fill:#FFFFFF;stroke:#263238;stroke-linecap:round;stroke-linejoin:round;stroke-miterlimit:10;" x1="158.55" y1="387.778" x2="164.593" y2="386.078"/>
		</g>
		<path style="fill:#263238;stroke:#263238;stroke-linecap:round;stroke-linejoin:round;stroke-miterlimit:10;" d="M268.174,379.719
			c0,0,1.301-8.378-1.176-11.165s-7.76-3.722-7.76-3.722s0-1.163,3.057-1.628c3.057-0.465,7.29,2.326,8.23,6.048
			c0.941,3.722,0.941,8.606,0.235,10.234S268.41,380.882,268.174,379.719z"/>
		<path style="fill:#263238;stroke:#263238;stroke-linecap:round;stroke-linejoin:round;stroke-miterlimit:10;" d="M183.883,400.715
			c0,0,1.697-11.053-1.534-14.73c-3.232-3.677-10.127-4.91-10.127-4.91s0-1.534,3.989-2.148c3.989-0.614,9.513,3.069,10.741,7.979
			c1.227,4.91,1.227,11.354,0.307,13.503C186.338,402.556,184.19,402.249,183.883,400.715z"/>
		<g>
			<path style="fill:#C2C2C2;stroke:#263238;stroke-linecap:round;stroke-linejoin:round;stroke-miterlimit:10;" d="
				M176.547,388.378c0,0,14.92-2.266,23.607-4.721c8.688-2.455,59.816-12.538,62.838-13.104c3.022-0.566,30.784-8.876,32.672-9.254
				c1.889-0.378,4.344,0.944,6.044,3.777c1.7,2.833,1.511,6.232,1.322,8.121c-0.189,1.889-1.511,2.833-2.078,3.211
				c-0.566,0.378-15.109,3.777-27.384,8.876c-12.276,5.099-50.562,13.104-61.893,16.881c-11.332,3.777-27.384,11.52-27.384,11.52
				L176.547,388.378z"/>
			<path style="fill:#FFFFFF;stroke:#263238;stroke-linecap:round;stroke-linejoin:round;stroke-miterlimit:10;" d="
				M190.523,404.997c0,7.077-7.307,10.071-14.221,10.071c-6.914,0-12.519-5.737-12.519-12.814c0-7.077,5.851-13.877,12.765-13.877
				C183.462,388.378,190.523,397.921,190.523,404.997z"/>
			<path style="fill:none;stroke:#263238;stroke-miterlimit:10;" d="M175.414,393.099c0,0-5.477,3.211-6.232,7.365
				c-0.755,4.155,0.378,7.177,3.211,8.121c2.833,0.944,8.876,2.644,10.954-1.7C185.424,402.542,179.191,391.777,175.414,393.099z"/>
			<path style="fill:none;stroke:#263238;stroke-miterlimit:10;" d="M174.47,398.387c0,0-3.022,2.644-2.266,4.533
				c0.755,1.889,3.777,4.344,5.099,2.644s2.644-4.344,1.511-5.855C177.68,398.198,175.792,396.499,174.47,398.387z"/>
			<path style="fill:#FFFFFF;stroke:#263238;stroke-linecap:round;stroke-linejoin:round;stroke-miterlimit:10;" d="M189.39,398.954
				c0,0,4.344-1.7,8.121-3.022c3.777-1.322,12.842-3.399,12.842-3.399l14.164-3.4"/>
			
				<line style="fill:#FFFFFF;stroke:#263238;stroke-linecap:round;stroke-linejoin:round;stroke-miterlimit:10;" x1="198.644" y1="398.576" x2="216.963" y2="393.477"/>
			
				<line style="fill:#FFFFFF;stroke:#263238;stroke-linecap:round;stroke-linejoin:round;stroke-miterlimit:10;" x1="298.498" y1="371.308" x2="286.033" y2="375.462"/>
			
				<line style="fill:#FFFFFF;stroke:#263238;stroke-linecap:round;stroke-linejoin:round;stroke-miterlimit:10;" x1="301.142" y1="367.719" x2="292.643" y2="370.363"/>
			
				<line style="fill:#FFFFFF;stroke:#263238;stroke-linecap:round;stroke-linejoin:round;stroke-miterlimit:10;" x1="185.801" y1="390.644" x2="191.845" y2="388.944"/>
		</g>
		<path style="fill:#263238;stroke:#263238;stroke-linecap:round;stroke-linejoin:round;stroke-miterlimit:10;" d="M290.313,380.035
			c0,0,1.301-8.378-1.176-11.165c-2.476-2.787-7.76-3.722-7.76-3.722s0-1.163,3.057-1.628c3.057-0.465,7.29,2.326,8.23,6.048
			c0.941,3.722,0.941,8.606,0.235,10.234C292.194,381.43,290.548,381.198,290.313,380.035z"/>
		<path style="fill:#263238;stroke:#263238;stroke-linecap:round;stroke-linejoin:round;stroke-miterlimit:10;" d="M210.581,402.863
			c0,0,1.698-11.053-1.534-14.73c-3.232-3.677-10.127-4.91-10.127-4.91s0-1.534,3.99-2.148c3.989-0.614,9.513,3.069,10.741,7.979
			c1.228,4.91,1.228,11.354,0.307,13.503C213.036,404.704,210.888,404.397,210.581,402.863z"/>
		<g>
			<path style="fill:#C2C2C2;stroke:#263238;stroke-linecap:round;stroke-linejoin:round;stroke-miterlimit:10;" d="M203.909,390.35
				c0,0,14.92-2.266,23.607-4.721c8.687-2.455,43.815-8.121,46.837-8.688c3.022-0.567,46.313-12.381,48.202-12.759
				c1.889-0.378,4.344,0.944,6.043,3.777c1.7,2.833,1.511,6.232,1.322,8.121c-0.189,1.889-1.511,2.833-2.077,3.211
				c-0.567,0.378-15.109,3.777-27.384,8.876c-12.276,5.099-50.09,12.192-61.422,15.969c-11.332,3.777-27.384,11.52-27.384,11.52
				L203.909,390.35z"/>
			<path style="fill:#FFFFFF;stroke:#263238;stroke-linecap:round;stroke-linejoin:round;stroke-miterlimit:10;" d="M217.885,406.97
				c0,7.077-7.307,10.071-14.221,10.071c-6.914,0-12.519-5.737-12.519-12.814c0-7.077,5.851-13.877,12.765-13.877
				C210.824,390.35,217.885,399.893,217.885,406.97z"/>
			<path style="fill:none;stroke:#263238;stroke-miterlimit:10;" d="M202.018,413.823c0,0,7.367-1.526,9.639-5.765
				c2.272-4.239,1.995-7.924-0.935-9.961c-2.929-2.038-9.285-6.043-13.138-2.072C193.733,399.996,197.239,413.907,202.018,413.823z"
				/>
			<path style="fill:none;stroke:#263238;stroke-miterlimit:10;" d="M204.89,408.421c0,0,4.36-1.789,4.133-4.109
				c-0.228-2.32-2.862-6.065-4.954-4.693c-2.091,1.372-4.502,3.769-3.714,5.814C201.144,407.478,202.735,409.998,204.89,408.421z"/>
			<path style="fill:#FFFFFF;stroke:#263238;stroke-linecap:round;stroke-linejoin:round;stroke-miterlimit:10;" d="
				M216.752,400.927c0,0,4.344-1.7,8.121-3.022c3.777-1.322,12.842-3.399,12.842-3.399l14.164-3.399"/>
			
				<line style="fill:#FFFFFF;stroke:#263238;stroke-linecap:round;stroke-linejoin:round;stroke-miterlimit:10;" x1="226.006" y1="400.549" x2="244.325" y2="395.45"/>
			
				<line style="fill:#FFFFFF;stroke:#263238;stroke-linecap:round;stroke-linejoin:round;stroke-miterlimit:10;" x1="325.388" y1="374.192" x2="312.923" y2="378.347"/>
			
				<line style="fill:#FFFFFF;stroke:#263238;stroke-linecap:round;stroke-linejoin:round;stroke-miterlimit:10;" x1="328.032" y1="370.604" x2="319.534" y2="373.248"/>
			
				<line style="fill:#FFFFFF;stroke:#263238;stroke-linecap:round;stroke-linejoin:round;stroke-miterlimit:10;" x1="213.163" y1="392.617" x2="219.207" y2="390.917"/>
		</g>
		<path style="fill:#263238;stroke:#263238;stroke-linecap:round;stroke-linejoin:round;stroke-miterlimit:10;" d="M317.196,382.565
			c0,0,1.301-8.378-1.176-11.165c-2.477-2.787-7.76-3.722-7.76-3.722s0-1.163,3.057-1.628c3.057-0.465,7.29,2.326,8.23,6.048
			c0.941,3.722,0.941,8.606,0.235,10.234C319.077,383.961,317.431,383.728,317.196,382.565z"/>
		<path style="fill:#263238;stroke:#263238;stroke-linecap:round;stroke-linejoin:round;stroke-miterlimit:10;" d="M234.872,405.742
			c0,0,1.698-11.053-1.534-14.73c-3.232-3.677-10.127-4.91-10.127-4.91s0-1.534,3.989-2.148c3.989-0.614,9.513,3.069,10.741,7.979
			c1.228,4.91,1.228,11.355,0.307,13.503C237.327,407.584,235.179,407.277,234.872,405.742z"/>
		<g>
			<path style="fill:#C2C2C2;stroke:#263238;stroke-linecap:round;stroke-linejoin:round;stroke-miterlimit:10;" d="
				M231.792,392.424c0,0,14.92-2.266,23.607-4.721c8.687-2.455,43.815-8.121,46.837-8.687c3.022-0.567,43.962-11.747,45.851-12.125
				c1.889-0.378,4.344,0.944,6.043,3.777c1.7,2.833,1.511,6.232,1.322,8.121c-0.189,1.889-1.511,2.833-2.077,3.211
				c-0.567,0.378-28.287,6.648-40.563,11.747c-12.276,5.099-34.561,8.687-45.892,12.465c-11.332,3.777-27.384,11.52-27.384,11.52
				L231.792,392.424z"/>
			<path style="fill:#FFFFFF;stroke:#263238;stroke-linecap:round;stroke-linejoin:round;stroke-miterlimit:10;" d="
				M245.768,409.044c0,7.077-7.307,10.071-14.221,10.071c-6.914,0-12.519-5.737-12.519-12.814c0-7.077,5.85-13.877,12.765-13.877
				C238.706,392.424,245.768,401.967,245.768,409.044z"/>
			<path style="fill:none;stroke:#263238;stroke-miterlimit:10;" d="M229.901,415.896c0,0,7.368-1.526,9.639-5.765
				c2.272-4.239,1.995-7.924-0.935-9.961c-2.929-2.038-9.285-6.043-13.138-2.072C221.616,402.07,225.122,415.981,229.901,415.896z"
				/>
			<path style="fill:none;stroke:#263238;stroke-miterlimit:10;" d="M232.773,410.495c0,0,4.36-1.789,4.133-4.109
				c-0.227-2.32-2.862-6.065-4.954-4.693c-2.091,1.372-4.502,3.769-3.714,5.814S230.618,412.072,232.773,410.495z"/>
			<path style="fill:#FFFFFF;stroke:#263238;stroke-linecap:round;stroke-linejoin:round;stroke-miterlimit:10;" d="M244.635,403
				c0,0,4.344-1.7,8.121-3.022c3.777-1.322,12.842-3.399,12.842-3.399l14.164-3.399"/>
			
				<line style="fill:#FFFFFF;stroke:#263238;stroke-linecap:round;stroke-linejoin:round;stroke-miterlimit:10;" x1="253.889" y1="402.623" x2="272.208" y2="397.524"/>
			
				<line style="fill:#FFFFFF;stroke:#263238;stroke-linecap:round;stroke-linejoin:round;stroke-miterlimit:10;" x1="350.92" y1="376.9" x2="338.455" y2="381.055"/>
			
				<line style="fill:#FFFFFF;stroke:#263238;stroke-linecap:round;stroke-linejoin:round;stroke-miterlimit:10;" x1="353.564" y1="373.312" x2="345.065" y2="375.956"/>
			
				<line style="fill:#FFFFFF;stroke:#263238;stroke-linecap:round;stroke-linejoin:round;stroke-miterlimit:10;" x1="241.046" y1="394.691" x2="247.09" y2="392.991"/>
		</g>
		<path style="fill:#263238;stroke:#263238;stroke-linecap:round;stroke-linejoin:round;stroke-miterlimit:10;" d="M344.711,384.463
			c0,0,1.301-8.378-1.176-11.165c-2.477-2.787-7.76-3.722-7.76-3.722s0-1.163,3.057-1.628c3.057-0.465,7.29,2.326,8.23,6.048
			c0.941,3.722,0.941,8.606,0.235,10.234C346.593,385.858,344.947,385.626,344.711,384.463z"/>
		<path style="fill:#263238;stroke:#263238;stroke-linecap:round;stroke-linejoin:round;stroke-miterlimit:10;" d="M262.184,408.198
			c0,0,1.698-11.053-1.534-14.73c-3.232-3.677-10.127-4.91-10.127-4.91s0-1.534,3.99-2.148c3.989-0.614,9.513,3.069,10.741,7.979
			s1.228,11.354,0.307,13.503C264.639,410.039,262.491,409.732,262.184,408.198z"/>
		<g>
			<path style="fill:#C2C2C2;stroke:#263238;stroke-linecap:round;stroke-linejoin:round;stroke-miterlimit:10;" d="M260.39,394.866
				c0,0,14.92-2.266,23.607-4.721c8.688-2.455,43.815-8.121,46.837-8.688c3.022-0.567,45.152-12.254,47.04-12.632
				c1.889-0.378,4.344,0.944,6.043,3.777c1.7,2.833,1.511,6.232,1.322,8.121c-0.189,1.888-1.511,2.833-2.077,3.21
				c-0.567,0.378-29.477,7.155-41.752,12.254c-12.276,5.099-34.561,8.688-45.892,12.465c-11.331,3.777-27.384,11.52-27.384,11.52
				L260.39,394.866z"/>
			<path style="fill:#FFFFFF;stroke:#263238;stroke-linecap:round;stroke-linejoin:round;stroke-miterlimit:10;" d="
				M274.365,411.485c0,7.077-7.307,10.071-14.221,10.071c-6.914,0-12.519-5.737-12.519-12.814c0-7.077,5.851-13.877,12.765-13.877
				S274.365,404.408,274.365,411.485z"/>
			<path style="fill:none;stroke:#263238;stroke-miterlimit:10;" d="M259.257,399.587c0,0-5.477,3.211-6.232,7.365
				c-0.755,4.155,0.378,7.177,3.211,8.121c2.833,0.944,8.876,2.644,10.954-1.7C269.266,409.03,263.034,398.265,259.257,399.587z"/>
			<path style="fill:none;stroke:#263238;stroke-miterlimit:10;" d="M258.313,404.875c0,0-3.022,2.644-2.266,4.533
				c0.755,1.889,3.777,4.344,5.099,2.644c1.322-1.7,2.644-4.344,1.511-5.855C261.523,404.686,259.634,402.987,258.313,404.875z"/>
			<path style="fill:#FFFFFF;stroke:#263238;stroke-linecap:round;stroke-linejoin:round;stroke-miterlimit:10;" d="
				M273.232,405.442c0,0,4.344-1.7,8.121-3.022c3.777-1.322,12.842-3.399,12.842-3.399l14.164-3.4"/>
			
				<line style="fill:#FFFFFF;stroke:#263238;stroke-linecap:round;stroke-linejoin:round;stroke-miterlimit:10;" x1="282.486" y1="405.064" x2="300.805" y2="399.965"/>
			
				<line style="fill:#FFFFFF;stroke:#263238;stroke-linecap:round;stroke-linejoin:round;stroke-miterlimit:10;" x1="380.707" y1="378.835" x2="368.242" y2="382.99"/>
			
				<line style="fill:#FFFFFF;stroke:#263238;stroke-linecap:round;stroke-linejoin:round;stroke-miterlimit:10;" x1="383.351" y1="375.246" x2="374.853" y2="377.89"/>
			
				<line style="fill:#FFFFFF;stroke:#263238;stroke-linecap:round;stroke-linejoin:round;stroke-miterlimit:10;" x1="269.644" y1="397.132" x2="275.687" y2="395.432"/>
		</g>
		<path style="fill:#263238;stroke:#263238;stroke-linecap:round;stroke-linejoin:round;stroke-miterlimit:10;" d="M373.492,386.993
			c0,0,1.301-8.378-1.176-11.165c-2.477-2.787-7.76-3.722-7.76-3.722s0-1.163,3.057-1.628c3.057-0.465,7.29,2.326,8.23,6.048
			c0.941,3.722,0.941,8.606,0.235,10.234C375.373,388.388,373.727,388.156,373.492,386.993z"/>
		<path style="fill:#263238;stroke:#263238;stroke-linecap:round;stroke-linejoin:round;stroke-miterlimit:10;" d="M285.814,412.187
			c0,0,1.698-11.053-1.534-14.73c-3.232-3.677-10.127-4.91-10.127-4.91s0-1.534,3.989-2.148c3.99-0.614,9.513,3.069,10.741,7.979
			c1.228,4.91,1.228,11.355,0.307,13.503C288.269,414.028,286.121,413.721,285.814,412.187z"/>
		<g>
			<path style="fill:#C2C2C2;stroke:#263238;stroke-linecap:round;stroke-linejoin:round;stroke-miterlimit:10;" d="
				M287.774,396.943c0,0,14.92-2.266,23.607-4.721c8.688-2.455,43.815-8.121,46.837-8.688c3.022-0.566,40.393-10.64,42.282-11.018
				c1.889-0.378,4.344,0.944,6.044,3.777c1.7,2.833,1.511,6.232,1.322,8.121c-0.189,1.889-1.511,2.833-2.078,3.211
				c-0.566,0.378-24.718,5.541-36.994,10.64c-12.276,5.099-34.561,8.687-45.892,12.465c-11.331,3.777-27.384,11.52-27.384,11.52
				L287.774,396.943z"/>
			<path style="fill:#FFFFFF;stroke:#263238;stroke-linecap:round;stroke-linejoin:round;stroke-miterlimit:10;" d="M301.75,413.563
				c0,7.077-7.307,10.071-14.221,10.071c-6.914,0-12.519-5.737-12.519-12.814c0-7.077,5.85-13.877,12.765-13.877
				S301.75,406.486,301.75,413.563z"/>
			<path style="fill:none;stroke:#263238;stroke-miterlimit:10;" d="M286.641,401.665c0,0-5.477,3.211-6.232,7.365
				c-0.755,4.155,0.378,7.177,3.211,8.121c2.833,0.944,8.876,2.644,10.954-1.7C296.651,411.108,290.418,400.343,286.641,401.665z"/>
			<path style="fill:none;stroke:#263238;stroke-miterlimit:10;" d="M285.697,406.953c0,0-3.022,2.644-2.266,4.533
				c0.755,1.889,3.777,4.344,5.099,2.644c1.322-1.7,2.644-4.344,1.511-5.855C288.907,406.764,287.019,405.064,285.697,406.953z"/>
			<path style="fill:#FFFFFF;stroke:#263238;stroke-linecap:round;stroke-linejoin:round;stroke-miterlimit:10;" d="
				M300.617,407.519c0,0,4.344-1.7,8.121-3.022c3.777-1.322,12.842-3.4,12.842-3.4l14.164-3.399"/>
			
				<line style="fill:#FFFFFF;stroke:#263238;stroke-linecap:round;stroke-linejoin:round;stroke-miterlimit:10;" x1="309.871" y1="407.142" x2="328.19" y2="402.042"/>
			
				<line style="fill:#FFFFFF;stroke:#263238;stroke-linecap:round;stroke-linejoin:round;stroke-miterlimit:10;" x1="403.333" y1="382.526" x2="390.868" y2="386.681"/>
			
				<line style="fill:#FFFFFF;stroke:#263238;stroke-linecap:round;stroke-linejoin:round;stroke-miterlimit:10;" x1="405.977" y1="378.938" x2="397.478" y2="381.582"/>
			
				<line style="fill:#FFFFFF;stroke:#263238;stroke-linecap:round;stroke-linejoin:round;stroke-miterlimit:10;" x1="297.028" y1="399.209" x2="303.072" y2="397.51"/>
		</g>
		<path style="fill:#263238;stroke:#263238;stroke-linecap:round;stroke-linejoin:round;stroke-miterlimit:10;" d="M313.126,414.028
			c0,0,1.697-11.053-1.534-14.73c-3.232-3.677-10.127-4.91-10.127-4.91s0-1.534,3.989-2.148c3.989-0.614,9.513,3.069,10.741,7.979
			c1.228,4.91,1.228,11.354,0.307,13.503C315.581,415.869,313.433,415.563,313.126,414.028z"/>
		<path style="fill:#263238;stroke:#263238;stroke-linecap:round;stroke-linejoin:round;stroke-miterlimit:10;" d="M394.212,391.027
			c0,0,1.301-8.378-1.176-11.165c-2.477-2.787-7.76-3.722-7.76-3.722s0-1.163,3.057-1.628c3.057-0.465,7.29,2.326,8.23,6.048
			c0.941,3.722,0.941,8.606,0.235,10.234C396.093,392.423,394.447,392.19,394.212,391.027z"/>
	</g>
</g>
<g id="Character">
	<g>
		<path style="fill:#FFFFFF;stroke:#263238;stroke-linecap:round;stroke-linejoin:round;stroke-miterlimit:10;" d="M346.217,284.61
			l11.179,14.295c0,0-1.466,3.299-4.398,3.849c-2.932,0.55-8.797-2.199-10.446-7.331
			C340.902,290.291,344.201,285.893,346.217,284.61z"/>
		<path style="fill:#263238;stroke:#263238;stroke-linecap:round;stroke-linejoin:round;stroke-miterlimit:10;" d="M251.649,293.436
			c0,0-0.254,4.325-0.763,5.851c-0.509,1.526-1.272,3.562-1.272,3.562s1.018-0.509,2.035,0.763c1.018,1.272,2.132-3.271,3.816-2.798
			c1.684,0.473,4.834-0.509,4.834-0.509l1.018-11.448L251.649,293.436z"/>
		<path style="fill:#FFFFFF;stroke:#263238;stroke-linecap:round;stroke-linejoin:round;stroke-miterlimit:10;" d="M256.783,277.646
			l-8.43,4.032c0,0-4.215,8.797-5.498,11.179c-1.283,2.383-3.299,4.948-3.299,4.948s2.016,1.1,8.247-0.183
			c6.231-1.283,13.745-4.582,13.745-4.582S262.281,280.761,256.783,277.646z"/>
		<g>
			<path style="fill:#263238;stroke:#263238;stroke-linecap:round;stroke-linejoin:round;stroke-miterlimit:10;" d="
				M270.344,349.853l-8.43,5.132c0,0-4.032,0.916-20.526-14.661c-16.494-15.578-18.327-1.1-18.143,6.414
				c0.183,7.514,40.135,35.187,49.665,38.119c9.53,2.932,37.203-5.498,48.016-8.43c10.813-2.932,12.462-12.462,11.179-14.478
				c-1.283-2.016,7.697-2.749-4.582-2.016c-12.279,0.733-25.291,2.749-39.219-3.482
				C274.376,350.219,270.344,349.853,270.344,349.853z"/>
			
				<line style="fill:none;stroke:#B5B5B5;stroke-linecap:round;stroke-linejoin:round;stroke-miterlimit:10;" x1="271.937" y1="366.331" x2="275.451" y2="370.598"/>
			
				<line style="fill:none;stroke:#B5B5B5;stroke-linecap:round;stroke-linejoin:round;stroke-miterlimit:10;" x1="264.602" y1="357.424" x2="269.709" y2="363.625"/>
		</g>
		<g>
			<path style="fill:#92E3A9;stroke:#263238;stroke-linecap:round;stroke-linejoin:round;stroke-miterlimit:10;" d="
				M302.049,265.733c0,0-16.677-1.833-18.51-1.833s-7.331,2.749-8.613,3.299c-1.283,0.55-19.426,10.996-19.426,10.996
				s2.199,1.283,2.383,6.964c0.183,5.681-0.367,13.928-0.733,16.128c-0.366,2.199-1.283,8.614-1.283,8.614s4.032-3.299,5.131-3.665
				c1.1-0.367,0.733-1.833,3.299-3.116c2.566-1.283,2.749-0.55,2.383-3.116c-0.366-2.566,1.649-4.215,1.649-4.215
				s1.283,0.55,2.199-0.183c0.916-0.733,7.697-2.932,7.697-2.932s-2.016,21.992-1.283,29.506c0.733,7.514-2.016,12.645-2.932,16.127
				c-0.916,3.482-0.916,3.482-0.916,3.482s-3.116-0.55-4.032,2.932c-0.916,3.482-1.466,6.781-1.466,6.781
				s12.462,11.362,24.924,12.829c12.462,1.466,34.454-0.733,36.836-2.199c2.383-1.466,1.649-8.43,1.649-10.446
				c0-2.016-0.366-13.562-0.366-14.661s6.781-22.725,6.781-22.725l4.765,10.996c0,0,22.359-10.996,22.908-11.362
				c0.55-0.367,1.833-0.733,1.833-0.733s-3.116-8.98-4.398-10.813c-1.283-1.833-5.132-5.132-5.498-6.598
				c-0.367-1.466-0.916-2.749-0.916-2.749s-0.733,2.199-1.833,3.665s-1.283,1.833-2.199,2.016c-0.916,0.183-2.932,0-2.932,0
				l-4.032-2.932l-0.367-3.665l0.55-2.016c0,0,0.183-1.833,1.283-2.566s1.1-0.733,1.1-0.733l1.1-2.016l-1.1-3.665
				c0,0-4.765-0.55-7.147-1.649c-2.383-1.1-8.064-2.749-8.064-2.749s-6.414-3.299-7.514-3.849
				C323.858,272.331,302.049,265.733,302.049,265.733z"/>
			<g>
				<polyline style="fill:none;stroke:#263238;stroke-linecap:round;stroke-linejoin:round;stroke-miterlimit:10;" points="
					277.858,275.63 278.225,292.673 273.643,277.646 				"/>
				<path style="fill:none;stroke:#263238;stroke-linecap:round;stroke-linejoin:round;stroke-miterlimit:10;" d="M296.333,289.685
					c0.819,1.353,1.799,2.667,2.967,3.905"/>
				<path style="fill:none;stroke:#263238;stroke-linecap:round;stroke-linejoin:round;stroke-miterlimit:10;" d="M292.703,268.849
					c0,0-1.611,8.702,1.828,17.222"/>
				<path style="fill:none;stroke:#263238;stroke-linecap:round;stroke-linejoin:round;stroke-miterlimit:10;" d="M333.754,281.861
					c0,0-6.048,3.665-8.247,4.582"/>
			</g>
			<path style="fill:none;stroke:#263238;stroke-linecap:round;stroke-linejoin:round;stroke-miterlimit:10;" d="M299.36,348.609
				c0.807,1.145,1.562,2.14,2.238,2.927"/>
			<path style="fill:none;stroke:#263238;stroke-linecap:round;stroke-linejoin:round;stroke-miterlimit:10;" d="M283.553,321.574
				c0,0,7.452,14.189,13.535,23.645"/>
			
				<line style="fill:none;stroke:#263238;stroke-linecap:round;stroke-linejoin:round;stroke-miterlimit:10;" x1="287.639" y1="336.214" x2="294.448" y2="346.428"/>
		</g>
		<path style="fill:#FFFFFF;stroke:#263238;stroke-linecap:round;stroke-linejoin:round;stroke-miterlimit:10;" d="M332.038,276.506
			c-1.445-0.743-6.151-3.161-7.08-3.625c-1.1-0.55-22.908-7.147-22.908-7.147s-1.648-0.181-3.963-0.429
			c-1.488,4.825-3.403,15.955,8.179,21.322C316.001,291.138,326.117,282.881,332.038,276.506z"/>
		<g>
			<polyline style="fill:#FFFFFF;stroke:#263238;stroke-linecap:round;stroke-linejoin:round;stroke-miterlimit:10;" points="
				301.146,276.605 301.46,259.686 327.061,265.91 325.743,277.982 			"/>
			<path style="fill:#FFFFFF;stroke:#263238;stroke-linecap:round;stroke-linejoin:round;stroke-miterlimit:10;" d="M300.4,248.14
				c0,0-0.55,15.761-0.367,19.243c0.183,3.482,4.765,11.179,6.781,12.096c2.016,0.916,6.414,1.833,7.697,1.283
				c1.283-0.55,9.713-5.681,11.729-8.064c2.016-2.382,3.482-6.598,3.482-6.598s3.849,0.733,4.948-6.414
				c1.1-7.147-0.183-15.028-4.948-18.693c-4.765-3.665-8.064-9.53-21.259-4.215C295.269,242.092,300.4,248.14,300.4,248.14z"/>
			<path style="fill:none;stroke:#263238;stroke-linecap:round;stroke-linejoin:round;stroke-miterlimit:10;" d="M310.113,261.701
				c0,0-1.1,1.649-0.367,2.383c0.733,0.733,4.032,1.466,5.132,0.916c1.1-0.55,1.466-1.833,1.466-1.833"/>
			
				<line style="fill:none;stroke:#263238;stroke-linecap:round;stroke-linejoin:round;stroke-miterlimit:10;" x1="309.93" y1="269.215" x2="313.229" y2="269.765"/>
			<path style="fill:#263238;" d="M309.563,255.195c0,0.86-0.41,1.558-0.916,1.558s-0.916-0.697-0.916-1.558
				c0-0.86,0.41-1.558,0.916-1.558S309.563,254.335,309.563,255.195z"/>
			<path style="fill:#263238;" d="M320.193,257.486c0,0.86-0.41,1.558-0.916,1.558c-0.506,0-0.916-0.697-0.916-1.558
				c0-0.86,0.41-1.558,0.916-1.558C319.783,255.928,320.193,256.626,320.193,257.486z"/>
			<path style="fill:none;stroke:#263238;stroke-linecap:round;stroke-linejoin:round;stroke-miterlimit:10;" d="M305.898,249.423
				c0,0,4.032,0.366,5.681,2.932"/>
			<path style="fill:none;stroke:#263238;stroke-linecap:round;stroke-linejoin:round;stroke-miterlimit:10;" d="M317.81,253.638
				c0,0,4.398-1.283,6.414,1.1"/>
		</g>
		<path style="fill:#263238;stroke:#263238;stroke-linecap:round;stroke-linejoin:round;stroke-miterlimit:10;" d="M320.926,223.765
			c0,0-7.697-4.765-14.661-1.833c-6.964,2.932-8.797,7.88-9.53,8.247c-0.733,0.367-6.598,0.367-6.598,0.367l2.566,2.749l1.833,0.916
			c0,0-4.765,2.932-5.315,4.215c-0.55,1.283-0.733,5.131-0.733,5.131l3.115-1.466l-0.366,2.932l2.383-1.283c0,0,0,2.199,1.283,4.215
			c1.283,2.016,4.948,3.665,4.948,3.665s1.283-3.299,2.749-5.131c1.466-1.833,1.833-2.932,1.833-2.932l1.1,4.582
			c0,0,0.183-0.733,2.382-3.665c2.199-2.932,4.765-5.315,4.765-5.315l4.948,6.781l1.283-2.199l1.466,4.765l6.964-3.482
			c0,0,0.55,6.414,1.466,7.697c0.916,1.283,0.916,3.116,0.916,3.116l-0.183,2.199c0,0,2.016-6.231,3.115-3.299
			c1.1,2.932,0.733,5.131-0.366,6.598c-1.1,1.466-3.849,3.665-4.582,4.398c-0.733,0.733-1.466,6.231-1.466,6.964
			c0,0.733,1.649,1.1,4.582-0.366c2.932-1.466,4.582-4.582,4.582-4.582l1.833,2.383c0,0,1.466-1.1,2.566-3.482
			c1.1-2.383,2.199-10.263,2.199-10.263l0.916,2.566c0,0,4.215-2.566,3.299-9.896c-0.916-7.331-3.482-13.378-5.498-14.661
			c-2.016-1.283-3.849-2.566-3.849-2.566l1.649-1.1c0,0-2.749-4.032-4.398-4.215c-1.649-0.183-4.765-0.183-4.765-0.183l-2.566-3.116
			l-3.116,2.383L320.926,223.765z"/>
		<path style="fill:#858585;stroke:#263238;stroke-linecap:round;stroke-linejoin:round;stroke-miterlimit:10;" d="M358.623,381.999
			c0,0,14.332,4.863,16.635,6.91c2.303,2.047,24.569,36.342,24.569,36.342l-26.872,2.559c0,0-20.474-31.223-20.986-35.062
			c-0.512-3.839,1.024-11.005,1.024-11.005L358.623,381.999z"/>
		<g>
			<g>
				<path style="fill:#FFFFFF;stroke:#263238;stroke-linecap:round;stroke-linejoin:round;stroke-miterlimit:10;" d="
					M282.257,380.641c0,0-13.928-3.482-21.809-11.912c-7.88-8.43-19.793-31.522-25.474-37.203
					c-5.681-5.681-16.494-6.598-21.809,2.566c-5.315,9.163,9.163,27.49,16.677,33.171c7.514,5.681,37.936,18.327,46.55,22.908
					c8.613,4.582,19.06,10.446,23.458,10.263c4.398-0.183,14.295-2.016,16.128-7.514c1.833-5.498,0.733-5.498,0-7.331
					c-0.733-1.833,2.016-0.916-6.598-1.833s-6.598,1.283-16.861-0.916C282.257,380.641,282.257,380.641,282.257,380.641z"/>
				<path style="fill:#263238;stroke:#263238;stroke-linecap:round;stroke-linejoin:round;stroke-miterlimit:10;" d="
					M245.787,348.203c0,0-0.183-0.183-6.598-2.016c-6.414-1.833-6.964-0.367-7.147,0.55c-0.183,0.916-0.183,2.749-0.183,2.749
					s-1.649-1.649-2.566-0.367c-0.916,1.283-0.916,2.932-0.916,2.932s-1.1-0.733-2.932-0.183c-1.833,0.55-2.566,0.733-2.932,2.016
					c-0.367,1.283-0.55,1.466-2.199,3.299c-1.649,1.833-5.865,4.948-5.865,4.948s2.566-3.482-1.283-5.865
					c-3.849-2.382-6.048-2.382-6.048-2.382s5.681-3.482,5.864-5.315c0.183-1.833-2.382-5.865-2.382-9.896
					c0-4.032,4.582-9.347,8.614-11.179c4.032-1.833,7.331-1.283,11.179,0.366c3.849,1.649,6.231,4.765,7.88,7.514
					C239.922,338.124,245.787,348.203,245.787,348.203z"/>
			</g>
			<path style="fill:none;stroke:#263238;stroke-linecap:round;stroke-linejoin:round;stroke-miterlimit:10;" d="M310.948,389.319
				c0,0,2.737,2.197,5.584,1.679"/>
			<path style="fill:none;stroke:#263238;stroke-linecap:round;stroke-linejoin:round;stroke-miterlimit:10;" d="M309.395,393.977
				c0,0,2.748,1.442,5.595,1.184"/>
			<path style="fill:none;stroke:#263238;stroke-linecap:round;stroke-linejoin:round;stroke-miterlimit:10;" d="M306.289,396.565
				c0,0,1.3,1.525,4.538,1.217"/>
			<path style="fill:none;stroke:#263238;stroke-linecap:round;stroke-linejoin:round;stroke-miterlimit:10;" d="M301.422,397.474
				c0,0,0.308,0.925,3.392,1.85"/>
		</g>
		<g>
			<g>
				<path style="fill:#FFFFFF;stroke:#263238;stroke-linecap:round;stroke-linejoin:round;stroke-miterlimit:10;" d="
					M325.855,383.501c5.327-1.408,10.42-3.649,14.967-6.763c3.755-2.571,7.381-5.844,8.694-9.475
					c3.116-8.613-6.964-18.143-11.729-18.143c-4.765,0-8.43,0.916-15.394,4.582c-6.964,3.665-21.809,12.462-34.271,17.594
					c-12.462,5.131-26.39,8.98-31.888,8.247c-5.498-0.733-20.526-4.765-25.474-7.147c-4.948-2.383-6.231,0.733-5.681,2.566
					c0.55,1.833,1.833,2.199,1.833,2.199s0.183,2.016,1.1,3.665c0.916,1.649,1.466,3.116,2.566,4.582
					c1.1,1.466,3.115,3.849,6.414,5.498c3.299,1.649,6.231,3.482,14.845,3.482s19.426-5.132,26.39-6.048
					c6.964-0.916,23.092-0.733,33.354-1.649C320.105,385.928,320.03,385.04,325.855,383.501z"/>
				<path style="fill:none;stroke:#263238;stroke-linecap:round;stroke-linejoin:round;stroke-miterlimit:10;" d="M226.91,377.159
					c0,0,2.016-1.283,4.215,0.55"/>
				<path style="fill:none;stroke:#263238;stroke-linecap:round;stroke-linejoin:round;stroke-miterlimit:10;" d="M228.01,380.825
					c0,0,1.1-1.1,3.299,0"/>
				<path style="fill:none;stroke:#263238;stroke-linecap:round;stroke-linejoin:round;stroke-miterlimit:10;" d="M230.576,385.406
					c0,0,1.1-1.833,2.932-1.283"/>
				<path style="fill:none;stroke:#263238;stroke-linecap:round;stroke-linejoin:round;stroke-miterlimit:10;" d="M233.141,387.972
					c0,0,0.55-2.016,2.749-1.283"/>
			</g>
			<path style="fill:#263238;stroke:#263238;stroke-linecap:round;stroke-linejoin:round;stroke-miterlimit:10;" d="
				M314.328,359.016c0,0,2.016-0.366,3.116,0.916c1.1,1.283,0,3.665-0.366,4.398c-0.367,0.733,2.932,0.367,2.016,2.016
				c-0.916,1.649-2.016,3.482-2.016,3.482s4.948-3.665,7.331-1.1c2.383,2.566-5.131,10.813-5.131,10.813s2.382,0.733,2.932,1.833
				c0.55,1.1,0.55,2.199,0.55,2.199s12.829-1.1,16.861-4.215c4.032-3.115,7.697-4.398,9.896-12.096
				c2.199-7.697,0.55-11.729-3.849-15.761c-4.398-4.032-7.147-3.665-12.645-2.383c-5.498,1.283-12.829,3.665-15.578,4.765
				c-2.749,1.1-3.482,3.116-5.498,3.665s-4.398,0.916-4.398,0.916L314.328,359.016z"/>
		</g>
		<g>
			<path style="fill:#858585;stroke:#263238;stroke-linecap:round;stroke-linejoin:round;stroke-miterlimit:10;" d="
				M361.083,393.246c-0.834,0-1.649-0.417-2.123-1.178L247.369,213.059c-0.73-1.172-0.372-2.714,0.799-3.444
				c1.172-0.73,2.714-0.374,3.444,0.799l111.59,179.01c0.73,1.172,0.373,2.714-0.799,3.443
				C361.992,393.124,361.535,393.246,361.083,393.246z"/>
		</g>
		<g>
			<path style="fill:#FFFFFF;stroke:#263238;stroke-linecap:round;stroke-linejoin:round;stroke-miterlimit:10;" d="
				M320.376,336.657c0,0-4.765,4.032-4.582,4.765c0.183,0.733,1.649,4.398,3.299,4.948c1.649,0.55,2.382-3.482,2.199-5.498
				C321.109,338.857,320.376,336.657,320.376,336.657z"/>
			<path style="fill:#FFFFFF;stroke:#263238;stroke-linecap:round;stroke-linejoin:round;stroke-miterlimit:10;" d="M367.109,311.55
				c0,0-7.514-1.1-11.546,2.383c-4.032,3.482-21.076,21.259-21.076,21.259s-10.263-3.299-11.546-2.383
				c-1.283,0.916-4.948,7.147-4.582,7.697c0.367,0.55,5.681,7.514,8.797,8.797c3.116,1.283,5.315,0.367,5.865-0.183
				s5.315-0.55,6.414-2.016s3.116-3.665,3.116-3.665s28.04-18.327,29.506-19.976c1.466-1.649,1.283-3.482-0.55-6.781
				C369.675,313.383,367.109,311.55,367.109,311.55z"/>
			
				<line style="fill:none;stroke:#263238;stroke-linecap:round;stroke-linejoin:round;stroke-miterlimit:10;" x1="325.874" y1="335.375" x2="320.376" y2="342.155"/>
			
				<line style="fill:none;stroke:#263238;stroke-linecap:round;stroke-linejoin:round;stroke-miterlimit:10;" x1="328.99" y1="338.857" x2="322.392" y2="345.454"/>
			
				<line style="fill:none;stroke:#263238;stroke-linecap:round;stroke-linejoin:round;stroke-miterlimit:10;" x1="325.874" y1="348.02" x2="332.472" y2="341.422"/>
		</g>
		<path style="fill:#FFFFFF;stroke:#263238;stroke-linecap:round;stroke-linejoin:round;stroke-miterlimit:10;" d="M266.679,232.012
			c0,0,2.749-1.649,3.849-1.1c1.1,0.55,2.932,3.299,2.932,4.215c0,0.916-3.482,2.749-5.131,1.833
			C266.679,236.044,266.679,232.012,266.679,232.012z"/>
		<g>
			<path style="fill:#FFFFFF;stroke:#263238;stroke-linecap:round;stroke-linejoin:round;stroke-miterlimit:10;" d="
				M263.564,228.347c0,0-7.147,6.048-7.147,7.147c0,1.1,0.733,12.279,0.733,12.279s-20.892,28.04-24.008,32.621
				c-3.115,4.582-3.482,8.247-0.183,13.378c3.299,5.132,6.964,4.398,10.629,3.665c3.665-0.733,8.797-16.86,13.195-27.49
				c4.398-10.629,6.598-16.311,6.598-16.311s3.482-2.566,4.032-4.215c0.55-1.649,0.367-3.665,0.367-4.582
				c0-0.916,1.649-1.649,2.199-1.833c0.55-0.183,2.016-0.183,2.199-1.283c0.183-1.1-0.733-3.116-0.733-3.116
				s-2.382-7.331-4.032-8.98C265.763,227.98,263.564,228.347,263.564,228.347z"/>
			<path style="fill:none;stroke:#263238;stroke-linecap:round;stroke-linejoin:round;stroke-miterlimit:10;" d="M268.695,232.562
				c0,0-3.482-1.1-4.215-0.916c-0.733,0.183-4.948,4.215-4.948,4.215"/>
			<path style="fill:none;stroke:#263238;stroke-linecap:round;stroke-linejoin:round;stroke-miterlimit:10;" d="M270.161,235.861
				c0,0-3.299-0.916-3.849-0.733c-0.55,0.183-4.582,4.032-4.582,4.032"/>
			<path style="fill:none;stroke:#263238;stroke-linecap:round;stroke-linejoin:round;stroke-miterlimit:10;" d="M271.994,239.893
				c0,0-2.199-1.466-2.932-1.283c-0.733,0.183-3.849,2.199-3.849,2.199"/>
		</g>
		
			<line style="fill:none;stroke:#263238;stroke-linecap:round;stroke-linejoin:round;stroke-miterlimit:10;" x1="337.42" y1="314.299" x2="333.021" y2="302.753"/>
	</g>
</g>
<g id="Seagulls">
	<g>
		<path style="fill:#ADADAD;" d="M83.149,270.05l0.944-2.265c0,0-1.132-0.189-2.265,0.378c-1.132,0.566-2.076,0.944-2.076,0.944
			s-0.377,0-2.642-1.321s-5.096-1.887-7.55-1.887c-2.454,0-11.136,1.321-9.059,2.076c2.076,0.755,6.983,0.189,8.116,0.755
			c1.132,0.566,1.887,1.51,2.831,2.076c0.944,0.566,4.152,1.321,4.152,1.321s-0.566,0.755-2.076,1.133
			c-1.51,0.378-1.51,0.378-1.51,0.378s0.566,2.454,3.586,2.642c3.02,0.189,4.719-0.189,4.719-0.189l-0.189-2.642
			c0,0,0,0.944,4.907,1.133c4.907,0.189,7.172,1.321,7.172,1.321s8.871,3.209,8.305,2.642c-0.566-0.566-4.341-4.341-6.417-5.096
			c-2.076-0.755-3.775-0.944-5.851-1.321C86.169,271.748,83.149,270.05,83.149,270.05z"/>
		<path style="fill:#ADADAD;" d="M127.858,262.782l0.944-2.265c0,0-1.133-0.189-2.265,0.377c-1.132,0.566-2.076,0.944-2.076,0.944
			s-0.377,0-2.642-1.321c-2.265-1.321-5.096-1.887-7.55-1.887c-2.454,0-11.136,1.321-9.06,2.076
			c2.076,0.755,6.983,0.189,8.116,0.755c1.132,0.566,1.887,1.51,2.831,2.076c0.944,0.566,4.152,1.321,4.152,1.321
			s-0.566,0.755-2.076,1.132c-1.51,0.378-1.51,0.378-1.51,0.378s0.566,2.454,3.586,2.642c3.02,0.189,4.718-0.189,4.718-0.189
			l-0.189-2.642c0,0,0,0.944,4.907,1.132c4.907,0.189,7.172,1.321,7.172,1.321s8.871,3.209,8.305,2.642
			c-0.566-0.566-4.341-4.341-6.417-5.096c-2.076-0.755-3.775-0.944-5.851-1.321C130.878,264.48,127.858,262.782,127.858,262.782z"/>
		<path style="fill:#ADADAD;" d="M136.79,293.591l0.703-1.687c0,0-0.843-0.141-1.687,0.281c-0.843,0.422-1.546,0.703-1.546,0.703
			s-0.281,0-1.968-0.984c-1.687-0.984-3.795-1.405-5.622-1.405c-1.827,0-8.292,0.984-6.746,1.546c1.546,0.562,5.2,0.141,6.044,0.562
			c0.843,0.422,1.406,1.124,2.108,1.546c0.703,0.422,3.092,0.984,3.092,0.984s-0.422,0.562-1.546,0.843
			c-1.124,0.281-1.124,0.281-1.124,0.281s0.422,1.827,2.671,1.968c2.249,0.141,3.514-0.141,3.514-0.141l-0.141-1.968
			c0,0,0,0.703,3.654,0.843c3.654,0.141,5.341,0.984,5.341,0.984s6.606,2.389,6.184,1.968c-0.422-0.422-3.233-3.233-4.779-3.795
			c-1.546-0.562-2.811-0.703-4.357-0.984C139.039,294.855,136.79,293.591,136.79,293.591z"/>
		<path style="fill:#ADADAD;" d="M107.686,297.417c0,0,0.189-1.51,0.944-2.265c0.755-0.755,1.887-1.321,0.755-3.02
			c-1.132-1.699-9.814-6.983-8.871-5.096c0.944,1.887,4.341,3.775,3.775,5.474s-1.376,2.82-2.076,3.209
			c-1.699,0.944-1.699,0.944-1.699,0.944s-0.566-0.566-2.076-0.566c-1.51,0-0.189-0.378-1.51,0s-3.02,0.944-2.265,2.831
			c0.755,1.887,0.944,2.642,2.076,1.887c1.132-0.755,1.887-1.133,3.209-1.51c1.321-0.378,3.02,1.132,3.963,2.454s2.265,0.755,0,3.02
			c-2.265,2.265-4.341,3.775-3.02,3.964c1.321,0.189,8.304-4.341,8.871-5.851c0.566-1.51-1.51-2.265-1.132-2.831
			c0.378-0.566,1.51-0.944,2.076-0.755l1.887,0.189c0,0-1.132-2.265-2.454-2.265C108.818,297.228,107.686,297.417,107.686,297.417z"
			/>
	</g>
</g>
</svg>
